<svg xmlns="http://www.w3.org/2000/svg" width="492.304" height="1526.277" viewBox="0 0 492.304 1526.277"><defs><style>.a{fill:#333;}.b{fill:#e8cda6;}.c{fill:#aec9a9;}.d{fill:#493838;}.e{fill:#cc9500;}.f,.g,.h,.j,.k{fill:none;stroke-linecap:round;stroke-linejoin:round;}.f,.h{stroke:#ccab7f;}.f,.k{stroke-width:3px;}.g{stroke:#cc9500;stroke-width:5px;}.h,.j{stroke-width:2px;}.i{fill:#395342;}.j{stroke:#233529;}.k{stroke:#352727;}</style></defs><g transform="translate(0 0)"><path class="a" d="M263.72,925.292c-8.358-9.062-13.641,39.179-13.268,46.737.558,11.263-1.062,23.617,9.742,29.068,8.272,4.173,20.162,7.4,29.078,10.147,4.978,1.536,10.591-.683,15.043.389,6.246,1.5,9.5,8.251,14.937,11.325,8.255,4.664,20.145,6.605,29.186,9.32,11.334,3.406,24.457,7.036,36.239,8.309,13.625,1.472,41.624,6.345,52.514-4.6,9.65-9.7,17.573-25.939,5.022-42.675-9.041-12.056-25.2-21.313-36.607-30.117-17.453-13.47-32.846-26.782-45.333-44.942-12.14-17.657-33.371-16.628-52.85-15.807C302.31,902.657,248.244,910.65,263.72,925.292Z" transform="translate(-162.864 483.335)"/><path class="a" d="M350.212,918.842c-9.024-8.4-10.619,40.105-9.672,47.612,1.414,11.188.739,23.629,11.927,28.241,8.565,3.533,20.666,5.841,29.765,7.9,5.083,1.153,10.509-1.487,15.029-.759,6.342,1.024,10.1,7.507,15.756,10.157,8.586,4.023,20.59,5.052,29.812,7.073,11.559,2.53,24.919,5.153,36.766,5.524,13.7.431,41.985,3.158,52.011-8.584,8.882-10.4,15.547-27.2,1.758-42.935-9.932-11.332-26.748-19.333-38.794-27.244-18.428-12.1-34.79-24.2-48.623-41.361-13.447-16.68-34.539-14.039-53.9-11.739C386.966,893.337,333.668,905.422,350.212,918.842Z" transform="translate(-96.029 475.125)"/><path class="b" d="M417.058,606.878c-8.288-12.2-15.367-20.8-16.63-35.268-1.752-20.072,1-40.057,4.326-59.942,5.13-30.67,36.531,3.838,53.446,2.6a250.332,250.332,0,0,1,4.854,27.05c1.18,10.97-1.4,18.924-3.149,28.738,2.722,3.627,32.578,17.683,6.377,18.508,4.328,3.667,9.526,10.42,6.86,16.227-3.587,7.807-13.8,4.591-19.437,4.464,8.08,6.267,2.811,12.466-5.071,13.176C435.982,623.567,423.4,616.216,417.058,606.878Z" transform="translate(-51.717 183.515)"/><path class="c" d="M417.935,269.592c23.087,13.036,33.722,38.921,46,61.4,14.862,27.209,27.2,45.579,41.078,73.18,14.546,28.919,41.546,68.821,42.751,101.332,1.583,42.75-44.341,121.577-73.989,178.91-6.645,12.853-15.364,14.551-30.511,17.421-33.223,6.3-45.2-24.886-47.586-47.535-4.48-42.569,8.523-58.7,25.42-98.129,9.5-22.166,18.5-32.825,23.749-53.833,1.583-6.333-30.325-43.26-30.083-63.333.417-34.442-15.146-106.8-11.435-140.867C404.713,285.474,404.7,271.348,417.935,269.592Z" transform="translate(-55.504 12.955)"/><path class="d" d="M236.268,528.995c.978,21.524,2,72.191,2,88.953,0,46.494,2.31,91.773,6.331,137.254,4.011,45.384,11.24,82.945,12.413,128.346,1.017,39.373,2.97,89.593,1.35,125.6-3.915,87.053,1.8,159.922.3,247.286,2.333,2.823,8.225,8.654,14.624,10.964,21.078,13.334,76.856,18.595,92.486,10.753,19.352-9.709,32.475-14.333,35.741-35.369,3.759-24.208,3.132-65.239,3.132-89.742,0-66.2,6.837-131.528,6.837-197.724,0-33.017,4.882-71.063,4.888-104.176.007-52.01,2.649-108.973,2.7-160.707.058-57.014-3.379-103.168-39.005-151.893-34.852-47.668-116.825-109.568-136.951-31.068Z" transform="translate(-173.399 162.004)"/><path class="d" d="M330.481,516.518c.853,21.524,1.745,72.191,1.745,88.954,0,46.494,2.014,91.773,5.517,137.254,3.5,45.383,9.8,82.945,10.821,128.346.888,39.373,2.589,89.593,1.177,125.6-3.412,87.053,1.573,159.922.262,247.285,2.035,2.823,5.489,6.22,12.689,9.308,17.7,16.365,65.251,22.7,78.878,14.855,16.87-9.709,30.116-16.778,32.963-37.814,3.276-24.208,2.729-65.239,2.729-89.742,0-66.2,5.96-131.528,5.96-197.724,0-33.017,4.256-71.063,4.262-104.176.005-52.009,2.309-108.973,2.354-160.707.049-57.014-.357-91.428-1.583-169.867-.884-56.519-134.26-91.593-151.8-13.093Z" transform="translate(-103.332 146.647)"/><path class="d" d="M234.626,500.6c2.466,29.378,3.412,55.037,14.682,81.654,17.711,41.826,62.569,59.5,103.967,75.154,53.485,20.23,117.324,24.689,167.42-7.43,23.931-15.341,31.537-41.518,37.505-67.762,6.961-30.6,9.193-52.5-13.944-77.8-40.323-44.076-98.263-55.281-155.206-59.354-41.009-2.935-76.856-.406-114.7,14.619C254.466,467.577,228.129,486.273,234.626,500.6Z" transform="translate(-175.368 142.656)"/><path class="e" d="M295.9,204.052c-.2,5.735-.462,22.673,4.176,26.564.253-.26,1.015-.656,1.275-.868-.028-.347-.047-.35-.059-.01.7,3.456,4.061,5.379,6.907,2.874,4.33-3.813,2.11-15.641,1.681-20.443-.459-5.153-.523-12.305-6.984-13.085C298.416,198.54,295.8,202.02,295.9,204.052Z" transform="translate(-129.118 -39.525)"/><path class="b" d="M464.36,214.275c-.1-24.74-3.8-54.721-19.594-73.764-22.253-26.827-64.231-17.317-90.389-5.1C326.668,148.352,313,188.7,316.174,218.72c-32.668-26.469-43.547,50.018-7.411,40.011,8.216,22.267,1.36,58.569-8.891,74.094,5.775,31.479,66.08,142.966,102.776,148.2,29.408,4.2,22.813-84.882,39.736-102.652-2.119-8.839-10.272-23.026-9.153-53.244C485.832,298.273,464.445,235.5,464.36,214.275Z" transform="translate(-136.25 -95.863)"/><path class="e" d="M299.725,224.908c12.1,5.862,6.279,20.44,19.95,17.713,7.01-22.122.237-52.512,19.5-70.036,18.775-17.081,46.142-4.242,68.863-4.5,23.369-.27,33.155-8.678,39.383-1.2,9.24-6.872-.361-31.277-7.25-38.255-10.359-10.492-27.952-13.073-41.729-16.577-.211,1.674-1.634,2.977-1.521,5.254-12.352.471-23.444-10.136-36.585-9.732-.293,6.963-.255,13.44-2.607,19.781-10.865.286-21.047,2.321-28.457,7.62-9.775,6.987-17.052,9.77-25.966,28.759C299.412,172.014,290.514,223.793,299.725,224.908Z" transform="translate(-129.208 -107.554)"/><path class="f" d="M372.227,168.637c.277,11.193,3.568,23.425,5.855,33.866,1.765,8.054,3.965,17.885-5.4,22.1-3.1,1.4-5.629,1.862-13.09,1.807" transform="translate(-81.684 -62.126)"/><path class="f" d="M344.008,206.826a17.88,17.88,0,0,0,12.189,9.93c6.771,1.8,12.638,1.355,18.506-1.8" transform="translate(-93.272 -33.724)"/><ellipse cx="6.208" cy="8.694" rx="6.208" ry="8.694" transform="translate(238.43 109.683)"/><ellipse cx="6.208" cy="8.694" rx="6.208" ry="8.694" transform="translate(302.256 110.372)"/><path class="g" d="M328.735,168.408c6.321-9.479,24.375-13.09,33.4-9.029" transform="translate(-104.631 -70.235)"/><path class="g" d="M371.448,159.583a21.4,21.4,0,0,1,13.09-.9c6.319,1.353,9.479,4.061,11.284,7.672" transform="translate(-72.864 -69.987)"/><path class="h" d="M329.253,231.936c4.781,3.36,10.536,7.242,16.25,9.479,10.382,4.063,17.7,6.2,27.083,6.771,10.293.628,19.578.007,28.436-4.514" transform="translate(-104.245 -15.05)"/><path class="c" d="M303.643,229.24c-3.536,7.465,5.078,25.476,9.313,32.428,7.17,11.768,13.758,21.967,24.55,30.283,5.217,4.021,8.668,9.7,14.775,9.7,6.441,0,9.442-2.467,12.549-.729,2.542,1.421,4.234,8.82,5.231,11.641,3.616,10.229,8.434,22.551,14.3,30.3,8.073-17.592,15.655-35.043,25.162-52.161,5.89-10.605,15.043-23.327,17.679-34.763,2.481,1.974,3.963,12.675,4.361,16.748.942,9.683-4.448,17.978-7.723,27-6.338,17.462-10.713,34.937-12.394,53.478-1.273,14.047-1.738,51.192-17.706,57.5-11.3,4.467-28-14.412-35.4-21.043-19.074-17.092-31.378-38.848-42.207-61.732-6.956-14.7-15.932-30.806-18.178-47.1-.917-6.649-1.534-12.822-3-19.317C293.526,255.16,294.084,231.618,303.643,229.24Z" transform="translate(-130.192 -17.055)"/><path class="i" d="M569.609,696.384c0-17.843,2.431-37.05,2.439-54.892.014-34.654-4.483-48.642-10.044-82.486-3.927-23.9-7.336-41.914-7.336-70.205.755-17.51,1.608-44.365,1.627-61.159.012-11.917-.816-23.735-1.329-35.268-1.123-25.2,4.942-83.8-10.776-93.233-12.312-7.388-33.53-10.478-45.125-19.231-5.017-9.542-13.93-19.549-21.713-24.747.868,18.684,2.607,21.291.419,24.747-16.83,26.583-33.835,79.4-30.611,109.135-4.745-13.758-14.8-24.215-21.627-36.933-8.033-14.975-3.254-29.626-10.924-43.373-4.426,2.073-11.1,2.725-15.362.452-29.962-15.974-54.8-58.195-45.727-80.1-10.5-5.257-22.157,19.706-26.142,28.192-14.76,5.182-11.951,8.091-29.763,13.331-25.676,7.552-35.627,15.718-46.105,23.052C233.7,312.53,233.187,349.083,229.5,369.113c-6.626,36.056,1.149,77.417,7.451,113.676,5.974,34.365-1.32,88.535-4.609,123.826-3.491,37.467-9.435,48.24.26,85.438,3.4,13.057,36.13,16.166,46.555,15.55,61.347-3.616,63.039-2.621,123.409,8.725,42.672,8.021,87.644-.413,130.89-3.739C549.665,711.343,559.135,710.149,569.609,696.384Z" transform="translate(-180.311 -17.699)"/><path class="b" d="M209.324,598.722c2.619,8.964,2.37,19.831,2.452,30.639.063,8.358-.249,19.38.063,26.9.581,13.965-1.289,50.313,7.6,56.261,1.864-1.315,5.179-1.09,6.837-2.113,2.235,12.143,10.258,23.966,18.253,8.515,3.854,12.413,15.322,16.2,20.286,1.226,9.951,16.058,14.368-31.2,14.375-37.716-.218,4.807,1.915,6.687,4.9,9.552,16.168-9.081,9.369-63.1,4.762-78.1C278.561,580.406,218.3,567.187,209.324,598.722Z" transform="translate(-193.438 244.397)"/><path class="c" d="M201.8,625.4c2.082,65.211,3.378,101.705,6.971,150.154,1.7,22.966.895,47.4,4.284,69.586,13.23,5.742,34.3,9.367,50.39,10.835,13.1,1.2,30.368,4.056,42.475,3.02,5.833-11.983,7.6-31.425,7.325-44.485-.727-34,.516-63.3-1.806-97.044-1.52-22.091,1.915-105.714-1.929-125.885l7.378-71.422c3.548-41.7,7.481-84.251,8.176-131.734.506-34.423,6.344-94.79-30.049-114.014-29.157-15.4-43.725,7.4-55.272,31.385-17.184,35.694-20.782,72.315-26.965,110.912-3.547,22.147-4.807,44.538-5.1,67.117-.216,16.417-3.378,42.266-5.97,64.207C198.541,574.833,201.315,610.064,201.8,625.4Z" transform="translate(-200.213 12.811)"/><path class="j" d="M353.646,319.179c2.394,13.883,5.1,28.783,6.637,43.572,2.448,23.62,8.359,47.528,9.4,71.253,1.3,29.652,2.833,59.248,5.742,88.786,2.657,26.979,6.671,53.485,5.716,80.805-.3,8.548-6.572,41.718-1.9,46.433" transform="translate(-86.104 49.834)"/><path class="j" d="M291.7,331.4c1.9,22.752,2.694,46.852,4.821,66.833.957,9-.342,18.175,8.452,20.382,7.006,1.759,18.647-2.216,25.573-1.874,6.835.338,16.944,2.725,21.826-2.127,6.488-6.45,2.282-22.877,1.874-31.1-.551-11.09-.344-21.77-.926-32.682-.272-5.088,1.048-19.121-2.809-22.787-5-4.757-23.254-3.6-29.423-3.283-10.028.513-18.044,1.437-28.274,2.061A5.478,5.478,0,0,0,291.7,331.4Z" transform="translate(-132.227 53.725)"/><path class="j" d="M291.879,333.185c1.822,26.108,59.869,22.511,60.826.959" transform="translate(-132.041 60.25)"/><path class="k" d="M339.612,743.24c3.126-25.608.771-50.653,5.531-72.845,4.717-21.983,3.219-49.279,11.271-69.872,3.5-8.968,13.608-16.295,20.081-23.256" transform="translate(-96.541 241.776)"/></g></svg>