<svg xmlns="http://www.w3.org/2000/svg" width="87.277" height="86.384" viewBox="0 0 87.277 86.384"><defs><style>.a{fill:#d5a400;}.b{fill:#fff;stroke:#fff;stroke-width:0.7px;}</style></defs><g transform="translate(-1795 0)"><path class="a" d="M87.248,100.081c0,.461.064,85.664,0,85.527A77.967,77.967,0,0,1,0,108.277a79.608,79.608,0,0,1,.426-8.2C.511,99.321,87.1,100.254,87.248,100.081Z" transform="translate(1795 -99.779)"/><g transform="translate(1826.636 18.196)"><g transform="translate(0 0)"><path class="b" d="M1.292,46.222H4.34v12.19a1.31,1.31,0,0,0,1.306,1.306h8.925a1.31,1.31,0,0,0,1.306-1.306V49.487h5.442v8.925a1.31,1.31,0,0,0,1.306,1.306h8.489a1.31,1.31,0,0,0,1.306-1.306V46.222h3.7A1.3,1.3,0,0,0,37.035,44L20.013,26.74a1.3,1.3,0,0,0-1.828-.022L.4,43.98a1.307,1.307,0,0,0-.3,1.437A1.273,1.273,0,0,0,1.292,46.222ZM19.055,29.5,32.986,43.61H31.114a1.31,1.31,0,0,0-1.306,1.306v12.19H23.931V48.181a1.31,1.31,0,0,0-1.306-1.306H14.571a1.31,1.31,0,0,0-1.306,1.306v8.925H6.952V44.916A1.31,1.31,0,0,0,5.646,43.61H4.514Z" transform="translate(0 -26.353)"/></g></g></g></svg>