<svg xmlns="http://www.w3.org/2000/svg" width="78.18" height="78.18" viewBox="0 0 78.18 78.18"><defs><style>.a{fill:#d5a400;}.b{fill:#fff;}</style></defs><circle class="a" cx="39.09" cy="39.09" r="39.09"/><path class="b" d="M25.55,8.843a3.3,3.3,0,1,0-3.3-3.3A3.306,3.306,0,0,0,25.55,8.843ZM8.242,19.558a8.242,8.242,0,0,0,0,16.484,8.242,8.242,0,0,0,0-16.484Zm0,14.011a5.769,5.769,0,0,1,0-11.539,5.769,5.769,0,0,1,0,11.539ZM17.8,17.085l3.956-3.956,1.319,1.319a11.548,11.548,0,0,0,8.407,3.462v-3.3A8.189,8.189,0,0,1,25.55,12.14L22.418,9.008a4.042,4.042,0,0,0-2.637-.989,2.766,2.766,0,0,0-2.308.989l-4.615,4.615a3.254,3.254,0,0,0-.989,2.308,2.766,2.766,0,0,0,.989,2.308l5.275,4.615V31.1h3.3V20.877Zm13.517,2.473A8.242,8.242,0,1,0,39.561,27.8,8.162,8.162,0,0,0,31.319,19.558Zm0,14.011A5.769,5.769,0,1,1,37.088,27.8,5.84,5.84,0,0,1,31.319,33.569Z" transform="translate(19.269 18.549)"/></svg>