<?xml version="1.0" encoding="utf-8"?>
<!-- Generator: Adobe Illustrator 25.4.1, SVG Export Plug-In . SVG Version: 6.00 Build 0)  -->
<svg version="1.1" id="Layer_1" xmlns="http://www.w3.org/2000/svg" xmlns:xlink="http://www.w3.org/1999/xlink" x="0px" y="0px"
	 viewBox="0 0 78 78" style="enable-background:new 0 0 78 78;" xml:space="preserve">
<style type="text/css">
	.st0{fill:#D5A400;}
	.st1{fill:#FFFFFF;}
</style>
<circle class="st0" cx="39" cy="39" r="39"/>
<path class="st1" d="M58.6,38.3c-1.1-4.6-3.6-7.6-8.1-9.9c1.2,6-5,8.6-9.1,7.3c0.8-1.3,1.2-2.9,1.2-4.6c0-5.2-4.1-9.3-9.3-9.3
	c-4.5,0-8.2,3.2-9.1,7.6c-1.3,0.3-2.7,0.4-4,0.4c-0.4,0-0.8,0.3-1.1,0.5c-0.3,0.3-0.3,0.9,0,1.3c0.8,2.1,3.2,3,5.8,3.4
	c0.3,0.7,0.7,1.3,1.2,1.9c-2.8,1.9-4.6,5.2-4.6,8.7c0,5.8,4.8,10.6,10.6,10.6h12.5c4.5,0,8.6-2,11.4-5.6
	C58.6,47.2,59.7,42.7,58.6,38.3z M32,27.1c0.8,0,1.3,0.5,1.3,1.3c0,0.8-0.5,1.3-1.3,1.3c-0.8,0-1.3-0.5-1.3-1.3
	C30.7,27.6,31.3,27.1,32,27.1z"/>
</svg>
