<svg xmlns="http://www.w3.org/2000/svg" width="78.18" height="78.18" viewBox="0 0 78.18 78.18"><defs><style>.a{fill:#d5a400;}.b{fill:#fff;}</style></defs><circle class="a" cx="39.09" cy="39.09" r="39.09"/><path class="b" d="M16.029,7.4a3.7,3.7,0,1,0-3.7-3.7A3.7,3.7,0,0,0,16.029,7.4Zm7.283,11.49-1.8-.909-.748-2.266a8.4,8.4,0,0,0-7.876-5.849c-2.774-.008-4.308.778-7.19,1.942a7.351,7.351,0,0,0-3.83,3.56l-.516,1.048A2.474,2.474,0,0,0,2.45,19.721a2.433,2.433,0,0,0,3.275-1.1l.516-1.048a2.45,2.45,0,0,1,1.272-1.187l2.065-.832L8.407,20.229a4.949,4.949,0,0,0,1.148,4.531l4.616,5.04a4.973,4.973,0,0,1,1.148,2.135l1.41,5.649a2.466,2.466,0,1,0,4.786-1.194l-1.711-6.859A4.93,4.93,0,0,0,18.657,27.4l-3.506-3.83,1.325-5.294.424,1.272a4.915,4.915,0,0,0,2.443,2.851l1.8.909a2.433,2.433,0,0,0,3.275-1.1,2.5,2.5,0,0,0-1.1-3.314ZM5.672,29.731a4.782,4.782,0,0,1-1.094,1.657L.724,35.249A2.466,2.466,0,0,0,4.208,38.74l4.578-4.578a5.009,5.009,0,0,0,1.094-1.657l1.04-2.6c-4.262-4.647-2.982-3.221-3.653-4.138l-1.6,3.969Z" transform="translate(26.957 18.871)"/></svg>