<svg xmlns="http://www.w3.org/2000/svg" width="78.18" height="78.18" viewBox="0 0 78.18 78.18"><defs><style>.a{fill:#d5a400;}.b{fill:#fff;}</style></defs><circle class="a" cx="39.09" cy="39.09" r="39.09"/><path class="b" d="M13.171,36.581c-2.309-4.806-1.08-7.559.7-10.154a16.176,16.176,0,0,0,2.445-5.654,6.643,6.643,0,0,1,.917,5.093,12.854,12.854,0,0,0,2.8-9.626c6.1,4.264,8.71,13.5,5.2,20.34C43.917,26,29.874,10.179,27.43,8.4c.815,1.783.969,4.8-.677,6.265C23.966,4.094,17.075,1.928,17.075,1.928c.815,5.45-2.954,11.409-6.589,15.862a11.778,11.778,0,0,0-1.406-5.752C8.824,15.986,5.807,19.2,4.99,23.159,3.884,28.515,5.819,32.437,13.171,36.581Z" transform="translate(19.562 19.639)"/></svg>