<svg xmlns="http://www.w3.org/2000/svg" width="78.18" height="78.18" viewBox="0 0 78.18 78.18"><defs><style>.a{fill:#d5a400;}.b{fill:#fff;fill-rule:evenodd;}</style></defs><circle class="a" cx="39.09" cy="39.09" r="39.09"/><g transform="translate(20.917 25.611)"><path class="b" d="M16.037,12.87a10.615,10.615,0,0,1,3.091,11.51h10.34a5.2,5.2,0,0,1,7.277-3.173l1.2-7.034a2.081,2.081,0,0,0-2.186-2.186H29.08V6.69a.781.781,0,0,0-.741-.776V3.176H27.316V5.914a.777.777,0,0,0-.719.773v5.3H21.386c1-4.716-.167-6.328-.839-11.125A1.323,1.323,0,0,0,19.175,0H7.031A1.252,1.252,0,0,0,5.779.94L4.955,8.873,3.315,10.81c-.716.83-.508.637.151,1.628.114-.082.227-.164.344-.24,3.451-2.258,8.977-1.852,12.226.672ZM28.193,1.706a.123.123,0,0,1,.177.17c-.091.095-.057.23-.025.356.057.214.107.41-.151.558a.123.123,0,0,1-.167-.044.125.125,0,0,1,.047-.167c.095-.054.066-.164.035-.284a.557.557,0,0,1,.085-.59Zm-.738,0a.123.123,0,0,1,.177.17c-.091.095-.057.23-.025.356.057.214.107.41-.151.558a.122.122,0,1,1-.123-.211c.095-.054.066-.164.035-.284a.551.551,0,0,1,.088-.59Zm-13.434.918V8.476a25.5,25.5,0,0,1,4.006,1.262c.688.281,1.5-.625,1.353-1.353L18.5,3.974a1.475,1.475,0,0,0-1.353-1.353H14.021ZM12.677,8.208V2.624H9.334c-.744,0-1.183.628-1.353,1.353l-.587,2.53C7.227,7.233,8,7.848,8.747,7.861a25.139,25.139,0,0,1,3.93.347ZM34.65,21.765a4.108,4.108,0,1,1-4.107,4.11,4.111,4.111,0,0,1,4.107-4.11ZM8.778,12.551A8.778,8.778,0,1,1,0,21.329a8.778,8.778,0,0,1,8.778-8.778Zm0,4.06A4.719,4.719,0,1,1,4.06,21.329a4.72,4.72,0,0,1,4.719-4.719ZM34.65,23.79a2.082,2.082,0,1,1-2.082,2.082A2.082,2.082,0,0,1,34.65,23.79Zm-6.107-9.236h5.189l-.117.6H28.442l.1-.6Zm-1.82,3.23h7.009l-.117.6h-7l.1-.6Zm.647-1.615h6.365l-.117.6H27.266l.1-.6Z" transform="translate(0)"/></g></svg>