<?xml version="1.0" encoding="utf-8"?>
<!-- Generator: Adobe Illustrator 25.4.1, SVG Export Plug-In . SVG Version: 6.00 Build 0)  -->
<svg version="1.1" id="Layer_1" xmlns="http://www.w3.org/2000/svg" xmlns:xlink="http://www.w3.org/1999/xlink" x="0px" y="0px"
	 viewBox="0 0 78 78" style="enable-background:new 0 0 78 78;" xml:space="preserve">
<style type="text/css">
	.st0{fill:#D5A400;}
	.st1{fill:#FFFFFF;}
</style>
<circle class="st0" cx="39" cy="39" r="39"/>
<path class="st1" d="M49.5,21.7c-0.8-0.3-1.6-0.5-2.4-0.7v-2.5c0-0.6-0.5-1.2-1.1-1.3c-4.6-0.8-9.3-0.8-14,0
	c-0.6,0.1-1.1,0.7-1.1,1.3V21c-0.8,0.2-1.6,0.4-2.4,0.7c-2.3,0.7-3.9,2.9-3.9,5.8v20.8c0-0.3,0-0.2,0,0c0.2,2.4,2,4.4,4.5,4.9
	l-3.3,5.3c-0.5,1-0.2,2.2,0.8,2.7s2.2,0.2,2.7-0.8c0,0,0-0.1,0-0.1l1.1-1.6h17.1l1.1,1.6c0.5,1,1.7,1.3,2.7,0.8
	c0.9-0.5,1.3-1.7,0.8-2.6l-3.3-5.3c2.4-0.4,4.2-2.4,4.4-4.9c0-0.1,0-0.3,0,0V27.5C53.4,24.6,51.8,22.5,49.5,21.7z M35,21.7
	c0-0.3,0.2-0.5,0.5-0.6c2.3-0.3,4.6-0.3,6.9,0c0.3,0,0.5,0.3,0.5,0.6V24c0,0.3-0.3,0.6-0.6,0.6h-6.7c-0.3,0-0.6-0.2-0.6-0.6V21.7z
	 M29.5,45c0-1.5,1.2-2.7,2.7-2.7c1.5,0,2.7,1.2,2.7,2.7c0,1.5-1.2,2.7-2.7,2.7C30.7,47.8,29.5,46.6,29.5,45C29.5,45,29.5,45,29.5,45
	z M32.1,55.4l1.4-2.2h10.9l1.4,2.2H32.1z M45.8,47.8c-1.5,0-2.7-1.2-2.7-2.7s1.2-2.7,2.7-2.7s2.7,1.2,2.7,2.7
	C48.5,46.5,47.3,47.8,45.8,47.8L45.8,47.8z M48.7,30.4l-1.6,7.1C47,38,46.5,38.4,46,38.4H32.1c-0.5,0-1-0.4-1.1-0.9l-1.7-7.1
	c-0.1-0.6,0.2-1.1,0.8-1.3c0.1,0,0.2,0,0.2,0h17.4c0.6,0,1.1,0.5,1.1,1.1C48.8,30.2,48.8,30.3,48.7,30.4L48.7,30.4z"/>
</svg>
