<?xml version="1.0" encoding="utf-8"?>
<!-- Generator: Adobe Illustrator 25.4.1, SVG Export Plug-In . SVG Version: 6.00 Build 0)  -->
<svg version="1.1" id="Layer_1" xmlns="http://www.w3.org/2000/svg" xmlns:xlink="http://www.w3.org/1999/xlink" x="0px" y="0px"
	 viewBox="0 0 78.2 78.2" style="enable-background:new 0 0 78.2 78.2;" xml:space="preserve">
<style type="text/css">
	.st0{fill:#D5A400;}
	.st1{fill-rule:evenodd;clip-rule:evenodd;fill:#FFFFFF;}
</style>
<circle class="st0" cx="39" cy="39" r="39"/>
<g transform="translate(17.482 21.256)">
	<path class="st1" d="M30.9,3.3c6.5-7.1,7.6-0.6,12.5,0.7c0.6,0.2,1,0.2,1,0.5C43.9,7.2,43,7.7,42,7.8c-0.9-0.1-1.8,0.1-2.7,0.3
		c-0.8,0.3-1.4,0.9-1.9,1.5l-6.8-3.5C30.8,5.2,30.9,4.2,30.9,3.3z M36.7,11c-1.5,3.9,0.5,9.7-6,11.8c-0.4,3.3-0.4,6.6,0.1,9.9
		l0.8-0.1c1.4-0.2,1.4,1.1,0.7,2h-4.2c-0.3-4-1.1-8.3-0.8-12.1c-2,0.6-4.1,0.4-6-0.5c-1.2-0.4-6-3.3-7.3-2.2c-0.7,0.7,1.2,3.3-3.6,8
		l0.1,4.7h0.8c1.2,0,1.2,1.2,0.7,2.1H9.6c-1.6,0-1.3,0.2-1.3-1.5l0-3.6l-0.3-2.2c0-1.3,1-2.8,0-5.9c-0.6-2.1-0.6-3.8-2.1-4
		c-1.5,3-2.9,5.7-4.1,8.8c-0.1,0.2-0.2,0.4-0.3,0.6c-1.4,3.2-2,0.8-1.2-1.1l0.5-1.3c0.7-2.7,2.6-7.8,4.4-9.7
		C12,7.4,25.7,14.1,29.8,8L36.7,11L36.7,11z"/>
</g>
</svg>
