<svg xmlns="http://www.w3.org/2000/svg" width="78.18" height="78.18" viewBox="0 0 78.18 78.18"><defs><style>.a{fill:#d5a400;}.b{fill:#fff;}.c{fill:none;stroke:#fff;stroke-width:2px;}</style></defs><circle class="a" cx="39.09" cy="39.09" r="39.09"/><g transform="translate(14.933 23.401)"><path class="b" d="M23.583,8.336A3.043,3.043,0,1,0,20.54,5.293,3.052,3.052,0,0,0,23.583,8.336ZM7.607,18.225a7.607,7.607,0,0,0,0,15.215,7.607,7.607,0,0,0,0-15.215Zm0,12.932a5.325,5.325,0,0,1,0-10.65,5.325,5.325,0,1,1,0,10.65Zm8.824-15.215,3.652-3.652L21.3,13.509a10.659,10.659,0,0,0,7.759,3.2V13.661a7.559,7.559,0,0,1-5.477-2.282L20.692,8.488a3.731,3.731,0,0,0-2.434-.913,2.553,2.553,0,0,0-2.13.913l-4.26,4.26a3,3,0,0,0-.913,2.13,2.553,2.553,0,0,0,.913,2.13l4.869,4.26v7.607h3.043V19.443Zm12.476,2.282a7.607,7.607,0,1,0,7.607,7.607A7.533,7.533,0,0,0,28.908,18.225Zm0,12.932a5.325,5.325,0,1,1,5.325-5.325A5.391,5.391,0,0,1,28.908,31.158Z" transform="translate(12.439 -2.059)"/><path class="c" d="M1501.451,15965.42l-6.628-8.518-17.24,30.1h10.756" transform="translate(-1477.583 -15956.902)"/></g></svg>