<svg xmlns="http://www.w3.org/2000/svg" width="78.18" height="78.18" viewBox="0 0 78.18 78.18"><defs><style>.a{fill:#d5a400;}.b{fill:#fff;}</style></defs><circle class="a" cx="39.09" cy="39.09" r="39.09"/><path class="b" d="M6.533,12.1V32.446a2.041,2.041,0,0,0,2.035,2.035H26.879a2.041,2.041,0,0,0,2.035-2.035V12.1H6.533Zm6.1,18.311H10.6V16.17h2.035Zm4.069,0H14.671V16.17h2.035Zm4.069,0H18.741V16.17h2.035Zm4.069,0H22.81V16.17h2.035ZM29.422,6H22.81V3.454a1.53,1.53,0,0,0-1.526-1.526H14.163a1.53,1.53,0,0,0-1.526,1.526V6H6.025A1.53,1.53,0,0,0,4.5,7.523v2.543H30.948V7.523A1.53,1.53,0,0,0,29.422,6ZM20.775,6h-6.1V3.988h6.1V6Z" transform="translate(21.112 20.987)"/></svg>