<svg xmlns="http://www.w3.org/2000/svg" width="190.673" height="190.673" viewBox="0 0 190.673 190.673"><defs><style>.a{fill:#d19100;}.b{fill:#fff;}.c{fill:none;stroke:#161615;stroke-width:0.096px;}</style></defs><g transform="translate(0 0)"><path class="a" d="M290.927,429.92a95.337,95.337,0,1,0-95.336-95.337,95.337,95.337,0,0,0,95.336,95.337" transform="translate(-195.591 -239.247)"/><path class="b" d="M347.33,324.738a1.6,1.6,0,0,1,1.069-.609,20.2,20.2,0,0,0,2.761-.673c.47-.22,1.335-.808,1.66-.9s1.021.054,1.214-.053.781-.471,1.125-.378.7.455.653.762-.391,1.51-.482,2.48.006,2.5-.05,2.9a16.507,16.507,0,0,1-.23,1.956,8.337,8.337,0,0,0-.332,1.405,6.955,6.955,0,0,1-.133,1.9,4.7,4.7,0,0,1-.637,1.028c-.155.2-.674.665-.535,1.265a3.353,3.353,0,0,0,.622,1.294,1.142,1.142,0,0,1,.265.976,17.548,17.548,0,0,0-.465,1.722c-.08.57-.141,1.634-.146,1.991a7.712,7.712,0,0,1-.034,1.515.6.6,0,0,1-.637.4.514.514,0,0,1-.5-.473.758.758,0,0,1,.313-.716c.206-.195.455-.505.354-.743s-.268-.383-.47-.346a2.245,2.245,0,0,0-.582.321s-.325.088-.382-.143a1.159,1.159,0,0,1,.08-.57s-.493-.2-.521-.431a6.234,6.234,0,0,0-.141-1.227,6.07,6.07,0,0,1-.379-1.438,7.3,7.3,0,0,1,.2-1.133l-.191-.229s.2-.128.089-.634a1.208,1.208,0,0,0-.565-.75s.237-.414.08-.57a2.884,2.884,0,0,1-.621-.668c-.1-.238-.09-.951-.278-1.2a6.766,6.766,0,0,1-.91-1.469c-.12-.419-.152-1.383-.209-1.614a8.373,8.373,0,0,1-.361-1.326,4.088,4.088,0,0,0,.085-1.239,11.914,11.914,0,0,0-.686-1.482,1.372,1.372,0,0,1-.1-.907" transform="translate(-249.053 -268.451)"/><path class="b" d="M367.4,321.49a6.013,6.013,0,0,1,1.7-.3,8.384,8.384,0,0,1,1.445-.11c.26.054.495.293.677.274a5.636,5.636,0,0,1,1.045-.121,3.7,3.7,0,0,1,.72.28c.213.075,1.058.1,1.408.153a11.372,11.372,0,0,1,1.574.357c.6.194,1.219.437,1.219.437l.322.127.189-.135s-.463-.314-.438-.488a.362.362,0,0,1,.464-.262c.212.074.605.506.894.681a5.514,5.514,0,0,1,.669.519s.315.4.19.646-.385.445-.56.42-.376-.335-.4-.517a2.486,2.486,0,0,1,.008-.427l-.3-.229-.148.12-.406.22s-.642-.205-1.2-.373-1.155-.335-1.378-.372c-.247-.042-.774-.043-.817.174-.069.339.363.525.6.6s.968.05,1.181.124.408.373.627.4.471-.065.786.246.139.5.139.5a.431.431,0,0,0-.079.3c.019.182.346.272.346.272l.3-.19.291.15s-1.515,1.34-2.046,1.936-1.054,1.462-1.478,1.938-1.489,1.444-1.489,1.444l.084.28a4.907,4.907,0,0,1-.486.6,1.573,1.573,0,0,1-.35.263l-.551-.1-.032.226.215.267-1.1,1.46.15.208-.8.945.067.278a8.474,8.474,0,0,0-.635.581c-.262.276-.782.1-.782.1s-.52-.368-.745-.355a.55.55,0,0,0-.46.352.614.614,0,0,0,.566.762,3.148,3.148,0,0,0,.849-.13,2.211,2.211,0,0,1-.808.825c-.425.163-1.513.279-1.738.605a2.627,2.627,0,0,0,.047,1.57,1.26,1.26,0,0,1-.036.889,8.873,8.873,0,0,1-.98.934s.014.538-.18.645-.576-.036-.576-.036-.247.171-.272.346a2.046,2.046,0,0,0,.143.618s-.894.589-.919.765,0,.626-.3.852-1.256.5-1.452.154a4.349,4.349,0,0,1,.163-2.435,6.27,6.27,0,0,0,.335-1.311,1.79,1.79,0,0,0,.286-.568,6.048,6.048,0,0,1,.216-1.533c.168-.245,1.337-1.243,1.317-1.737s-.289-3.347-.227-3.785.717-2.041.764-2.261c.069-.321.271-2.241.463-2.974s.74-2.086.74-2.086l.12-.955-.022-.594.354-.4s-.018-.718-.039-.989a2.074,2.074,0,0,1,.227-.766Z" transform="translate(-254.324 -268.084)"/><path class="b" d="M385.568,327.567l.156-.156.407.28-.085.163.288.24.167-.045.3.315-.175.289a1.447,1.447,0,0,1,.411.6c.051.275-.239.722-.088.923a.741.741,0,0,0,.545.255l.428.06s.052.276.1.461.4.5.4.5l.245.168-.181.332.154.174.36-.021s.425.158.388.421a4.714,4.714,0,0,1-.292.808,1.411,1.411,0,0,0-.1.736,4.347,4.347,0,0,0,.684,1.178,3.683,3.683,0,0,1,.617,1.059,5.762,5.762,0,0,1,.169.66l.007.581.4.326a1.99,1.99,0,0,1,.078.615,1.4,1.4,0,0,1-.99.879c-.306.1-3.384,1.343-3.384,1.343l-.447.384-.407.032-.969.534a4.232,4.232,0,0,1-.793.872,2.851,2.851,0,0,1-.732.12l-.537.326-.523.078s-1.009.646-1.3.828-1.882.987-2.119,1.087-.719.346-.913.453-.62-.042-.62-.042l-.632.045s-.5-.249-.67,0a.763.763,0,0,1-.455.293l-.445-.313-.552-.141-.728-.008-.724.162-.2.423.23.3.558.168.8-.289.475.115s-.035.886-.242,1.08a5.792,5.792,0,0,1-.97.543s-.91.756-1.21.982-1.119.648-1.462.867a3.815,3.815,0,0,1-1.513.592,1.19,1.19,0,0,1-.765-.6,2.041,2.041,0,0,1,.41-1.328,6.938,6.938,0,0,1,.842-.776,4.117,4.117,0,0,1,.418-.879c.329-.407,1.349-1.33,1.349-1.33l.35.049.062-.438.443-.607a.988.988,0,0,0,.857-.058,2.142,2.142,0,0,0,.624-.941,1.079,1.079,0,0,0,.416-.477,1.579,1.579,0,0,0,.1-.745.628.628,0,0,0,.334-.4,2.773,2.773,0,0,0,.061-.751s.5-.854.773-1.246a2.944,2.944,0,0,1,.943-.791l.333.046.15.335-.125.25-.319.045a1.415,1.415,0,0,0,.026.451,2.311,2.311,0,0,0,.37.544l.4.637a1.517,1.517,0,0,0,.308.67.789.789,0,0,0,.569.08l.332-.115.284.183.086.343-.406.345-.06.355-.421-.11-.438.251.395.368.09.29-.195.141.405.275.571-.227.432-.208.256-.232a3.052,3.052,0,0,0,.363-1.228c.052-.667.073-1.932-.483-2.052-.22-.047-.353.29-.353.29l.045.376-.2.234-.733-.222-.255-.668.1-.295,0-.412.258-.177.263.037.024-.488.155-.47-.276-.262-.295.238-.2-.317h-.385l-.095-.282.705-.884.349-.576.3-.226.342.062.082-.4.163-.552a3.716,3.716,0,0,1,.436-.974,1.846,1.846,0,0,1,.675-.351l.074-.526a6.552,6.552,0,0,0,.569-.941,6.669,6.669,0,0,1,.835-1.1,2.1,2.1,0,0,0,.167-.871l.448-.62s.275-.446.446-.488c.348-.087.708.35.708.35l.17.417,1.433,1.2.424.138,1.529,1.638.005.369.226.3.44-.31.119-.746-.531-.549-.014-.4a8.2,8.2,0,0,0-1.016-1.037,3.738,3.738,0,0,1-.651-.583,1.611,1.611,0,0,0-.547-.747c-.37-.231-.815-.561-.815-.561l-.227-.313.162-.5.538-.327Z" transform="translate(-256.592 -270.317)"/><path class="b" d="M370.825,363.228a2.928,2.928,0,0,1,.964-.758c.2-.115,1.9-.77,2.232-.866a18.13,18.13,0,0,1,1.76-.826,1.8,1.8,0,0,1,1.239.085,1.3,1.3,0,0,1,.412.526l-.222.412.853.8.35-.2.2.087.339-.334-.648-.734.113-.449.258-.411s.423.041.588-.114a1.234,1.234,0,0,0,.245-.514.966.966,0,0,1,.345-.637,2.773,2.773,0,0,1,.714-.4s1.578-.98,2.084-1.194,1.857-.919,2.637-1.167,1.51-.36,1.7-.44.658-.611.995-.718a10.779,10.779,0,0,1,1.211-.223l.426-.405.154.093.672-.585.205.148a3.547,3.547,0,0,1,.823-.776,1.719,1.719,0,0,1,1.527.336c.172.131-.256.286-.341.631s.127.928.069,1.6a6.265,6.265,0,0,1-.464,1.57,3.4,3.4,0,0,1-.313.653l-.206-.047a1.858,1.858,0,0,1-.086-.653,6.085,6.085,0,0,0,.329-1.6c-.008-.574-.017-1.147-.017-1.147a.877.877,0,0,0,.145-.332.336.336,0,0,0-.389-.326.375.375,0,0,0-.26.431,1.029,1.029,0,0,1-.113.485,1.406,1.406,0,0,0-.345.687c-.054.385.108.962.062,1.3a1.725,1.725,0,0,1-.307.758c-.136.207.091.613.3.85a.932.932,0,0,0,.664.208l.19.174-.492.949.078.214-.195.2a13.486,13.486,0,0,1-.217,1.543,1.714,1.714,0,0,1-.291.46,2.29,2.29,0,0,1-.17.953c-.178.249-.819.231-.819.231a2.609,2.609,0,0,1-.433.154c-.241.061-.521-.323-.521-.323l-.333.168-.319-.188a1.067,1.067,0,0,1-.561.35,5.585,5.585,0,0,1-1.682.014,1.173,1.173,0,0,1-.46-.411l-.876.508a1.246,1.246,0,0,1-.585.1,5.672,5.672,0,0,1-.857-.264.7.7,0,0,1-.38.161c-.255.036-.7-.349-.7-.349a1.693,1.693,0,0,1-.87.593,1.763,1.763,0,0,1-1.065-.305c-.162-.118-1.149-.829-1.149-.829l-.232.164-.3-.051-.282.166-.36.208.056.177a1.918,1.918,0,0,1-.91.492c-.519.093-3.222.286-3.595.269a1.458,1.458,0,0,1-.688-.24s-.282.361-.608.308a.675.675,0,0,1-.446-.26,1.423,1.423,0,0,1-.4.075.758.758,0,0,1-.542-.368.888.888,0,0,1,.118-.841" transform="translate(-257.283 -279.529)"/><path class="b" d="M369.135,375.314c.17-.252.413-.181.621-.181s.745,0,.92.028a3.08,3.08,0,0,0,.354.026l.291.154.324-.308.427.157.174-.066.276.26a3.336,3.336,0,0,1-.4.409c-.188.152-.49.139-.606.242s-.407.271-.319.492a1.748,1.748,0,0,0,.807.62.811.811,0,0,0,.747-.014c.229-.146.62-.389.62-.389l.111-.154-.313-.322-.01-.418.126-.191s.249.005.442.032a.74.74,0,0,0,.336-.027l.2-.106.329.236s.363.039.539.064a6.078,6.078,0,0,0,1.1.214,2.573,2.573,0,0,1,.919.034,3.023,3.023,0,0,1,.488.343l.33-.228.221.126a5.245,5.245,0,0,1,1.959-.8,6.59,6.59,0,0,1,1.169.164l.339.212.234-.227.46-.138.247.178.17-.179.447,0,.349.06.256-.124.214.209.983-.041.247.153a4.23,4.23,0,0,1,.782-.1,1.039,1.039,0,0,1,.514.243l.2-.083.142.139a.956.956,0,0,1,.719-.353c.38.053.714.149.855.556.067.2-.2.441-.2.441l.126.133a1.479,1.479,0,0,1-.232.5,5.549,5.549,0,0,1-.62.6l.167.271-.084.277.01.249-.236.343-.251.683.268.254s.354-.291.491-.165.214.615-.188,1.362-.746,1.892-1.828,1.739a2.657,2.657,0,0,1-1.418-.485l-.28.09-.373-.313-.785-.348-1.01-.237a2.719,2.719,0,0,1-.628-.2,4.635,4.635,0,0,0-1.173-.35c-.379-.053-1.1-.243-1.557-.368s-.626-.207-.777-.407-.406-.713-.686-.842a1.6,1.6,0,0,0-.553-.137l-.316-.253-.131.089-.306.058-.3-.28-.159.15s.22.007-.466-.03a5.041,5.041,0,0,1-1.65-.172,5.849,5.849,0,0,1-1.012-.591s-1.009-.081-1.388-.134a11.113,11.113,0,0,1-1.2-.288,1.206,1.206,0,0,1-.78-.437,1.54,1.54,0,0,1-.1-1.266c.117-.4.281-.854.281-.854" transform="translate(-256.621 -287.1)"/><path class="b" d="M364.8,384.6a1.324,1.324,0,0,1,.924.207c.194.1.675.167.888.253s.7.277.819.319a1.215,1.215,0,0,1,.319.275l.218-.1.516.371,1.689.359.192-.163a.9.9,0,0,1,.31.159,4.347,4.347,0,0,1,.414.326l.218-.1.266.293.139-.083a2.308,2.308,0,0,0,1.076.537,2.693,2.693,0,0,0,1.038-.137l.179-.179.332,0,.24.379.243-.184.244.264.237-.145.446.369.493-.058.313.321a3.845,3.845,0,0,0,.837.224,8.8,8.8,0,0,1,1.152.162c.218.082.269.484.645.586.276.074.5-.144.854-.171a1.544,1.544,0,0,1,1.33.528,1.1,1.1,0,0,1,.365,1.217,3.441,3.441,0,0,1-.7,1.153c-.157.208-.438.519-.438.519l.017.289-.236.043s-.131.382-.238.422a4.57,4.57,0,0,1-.694.034s-.22.778-.619.832a1.518,1.518,0,0,1-.989-.292A1.649,1.649,0,0,1,377.5,393l-.768.175-.183-.153-.365.051-.544-.352a.857.857,0,0,0-.6-.447,8.1,8.1,0,0,1-1.11-.155,3.613,3.613,0,0,1-.7-.559l-.143.108-.186-.128a1.276,1.276,0,0,1-.6-.289c-.293-.25-.2-.762-.667-1.148a1.778,1.778,0,0,0-1.57-.163,3.506,3.506,0,0,1-2.085-.369c-.317-.172-.477-.484-.8-.56a11.285,11.285,0,0,1-1.465-.3,2.147,2.147,0,0,1-.659-.4l-.221.122-.175-.2-.286.036a1.072,1.072,0,0,1-.787-.511,1.328,1.328,0,0,1-.211-1.148c.17-.462.572-.576.775-.927a4.932,4.932,0,0,0,.28-.727.987.987,0,0,1,.374-.356" transform="translate(-254.702 -290.461)"/><path class="b" d="M359.583,393.122c.315.044.833.6,1.219.819s1.625.479,2.458.953,2.037,1.824,2.733,2.172a3.388,3.388,0,0,0,1.382.343l.367-.026.183.1.145-.144.191.106.291.05a1.652,1.652,0,0,1,1.052.148c.611.274,1.7.8,1.978.954s.569.356.569.356l.145-.047.512.332.148-.069.291.247.166-.094a6.258,6.258,0,0,1,.622.432c.321.255.91.8.91.8l.124-.058.1.108a.856.856,0,0,1,.653.221.509.509,0,0,1,.117.625,1.007,1.007,0,0,1-.311.345l.008.166a.7.7,0,0,1-.511.549s-.27-.046-.333.061-.387.087-.311.25.264.313.187.4a2.81,2.81,0,0,1-.277.24.806.806,0,0,0-.424-.265,4.412,4.412,0,0,0-.487,0s-.31-.269-.515-.249a1.028,1.028,0,0,0-.425.181s-.366-.125-.492.068a.306.306,0,0,0,.144.423.273.273,0,0,1,.194.238s.028.164.11.194.2-.1.2-.1.173.144.271.038a2.028,2.028,0,0,0,.174-.221l.212.018.177-.081s.063.08.352.137.392.087.392.087l.094.155a1.25,1.25,0,0,0-.341.346,5.124,5.124,0,0,1-.419.786c-.184.185-.316.329-.316.329a.345.345,0,0,1-.066.407.35.35,0,0,1-.358.1l-.185.074-.142-.106s-.195.124-.3.06a8.765,8.765,0,0,1-.657-.695l-.153.077s-.288-.263-.652-.563-.705-.536-.705-.536l-.126.1a2.581,2.581,0,0,0-.351-.427,4.243,4.243,0,0,0-.448-.372l-1.453-1.108-.135.1-.546-.459-.153.066a5.487,5.487,0,0,0-.545-.416c-.17-.1-.712-.255-.787-.411s-.1-.447-.209-.551-.326-.385-.326-.385l.039-.177s-.025-.178-.339-.45c-.3-.256-.473-.232-.473-.232a5.122,5.122,0,0,1-1.3.113,4.386,4.386,0,0,1-1.058-.6,5.194,5.194,0,0,0-1.145-.493,4.76,4.76,0,0,0-.738-.1l-.223-.227a1.884,1.884,0,0,1-.635-.219c-.269-.168-.267-.3-.267-.3a2.809,2.809,0,0,1-.962-.554,2.564,2.564,0,0,1-.533-.835l-.067-.21.107-.155-.085-.159.091-.154-.126-.148s-.021-.185.275-.449a2.681,2.681,0,0,1,.473-.356.845.845,0,0,1,.155-.53c.186-.266.411-.284.611-.532s.3-.492.471-.577a.548.548,0,0,1,.317-.032" transform="translate(-252.573 -293.471)"/><path class="b" d="M351.218,404.878c.3-.326.671-1.121,1.022-1.072s.66.39.965.552a1.275,1.275,0,0,0,.605.145l.242.183.238,0a2.608,2.608,0,0,1,.857.478c.247.2.844.774.844.774l.188.008.083.179a3.172,3.172,0,0,1,.845.56,8.353,8.353,0,0,1,.79.951,2.063,2.063,0,0,1,.96.164,6.3,6.3,0,0,1,.857.478l1.936.422a6.541,6.541,0,0,0,.778.616c.276.157.955.3,1.647.658a4.63,4.63,0,0,1,1.524,1.087,1.5,1.5,0,0,1,.425,1.248,1.6,1.6,0,0,1-.758.886,3.857,3.857,0,0,1-1.19.286,5.3,5.3,0,0,1-.993-.14l-.188.065-.677-.484-.543-.166-.108.134-.438-.148-.317.012s-.229.146-.2.33.4.354.4.354h.418l.153.142.2-.093.318.087a1.826,1.826,0,0,0,.185.534,10.958,10.958,0,0,0,.908,1.425,3.755,3.755,0,0,0,1.25.964,1.792,1.792,0,0,0,.846-.192,2.947,2.947,0,0,0,.725-.494c.146-.188.222-.565.332-.668s.536-.256.693-.488a4.186,4.186,0,0,0,.464-.75,1.134,1.134,0,0,0-.06-.352l.18-.339.235-.275s.2-.221.389-.092c.216.152.064.536.064.536a8.466,8.466,0,0,1-.375,1.167,6.668,6.668,0,0,1-.842,1.361c-.238.2-.925.488-1.1.851a4.842,4.842,0,0,0-.323,1.027c-.02.146-.191.533-.462.531a1.492,1.492,0,0,1-.844-.462,5.082,5.082,0,0,0-.874-.778,8.053,8.053,0,0,1-.9-.517c-.129-.137-.2-.832-.6-1.157s-.8-.361-1.116-.644-.389-.62-.657-.837-1.273-.269-1.758-.843-.409-1.547-1.24-2.2a2.433,2.433,0,0,0-1.462-.622l-.247-.153-.216.1-.243-.225-.288.139s-.51-.608-.849-.954a3.677,3.677,0,0,0-.669-.541l-.25.084-.376-.291-.213.03-.472-.454-.326-.016a2.561,2.561,0,0,1-.731-.52,3.124,3.124,0,0,1-.6-.829l.091-.225-.067-.367.1-.061a.422.422,0,0,1,.085-.42c.387-.336.714-.68.714-.68" transform="translate(-250.11 -297.239)"/><path class="b" d="M344.594,413c.42-.447,1.007-1.151,1.5-1.07a3.487,3.487,0,0,1,1.636,1.034c.329.361,1,.968,1.5,1.4a7.649,7.649,0,0,1,1.443,1.394c.239.421.243.809.754,1.208a5.813,5.813,0,0,0,1.128.665l.19.175.19-.122.157.159.194-.11.205.172.211-.036.135.18a1.794,1.794,0,0,1,1.195.615,5.984,5.984,0,0,1,.917,1.232l.19.316.3.018a15,15,0,0,1,1.47,1.073,4.909,4.909,0,0,1,1.054,1.191c-.016.117-.234.354-.413.269a5.807,5.807,0,0,1-.707-.57l-.19.08-.427-.352-.192.092-.264-.245-.216.059a1.735,1.735,0,0,0-.511-.608c-.351-.258-.593-.441-.593-.441l-.1.1-.272-.1-.2.27-.284-.1a1.9,1.9,0,0,0-.933.488.769.769,0,0,0-.164.96.736.736,0,0,0,.665.314,3.4,3.4,0,0,0,.579-.211l.124.221-.1.111,0,.195-.174.3.1.222-.078.15.531.569a1.26,1.26,0,0,0,.42,1.25,2.088,2.088,0,0,0,1.446.65,1.681,1.681,0,0,0,.824-.271,1.806,1.806,0,0,0,.3-.458l.141-.409.19-.206.175.025.271-.23.023-.164.207.017a.414.414,0,0,0,.283-.317c.034-.245.082-.883.082-.883s.375-.251.552-.029c.231.289.517.561.486.783a1,1,0,0,1-.531.6,1.214,1.214,0,0,0-.593.4c-.149.212-.262,1.143-.585,1.366s-.749.37-.922.543a1.405,1.405,0,0,0-.183.653s-.153.332-.418.27a3.744,3.744,0,0,1-.99-.711,15.807,15.807,0,0,1-1.6-1.365c-.432-.507-.744-1.109-1.136-1.557-.223-.255-2.141-2.172-2.422-2.545a3.268,3.268,0,0,1-.422-1.072l.078-.246a3.021,3.021,0,0,0-.491-.885,1.685,1.685,0,0,0-.512-.34l-.164.066-.262-.215-.288-.071L348.8,419l-.229-.193a1.885,1.885,0,0,1-.966-.547c-.413-.451-.975-1.037-.975-1.037a.7.7,0,0,1-.46-.073,7.883,7.883,0,0,1-1.149-.934,8.827,8.827,0,0,1-1.019-1.15.562.562,0,0,1,.045-.321l-.163-.262.115-.24a.4.4,0,0,1-.086-.322,4.375,4.375,0,0,1,.677-.918" transform="translate(-247.853 -300.101)"/><path class="b" d="M337.147,422.009a1.8,1.8,0,0,0,.385-.688s.206-.442.509-.422a1.406,1.406,0,0,1,.784.423c.156.159.89.843,1.2,1.107s1.1.886,1.621,1.367a6.885,6.885,0,0,1,1.219,1.5,3.335,3.335,0,0,0,.73,1.21,2.851,2.851,0,0,0,.842.521,2.583,2.583,0,0,1,.552.413l.166-.111.21.208.213-.037.391.4.212,0,.163.2a4.575,4.575,0,0,1,.961.681c.334.35.952,1.219,1.241,1.528s.894,1.118,1.367,1.567.881.792.881.792.471.41.526.659a.45.45,0,0,1-.1.41l-.148.132-.236.049-.244.007-.258-.066-.17-.155.117-.235-.077-.191-.223-.04-.115-.137.125-.161-.138-.232-.676-.081-.127.12-.144-.048-.3-.4-.174-.268.043-.144s-.237-.266-.454-.271a.408.408,0,0,0-.381.33c-.043.153.177.365.062.529-.184.263-.514.135-.662.012-.106-.088-.043-.651-.043-.651s-.175-.195-.393-.4a.819.819,0,0,0-.573-.252.707.707,0,0,0-.275.115l.1.3-.205.256s-.454-.41-.7-.337c-.266.079-.312.473-.312.473a1.339,1.339,0,0,0,.441.47.775.775,0,0,0,.642.091l.372.148-.058.2.226.264-.071.159.076.148-.093.319a3.692,3.692,0,0,0,.727,1.047c.368.287.584.5.793.648a4.082,4.082,0,0,1,.4.339l-.084.305.214.222-.184.321-.24.179-.207.058a.751.751,0,0,1-.547-.29,1.132,1.132,0,0,1-.223-.589s-.31-.609-.47-.836-.892-1.019-1.092-1.227a3.838,3.838,0,0,1-.793-.938,2.272,2.272,0,0,0-.46-.771,13.2,13.2,0,0,1-1.138-1.054,4.561,4.561,0,0,1-.311-.988l-.231-.249.087-.615-.28-.295.027-.2a2.217,2.217,0,0,0-.874-.5c-.585-.194-1.175-.181-1.513-.5s-1.229-1.43-1.493-1.732-1.643-1.6-1.866-1.914a1.883,1.883,0,0,1-.413-1.075,1.4,1.4,0,0,1,.308-.8,1.214,1.214,0,0,1,.306-.245l.248.119Z" transform="translate(-245.073 -303.263)"/><path class="b" d="M328.365,428.869a3.7,3.7,0,0,1,1.521-.884,3.756,3.756,0,0,1,1.825,1.218,21.751,21.751,0,0,1,2.226,2.815,15.432,15.432,0,0,1,.738,1.743l-.121.144.211.226-.084.227.179.2a.275.275,0,0,0,.126.376c.251.124.576.1.864.211A5.253,5.253,0,0,1,338,436.64a15.81,15.81,0,0,1,1.52,2.329c.188.354.461.958.461.958l.209.416.2.087.089.221.251.125.084.25.251.124.059.217s.322.462.235.659a3.407,3.407,0,0,1-.844.924,1.05,1.05,0,0,1-.947.165,1.679,1.679,0,0,1-.571-.9,10.18,10.18,0,0,1-.239-1.183l.087-.2s-.343-.447-.587-.356c-.158.058-.477.505-.477.505l-.188-.062-.051-.15-.038-.154.009-.32-.3-.352a.446.446,0,0,0-.008-.412c-.126-.167-.468-.066-.468-.066a.335.335,0,0,1-.325-.016c-.134-.109.063-.558.063-.558s.052-.261-.131-.227-.26-.484-.26-.484.251-.258.149-.426c-.076-.126-.455-.153-.455-.153l-.449.437.1.11-.532.61.372.529-.038.267-.079.253.147.11-.1.153.4.456-.1.1.123.184.236.016s.208,0,.556.5a5.735,5.735,0,0,1,.556,1.043c.141.273.238.51.383.793.133.258.3.6.126.756s-.705-.222-.946-.477-1.071-1.367-1.157-1.516a4.03,4.03,0,0,0-.326-.433l.1-.117-.707-.653a5.252,5.252,0,0,1-1.248-1.5,3.62,3.62,0,0,1-.335-1.639l-.067-.159.171-.155-.142-.139.1-.165-.222-.329.021-.146a1.4,1.4,0,0,0-.514-.37,11.871,11.871,0,0,1-1.346-.565,2.484,2.484,0,0,1-1.361-1.157c-.327-.642-.3-.846-.44-1.1s-.951-.684-1.192-1.27c-.271-.658-.44-1.111-.44-1.111s-.361-.72.013-1.153a7.218,7.218,0,0,1,.934-.894" transform="translate(-241.994 -305.761)"/><path class="b" d="M317.833,437.043c.293-.266.956-.351,1.287-.662s.477-.8.949-.712a1.027,1.027,0,0,1,.9.685,3.458,3.458,0,0,0,.631,1.142c.268.319.919.934,1.222,1.321a6.75,6.75,0,0,1,.9,1.761,5.337,5.337,0,0,0,.691,1.807,1.727,1.727,0,0,0,.778.46c.2.051.447.108.447.108l.017.219.238.034a1.936,1.936,0,0,1,.683.5,4.938,4.938,0,0,1,.665.876l-.073.178a1.687,1.687,0,0,1,.584.567c.245.392,1.541,2.509,1.737,2.9a2.379,2.379,0,0,1,.206,1.08.365.365,0,0,1-.183.252l-.778-.824-.318-.326-.126-.171.1-.165s-.037-.28-.461-.534-.962-.508-.962-.508l-.137.078-.37.029-.64-.575-.161.065-.235-.223-.859-1.091-.225.147a.545.545,0,0,0-.771.036,1.043,1.043,0,0,0-.317.8l.029.339s.095.464-.273.421c-.272-.031-.217-.388-.217-.388a.619.619,0,0,0-.194-.422,3.96,3.96,0,0,1-.376-.381l-.018-.328.118-.756s-.187-.2-.473-.491-.214-.522-.477-.782a1.176,1.176,0,0,0-.586-.35,3.781,3.781,0,0,1-1.333-.532,2.364,2.364,0,0,1-.578-.975c-.117-.286-.255-.547-.255-.547l-.261-.321-.217-.433.048-.185-.189-.265-.174-.453.04-.163-.2-.33.076-.178a.87.87,0,0,1-.362-.878,1.265,1.265,0,0,1,.453-.862" transform="translate(-238.507 -308.465)"/><path class="b" d="M307.748,444a1.627,1.627,0,0,1,.66-1.085,4.083,4.083,0,0,1,.8-.4,5.426,5.426,0,0,1,.887-.3.714.714,0,0,1,.55.077,1.046,1.046,0,0,1,.466.78,1.967,1.967,0,0,0,.326.582,6.859,6.859,0,0,1,.729,1.079,3.139,3.139,0,0,1,.043.944c-.019.138-.062.528.116.655a1.223,1.223,0,0,0,.515.149l.135-.055.223.233.059.624-.089.137.6.672-.087.095a3.739,3.739,0,0,0,.892,1.065,5.846,5.846,0,0,1,1.767,1.806c.37.8,1.216,3.158,1.216,3.158l-.1.159.258.349-.065.147a1.382,1.382,0,0,1,.424.753c.021.379.019.711.019.711s.241.171.218.337-.249.2-.249.2l-.285-.04-.414-.3-.144.087-.217-.158-.155.08s-.466-.449-.683-.479-.612.246-.612.246l-.186-.128s-.6.631-1.059.633a3.1,3.1,0,0,1-1.7-.82,3.523,3.523,0,0,1-.684-.766l.051-.1-.4-.5.124-.155a5.942,5.942,0,0,1-.752-2.145,9.057,9.057,0,0,1-.084-2.109l-.492-.475.109-.141-.273-.284a.371.371,0,0,1-.016-.369,2.826,2.826,0,0,1,.877-.9,1.388,1.388,0,0,1,.357,0,4.3,4.3,0,0,0,.7-.46.788.788,0,0,0,.016-.365.646.646,0,0,1-.424-.511c-.091-.425-.529-1.929-.529-1.929s-.311-.729-.744-.789a.724.724,0,0,0-.833.376c-.076.225-.166,1.094-.267,1.265a.945.945,0,0,1-1.087.1,2.562,2.562,0,0,1-.474-.986l.078-.193-.148-.2.154-.211Z" transform="translate(-235.099 -310.766)"/><path class="b" d="M332.565,331.579c.144-.266,1.811-.933,2.376-1.39a10.321,10.321,0,0,1,1.51-1.075c.345-.166.74-.432,1.111-.273s.453.85.594,1.37.431,2.527.431,2.527l-.063.214.319.251-.1.2.206.315-.065.205.226.175-.145.266.161.13-.1.2.141.148-.109.142.216.245a4.894,4.894,0,0,1,.571,2.3,10.8,10.8,0,0,1-.34,2.419c-.114.556-.188.832-.188.832l-.009.321.281.247.28-.018.273.153.2-.093a1.085,1.085,0,0,1,.768.894,3.945,3.945,0,0,0,.219,1.5,6.248,6.248,0,0,1,1.056,1.9,7.425,7.425,0,0,1,.153,1.451l-.195.116.186.2-.013.227a.943.943,0,0,1-.4.43,4.366,4.366,0,0,0-1.01.323,6.922,6.922,0,0,0-.741.608l-.28-.095-.249.13a.518.518,0,0,1-.466-.244.962.962,0,0,1-.132-.591l-.241-.32.125-.126-.232-.228.081-.222-.176-.275.135-.2a3.069,3.069,0,0,1-1.476-1.709,7.315,7.315,0,0,1-.126-2.413,1.214,1.214,0,0,1,.214-.506l-.271-.36.1-.2s-.621-.317-.6-.742a.665.665,0,0,1,.512-.629c.19-.08.313-.447.313-.447l.245.034a.67.67,0,0,0,.516-.866c-.148-.571-.522-.569-.522-.569l-.3.1-.126-.161.343-.4s.408.148.5-.017a1.5,1.5,0,0,0,.223-.827c-.021-.36-.192-.67-.507-.714a.357.357,0,0,0-.4.266l-.286,0-.311-.33-.32.241-.316-.295-.19.135.106.422s.045.333-.189.369c-.168.026-.458-.262-.458-.262s-.267-.251-.414-.146c-.225.161-.049.6-.049.6l.156.415s.131.341-.089.381-.326-.224-.427-.525a9.493,9.493,0,0,0-.573-1.26c-.18-.311-.612-.479-.809-1.115a12.619,12.619,0,0,1-.27-1.9c-.076-.475-.2-.958-.2-.958l.078-.24-.311-.008a.771.771,0,0,1-.261-.356c-.046-.152.138-.3.138-.3" transform="translate(-243.811 -270.804)"/><path class="b" d="M319.945,339.388a1.233,1.233,0,0,1,.648-1.083c.323-.243,1.425-.766,1.809-1.05a11.767,11.767,0,0,0,1.162-1.118c.273-.254.654-.511.929-.447.3.069.493.207.726.9s.642,2.675.872,3.285.5,1.362.56,1.495.347.955.347.955a1.559,1.559,0,0,0,.251.463,1.42,1.42,0,0,1,.332.569s-.1.188-.232.187c-.206,0-.325-.238-.325-.238l-.213-.236-.323-.245-.151-.058-.137.075-.283-.008a1.139,1.139,0,0,0-.215.315,1.853,1.853,0,0,0-.005.476l.115.185a1.037,1.037,0,0,0,.343.231,1.714,1.714,0,0,0,1.166.2.53.53,0,0,1,.542.161,1.425,1.425,0,0,1,.241.913c0,.264-.069,1.186-.069,1.186l.422.417-.133.16s.782.633,1.38,1.239a9.915,9.915,0,0,1,.866.975l-.113.121.449.528-.11.1a7.2,7.2,0,0,1,.82,1.407,6.1,6.1,0,0,1,.3,1.569,1.971,1.971,0,0,1-.5,1.081c-.258.243-.824.288-1.08.582-.195.225-.492.7-.931.694a1.129,1.129,0,0,1-.951-.642,1.628,1.628,0,0,1-.111-.483l-.2-.139.1-.192-.593-.578.107-.177a5.008,5.008,0,0,1-1.179-1.6,11.844,11.844,0,0,1-.314-2.364l-.166-.137.13-.2-1.442-1.823-.281.109-.4-.8-.6-.424a4.42,4.42,0,0,0-.619-1.269,29.264,29.264,0,0,1-1.966-2.738,11.19,11.19,0,0,1-.667-1.67l.17-.173Z" transform="translate(-239.415 -273.231)"/><path class="b" d="M308.262,347.248a1.043,1.043,0,0,1,.743-1.093,8.168,8.168,0,0,0,1.562-1.067c.548-.4,1-1.156,1.64-1.066s1.534,2.018,1.664,2.364,1.927,4.169,2.046,4.518c.468,1.374.786,2.782.942,3.16a2.232,2.232,0,0,0,.741,1.084,5.791,5.791,0,0,1,1.52,1.271,9.363,9.363,0,0,1,.788,1.771l-.038.522.327.108.069.51a1.363,1.363,0,0,1,.733.571c.293.458.481,1.245.227,1.566s-.833.33-1.155.71c-.222.263-.505.924-1.037.832-.414-.072-1.293-.593-1.368-1.015-.054-.306-.448-.629-.923-1.068a2.56,2.56,0,0,1-.609-.756l.051-.359a1.5,1.5,0,0,1-.848-.959,9.936,9.936,0,0,1-.091-2.1,1.243,1.243,0,0,0-.331-1.039,1.768,1.768,0,0,0-1.144-.339,1.9,1.9,0,0,1-1.071-.329c-.3-.252-.863-1.682-1.5-2.589a17.767,17.767,0,0,1-1.466-2.289c-.256-.5-.462-.842-.214-1.344s.859-.652,1.211-.92c.411-.311.813-.694.646-1.223-.068-.215-.3-.17-.564.007a11.3,11.3,0,0,1-1.18.955c-.42.24-.649.293-.995.084a.888.888,0,0,1-.372-.472" transform="translate(-235.293 -276.168)"/><path class="b" d="M297.329,356.59a1.655,1.655,0,0,1,.475-1.109c.279-.289,1.561-1.359,1.9-1.669s.912-.984,1.262-.925c.427.073.636.984.984,1.479a23.872,23.872,0,0,0,2.162,2.211,10.991,10.991,0,0,1,2.089,2.945c.277.783,0,1.7.61,2.439s1.516.66,2.014,1.147.5,1.5.906,2.034,1.454,1.646,1.454,1.646l-.1.379.651.64s.268.216.235.449a5.533,5.533,0,0,1-.944,1.418c-.278.288-1.153,1.208-1.6,1.026s-.807-.828-1.4-1.478a24.474,24.474,0,0,1-1.929-2.178,19.805,19.805,0,0,1-.822-1.993,2.358,2.358,0,0,0-.52-1.176,3.554,3.554,0,0,0-1.148-.518,5.02,5.02,0,0,1-1.408-.794c-.264-.245-1.468-1.636-1.748-1.974s-.7-.973-.7-.973l.118-.33-.379-.142s-.443-.354-1.083-.986a3.975,3.975,0,0,1-1.081-1.568" transform="translate(-231.445 -279.294)"/><path class="b" d="M291.259,363.419a3.754,3.754,0,0,1,1.611,1.254c.291.37,1.516,1.813,1.933,2.3.495.582,1.972,2.023,2.23,2.416a9.62,9.62,0,0,1,.446,1.917,2.9,2.9,0,0,0,.553,1.15,1.5,1.5,0,0,0,.736.327,2.926,2.926,0,0,1,.6.174,5.666,5.666,0,0,1,.888.839c.254.259.8.808.8.808l.041.182.182.137-.1.4.387-.017s.283.3.515.56a4.792,4.792,0,0,1,.652.923,4.946,4.946,0,0,1,.287.661l-.244.118.258.2a1.971,1.971,0,0,1-.473.887c-.4.443-1.328,1.407-1.526,1.357a3.688,3.688,0,0,1-.933-.868c-.348-.384-2.063-2.011-2.063-2.011l.164-.276s-.83-.389-.947-.834-.291-1.252-.291-1.252l-.2-.185a1.291,1.291,0,0,0-.312-.8c-.289-.242-1.078-.062-1.385-.217a18.963,18.963,0,0,1-1.777-1.325c-.255-.214-1.162-1.077-1.162-1.077l-.137-.613-.642-.2s-1.152-1.021-1.78-1.643-1.236-1.2-1.078-1.761a4.558,4.558,0,0,1,1.2-1.755,7.507,7.507,0,0,0,1.127-1.381.534.534,0,0,1,.432-.386" transform="translate(-228.324 -283.007)"/><path class="b" d="M281.354,379.171a2.469,2.469,0,0,1,.651-1.241,4.813,4.813,0,0,0,.47-.589l-.155-.29s.171-.035.466-.44.391-1.2.61-1.4a.817.817,0,0,1,.73-.285,1.735,1.735,0,0,1,.583.3l.017.387s1.1.787,1.723,1.314a21.278,21.278,0,0,1,2.8,3.329,2.237,2.237,0,0,1,.383,1.3l.346.44-.216.327a1.411,1.411,0,0,0,.619.445c.48.216,1.259.245,1.669.443a7.926,7.926,0,0,1,2.13,1.41,9.912,9.912,0,0,1,2.059,2.485c.043.333-.661,1.1-.661,1.1l.113.254s-.461,1.161-.984,1.062a12.081,12.081,0,0,1-3.257-2.045c-.57-.612-1.541-2.392-2.3-2.915s-1.789-.413-2.167-.7a10.9,10.9,0,0,1-.874-.774l.008-.267-.348-.278s-.49.059-.634-.063-1.425-1.4-1.425-1.4l-.221.028a3.876,3.876,0,0,1-.735-.318c-.2-.142-.642-.5-.882-.714-.6-.545-.514-.915-.514-.915" transform="translate(-225.813 -287.056)"/><path class="b" d="M277.3,387.477a7.438,7.438,0,0,1,2.62,1.715c1.205,1.132,3.287,3.5,3.287,3.5l.008.308a2.291,2.291,0,0,0,.861.81,9.329,9.329,0,0,1,4.831,2.849c.771.7,1.144,1.1,1.144,1.1l-.12.341.422.122s.414.456.24.789a10.553,10.553,0,0,1-.731,1.193,3.553,3.553,0,0,1-.594.612l-.245.122s.179.346.056.514c-.213.292-.69.181-1.1-.026a26.671,26.671,0,0,1-2.589-1.564,8.25,8.25,0,0,1-1.445-1.531c-.613-.725-.649-.98-1.462-1.227a11.89,11.89,0,0,1-2.067-.554,2.423,2.423,0,0,1-.71-.756l-.377-.035a1.4,1.4,0,0,1-.826-.491,1.607,1.607,0,0,1-.381-.922l-.307.1-.48-.316a.429.429,0,0,1-.537-.177,1.74,1.74,0,0,1-.073-.934l-.315-.219s-.382.508-.728.306-1.036-.563-.963-1.084a11.843,11.843,0,0,1,.716-2.551,4.591,4.591,0,0,1,1.03-1.72,1.433,1.433,0,0,1,.835-.285" transform="translate(-223.475 -291.485)"/><path class="b" d="M269.891,403.031a3.119,3.119,0,0,1,.429-1.778c.616-1.109,1.312-.714,1.683-.53a21.237,21.237,0,0,1,2.134,1.347,5.291,5.291,0,0,1,.672.525l.794.624.22-.243a16.169,16.169,0,0,1,1.245,1.141,14.142,14.142,0,0,1,1.144,1.668,2.307,2.307,0,0,0,1.175.905c.465.142,1.242.133,1.667.311a9.862,9.862,0,0,1,1.7.942c.736.486,1.83,1.164,2.066,1.3s.727.577.624,1.018a5.157,5.157,0,0,1-.936,1.926,1.8,1.8,0,0,1-1.744.112,3.985,3.985,0,0,1-1.234-1.092,1.411,1.411,0,0,1-.13-.861l.155-.259a1.722,1.722,0,0,1-.453-.557c-.091-.26-.085-.906-.4-1.01s-.621.3-1.142.346a4.846,4.846,0,0,1-1.633-.31,5.083,5.083,0,0,1-1.782-.282c-.729-.329-1.368-.08-2.241-.769s-1.873-2.022-2.62-2.615a3.86,3.86,0,0,1-1.4-1.857" transform="translate(-221.769 -296.076)"/><path class="b" d="M329.38,398.55a1.194,1.194,0,0,1,1.261-.35c.534.2,1.153,1.059,1.816,1.111a1.729,1.729,0,0,0,1.412-.718,1.358,1.358,0,0,1,1.73-.139,1.209,1.209,0,0,1,.072,1.849c-.308.4-1.23.815-1.179,1.484.071.927.587.964.815,1.359.288.5.58,1.069-.03,1.6a1.38,1.38,0,0,1-1.509.2c-.426-.239-.687-1.013-1.339-1.05a2.2,2.2,0,0,0-1.319.484c-.257.194-1.357.971-1.966.4a1.281,1.281,0,0,1-.126-1.7c.323-.56,1.066-.9,1.112-1.4s-.482-1.144-.788-1.623a1.339,1.339,0,0,1,.038-1.493" transform="translate(-242.518 -295.241)"/><path class="b" d="M318.334,403.508a1.172,1.172,0,0,1-1.236.1c-.534-.2-1-1.05-1.664-1.041s-1.08.533-1.423.746a1.752,1.752,0,0,1-1.888.082,1.235,1.235,0,0,1,0-1.761c.308-.405,1.263-.852,1.316-1.307.1-.844-.644-1.1-1.008-1.51a1.255,1.255,0,0,1,.2-1.7c.148-.128.324.414.5.359.07-.021.17-.067.239-.084a1.133,1.133,0,0,1,.365-.012,1.506,1.506,0,0,1,.554.213,2.689,2.689,0,0,0,1.241.365,2.141,2.141,0,0,0,1.326-.635,1.556,1.556,0,0,1,2-.216c.775.71.28,1.471-.13,1.95-.387.451-1.048.554-1.081,1.3s.666,1.259.973,1.737a1.087,1.087,0,0,1-.293,1.412" transform="translate(-236.529 -294.778)"/><path class="b" d="M314.444,414.9a1.4,1.4,0,0,1,1.464-.247c.534.2.909.846,1.57.922a1.769,1.769,0,0,0,1.37-.627,1.53,1.53,0,0,1,1.894.007c.7.7.368,1.291-.07,1.868-.111.146-.148.166-.276.335-.039.052-.66-.2-.762-.108-.062.056.354.709.311.777a1.276,1.276,0,0,0-.124.592c.087.839.44.937.638,1.348a1.058,1.058,0,0,1-.282,1.435,1.2,1.2,0,0,1-1.416,0c-.426-.238-.745-.781-1.363-.894-.583-.107-1.045.361-1.3.554s-1.3.709-1.905.139a1.259,1.259,0,0,1-.058-1.752c.378-.464.948-.727,1.042-1.225.14-.74-.4-1.012-.743-1.465a1.3,1.3,0,0,1,.015-1.662" transform="translate(-237.25 -301.027)"/><path class="b" d="M303.318,424.533a1.234,1.234,0,0,0-1.392-.252c-.517.239-.99.965-1.654,1s-.861-.337-1.326-.3c-.354.028.3,2.145-1.691.222-.247-.24-.568.969-.09,1.514.335.383,1.046.751,1.031,1.209-.028.842-.79.633-1.256,1.061a1.238,1.238,0,0,0,.159,1.863,2.054,2.054,0,0,0,2.015.034,5.28,5.28,0,0,1,1.3-.637c.525-.085,1,.51,1.272.685a1.7,1.7,0,0,0,1.906-.115,1.372,1.372,0,0,0,.142-1.742c-.278-.458-.976-.6-1.037-1.368-.055-.684.506-1.146.819-1.62a1.258,1.258,0,0,0-.2-1.558" transform="translate(-231.185 -304.415)"/><path class="b" d="M348.244,382.045a1.422,1.422,0,0,1,.4,1.333c-.2.534-1.632.7-1.633,1.835,0,.665.751,1.089.948,1.364a1.218,1.218,0,0,1,.022,1.684c-.593.524-1.011.457-1.688.037-.433-.269-.578-.942-1.191-1.028-.835-.117-1.035.441-1.4.7a1.2,1.2,0,0,1-1.649-.025,1.269,1.269,0,0,1-.142-1.449c.239-.426,1.127-.653,1.175-1.182s-.6-1.188-.8-1.445-.729-1.274-.158-1.883a1.26,1.26,0,0,1,1.622-.338c.086.044.044.912.125.972.161.121.564-.539.734-.464a2.819,2.819,0,0,0,.779.288c.5.045.835-.229,1.313-.534a1.349,1.349,0,0,1,1.538.139" transform="translate(-247.098 -289.373)"/><path class="b" d="M324.826,387.374a1.049,1.049,0,0,0,1.1.423c.552-.146,1.169-1.012,1.829-.934s1.1.773,1.328,1.024c.352.392,1.25.7,1.692.175.537-.64-.174-.769-.55-1.388a1.9,1.9,0,0,1-.421-1.509c.172-.826.85-1.168,1.131-1.527a1.065,1.065,0,0,0,.007-1.533,1.157,1.157,0,0,0-1.337-.345c-.449.192-.878.921-1.41.914s-.916-.488-1.151-.708a1.32,1.32,0,0,0-1.678-.146,1.227,1.227,0,0,0-.269,1.592c.194.5.661.845.653,1.351s-.616.79-.97,1.234a1.037,1.037,0,0,0,.045,1.377" transform="translate(-241.032 -289.403)"/><path class="b" d="M350.265,365.187a1.235,1.235,0,0,1,1.475-.135c.729.564.2,1.245.468,1.409.439.27.706-.158,1.247-.121.826.056,1.071-.775,1.309-1.016a1.25,1.25,0,0,1,1.73-.14,1.124,1.124,0,0,1-.065,1.881c-.25.124-.718.114-1.123.254a1.089,1.089,0,0,0-.713,1.524c.262.683,1.471.493,1.669.9s.521,1.2-.089,1.724a1.379,1.379,0,0,1-1.508.2c-.426-.239-.96-.927-1.49-.977a1.5,1.5,0,0,0-1.119.314c-.257.194-1.407,1.069-2.015.5a1.121,1.121,0,0,1-.112-1.686,2.318,2.318,0,0,0,.98-1.588c.045-.5-.441-.949-.772-1.41a1.188,1.188,0,0,1,.13-1.631" transform="translate(-249.865 -283.517)"/><rect class="b" width="6.783" height="6.784" transform="translate(18.171 116.599) rotate(-60.598)"/><rect class="b" width="6.783" height="6.783" transform="translate(163.652 114.014) rotate(-29.7)"/><path class="b" d="M471.819,421.807" transform="translate(-292.938 -303.583)"/><path class="c" d="M471.819,421.807" transform="translate(-292.938 -303.583)"/><path class="b" d="M438.931,412.714" transform="translate(-281.347 -300.379)"/><path class="c" d="M438.931,412.714" transform="translate(-281.347 -300.379)"/><path class="b" d="M240.706,426.357,222.14,437.793l7.26,11.787,2.831-1.743-5.047-8.195,5.2-3.2,4.711,7.65,2.8-1.727-4.711-7.65,4.927-3.035,4.9,7.949,2.8-1.727Z" transform="translate(-204.947 -305.188)"/><path class="b" d="M254.96,447.514l-.878,13.636-14.565,1.769,3.8,3.613c4.622-.546,8.139-1,10.506-1.3-.139,1.677-.368,5.166-.751,10.58l3.8,3.614,1.011-14.657,13.459-1.673-3.753-3.569c-3.652.453-6.605.822-9.556,1.281.33-3.966.412-5.212.752-9.653Z" transform="translate(-211.071 -312.643)"/><path class="b" d="M294.49,483.053c-.767,1.758-2.087,2.542-4.929,1.3l-2.579-1.125,2.532-5.8L292,478.514c2.784,1.215,3.3,2.662,2.485,4.538m-.386-7.111-7.179-3.133L278.2,492.794l3.868,1.688,3.619-8.293,3.165,1.381c4.542,1.982,7.992.872,9.578-2.762,1.611-3.693-.021-6.986-4.329-8.866" transform="translate(-224.705 -321.558)"/><path class="b" d="M316.032,483.366,312.5,504.883l13.913,2.285L327,503.6l-9.717-1.6,2.948-17.952Z" transform="translate(-236.791 -325.278)"/><path class="b" d="M352.366,503.44a7.226,7.226,0,0,1-8.621-5.978c-.716-4.159,1.546-7.792,6.241-8.6a7.25,7.25,0,0,1,8.684,5.967c.819,4.758-2.081,7.885-6.3,8.612m10.558-9.344c-1.052-6.113-6.525-10.2-13.614-8.979-7.909,1.361-10.756,7.627-9.817,13.077,1.009,5.861,6.241,10.248,13.488,9,7.563-1.3,10.953-7.239,9.944-13.1" transform="translate(-246.243 -325.819)"/><path class="b" d="M388.48,483.8,386.6,484.82l-3.026-5.56,2.246-1.223c2.05-1.116,3.655-.642,4.587,1.071,1.238,2.275.012,3.634-1.926,4.688m10.549,1.794c-2.935-1.715-3.9-2.025-5.466-2.085a5.521,5.521,0,0,0,.591-6.473c-1.666-3.061-5.145-4.371-9.3-2.11l-6.515,3.546,10.422,19.153,3.707-2.017-4.386-8.06,1.067-.581c1.489-.809,2.9-.887,6.235,1.157l5.116,3.113,4.184-2.277Z" transform="translate(-259.994 -321.9)"/><path class="b" d="M405.418,460.438l15.608,15.227,9.667-9.909-2.38-2.322-6.721,6.888-4.371-4.264,6.274-6.431-2.357-2.3-6.274,6.431-4.142-4.042,6.519-6.682-2.357-2.3Z" transform="translate(-269.537 -313.778)"/><path class="b" d="M436.066,437.95l-1.011,1.889-5.581-2.989,1.207-2.255c1.1-2.057,2.7-2.542,4.422-1.622,2.283,1.223,2,3.031.962,4.976m9.8-4.289c-3.4.177-4.375.45-5.714,1.256a5.521,5.521,0,0,0-3.059-5.735c-3.072-1.646-6.7-.831-8.933,3.34l-3.5,6.539,19.224,10.293,1.992-3.721-8.09-4.331.573-1.071c.8-1.494,1.94-2.335,5.848-2.454l5.985-.2,2.248-4.2Z" transform="translate(-276.319 -305.903)"/><path class="b" d="M209.775,376.333c-.128,6.713,4.344,12.043,10.993,12.169,5.626.107,11.233-3.848,11.382-11.68a16.727,16.727,0,0,0-1.764-8.156l-4.091-.078a13.584,13.584,0,0,1,2.252,7.686c-.1,5.082-3.669,7.957-7.665,7.88-3.964-.075-7.584-3.086-7.486-8.232a14.225,14.225,0,0,1,2.379-7.374l-4.124-.078a20.063,20.063,0,0,0-1.876,7.863" transform="translate(-200.589 -284.787)"/><path class="b" d="M237.013,337.108a7.226,7.226,0,0,1-9.711,3.966c-3.877-1.668-5.69-5.545-3.807-9.922a7.251,7.251,0,0,1,9.737-4.025c4.435,1.908,5.475,6.045,3.781,9.98m-2.076-13.945c-5.7-2.451-12.107-.092-14.95,6.516-3.171,7.371.528,13.175,5.609,15.36,5.462,2.351,11.993.357,14.9-6.4,3.032-7.049-.1-13.128-5.558-15.478" transform="translate(-203.774 -268.487)"/><path class="b" d="M239.644,294.733l8.614,8.927c4.373,4.533,9.3,4.485,13.974-.021,4.694-4.529,4.714-9.48.408-13.944l-8.57-8.881-3.037,2.93,8.525,8.835c3,3.106,2.858,5.817.143,8.437-2.784,2.686-5.543,2.682-8.517-.4l-8.5-8.812Z" transform="translate(-211.116 -253.896)"/><path class="b" d="M278.75,265.781l8.371,20.134,3.808-1.583-5.867-14.112,18.266,8.957,3.425-1.424-8.371-20.134-3.808,1.583,5.9,14.2-18.392-9.009Z" transform="translate(-224.897 -245.722)"/><path class="b" d="M320.839,254.461l.186,3.576,7.631-.4.95,18.2,4.215-.22-.951-18.2,7.7-.4-.187-3.576Z" transform="translate(-239.73 -244.249)"/><path class="b" d="M367.732,263.316c-.58,2.524-2.4,2.73-4.548,2.236l-2.088-.479,1.416-6.17,2.493.572c2.274.522,3.163,1.939,2.727,3.841m4.183.927c.78-3.4-.96-6.682-5.572-7.741l-7.23-1.659L354.237,276.1l4.113.944L360.4,268.1l1.184.272c1.652.379,2.763,1.257,3.906,5l1.771,5.72,4.486,1.565-1.85-6.766c-1.063-3.23-1.585-4.1-2.715-5.183a5.522,5.522,0,0,0,4.73-4.459" transform="translate(-251.5 -244.743)"/><path class="b" d="M390.8,262.431l2.1,13.432-5.243,9.668,3.738,2.027,5.258-9.7,12.331-5.57-4.188-2.271-8.437,3.754-1.4-9.088Z" transform="translate(-263.278 -247.417)"/><path class="b" d="M423.677,287.858c-3.072-2.894-6.714-2.9-8.928-.548-2.193,2.327-1.842,4.985-.89,8.078,1.417,4.278,1.127,5.192.229,6.146-.943,1-2.526,1-3.9-.291a8.627,8.627,0,0,1-2.428-6.329l-3.026,3.212a12.287,12.287,0,0,0,3.386,5.824c2.979,2.807,6.737,2.921,9.126.384,2.258-2.4,2.053-4.743.607-9.224-1.071-3.293-.76-4.229.008-5.044.9-.954,2.279-.927,3.652.366a8.423,8.423,0,0,1,2.425,5.492l2.785-2.956a10.7,10.7,0,0,0-3.048-5.111" transform="translate(-269.296 -255.586)"/><rect class="b" width="21.805" height="4.22" transform="matrix(0.825, -0.565, 0.565, 0.825, 147.025, 56.915)"/><path class="b" d="M447.749,348.089c-4.593,1.586-8.1-.146-9.77-4.981l-1.409-4.08,14.325-4.946,1.3,3.777c1.785,5.168-.1,8.727-4.45,10.23m7.73-10.821-2.849-8.25-20.611,7.117,2.891,8.371c2.41,6.981,7.932,9.844,14.339,7.631,5.863-2.024,8.735-7.616,6.23-14.869" transform="translate(-278.911 -270.884)"/><path class="b" d="M464.187,377.32l-21.8-.138-.087,13.843,3.325.021.061-9.624,6.106.039-.056,8.984,3.293.021.056-8.984,5.787.037-.06,9.336,3.293.021Z" transform="translate(-282.533 -287.857)"/></g></svg>