<?xml version="1.0" encoding="utf-8"?>
<!-- Generator: Adobe Illustrator 25.4.1, SVG Export Plug-In . SVG Version: 6.00 Build 0)  -->
<svg version="1.1" id="Layer_1" xmlns="http://www.w3.org/2000/svg" xmlns:xlink="http://www.w3.org/1999/xlink" x="0px" y="0px"
	 viewBox="0 0 1980 1080" style="enable-background:new 0 0 1980 1080;" xml:space="preserve">
<style type="text/css">
	.st0{fill:#CCE8F5;}
	.st1{opacity:0.518;fill:#3FA536;enable-background:new    ;}
	.st2{fill:#3FA536;}
	.st3{fill:none;}
</style>
<g transform="translate(86.781)">
	<rect x="-95.9" class="st0" width="1994.6" height="1080"/>
	<g transform="translate(213.219 -12257.237)">
		<path class="st1" d="M-301.5,12529.3c0,0,549.6-94.6,1032.7-30.6c483.1,64,444,72.1,600.6,68.4c156.6-3.7,352.7,0,352.7,0v789.9
			H-301.5V12529.3z"/>
		<path class="st2" d="M-301.5,13174.3c0,0,549.6-94.6,1032.7-30.6c483.1,64,444,72.1,600.6,68.4c156.6-3.7,352.7,0,352.7,0v135.2
			H-301.5V13174.3z"/>
		<ellipse class="st2" cx="-77" cy="13119" rx="312.1" ry="310"/>
		<ellipse class="st2" cx="282.9" cy="13147.5" rx="184.7" ry="183.5"/>
		<ellipse class="st2" cx="-100.2" cy="12809" rx="126.8" ry="126"/>
	</g>
</g>
<rect x="4.8" class="st3" width="1972.8" height="1090.2"/>
<rect class="st3" width="1980" height="1080"/>
</svg>
