<svg xmlns="http://www.w3.org/2000/svg" xmlns:xlink="http://www.w3.org/1999/xlink" width="1923.329" height="695.391" viewBox="0 0 1923.329 695.391"><defs><style>.a{fill:#fff;}.b,.i,.o,.p,.q,.s{fill:none;}.c{opacity:0.843;clip-path:url(#a);}.d{clip-path:url(#b);}.e{fill:#d4edce;}.f{fill:#e5ca7f;}.g{fill:#b2dbae;}.h{fill:#8ac883;}.i{stroke:#005731;stroke-dasharray:1 7;}.i,.s{stroke-linecap:round;stroke-linejoin:round;}.i,.o{stroke-width:4px;}.j{font-size:31px;}.j,.k,.l,.m,.n,.r{font-family:GillSans, Gill Sans;}.k{font-size:20px;}.l{font-size:26px;}.m{font-size:19px;}.n{font-size:23px;}.o{stroke:#009fe3;}.o,.p,.q{stroke-miterlimit:10;}.p,.q{stroke:#666;}.p{stroke-width:5px;}.q{stroke-width:3px;}.r{font-size:16px;}.s{stroke:#3fa535;stroke-width:2px;}</style><clipPath id="a"><path class="a" d="M2008.108,517.648c.99-.148-.706,321.7,0,322.531C1849.239,1057.637,1477.853,1210,1045,1210c-423.619,0-796.049-155.743-959.9-365.23.324-.522,1.593-328.457,0-330.16C87.156,516.145,2010.781,519.773,2008.108,517.648Z" transform="translate(-85 -651)"/></clipPath><clipPath id="b"><rect class="b" width="1401.221" height="1941.203"/></clipPath></defs><g class="c" transform="translate(-0.098 136.391)"><g transform="translate(2079.47 -1037.094) rotate(90)"><g class="d" transform="translate(235.26 138.267)"><rect class="e" width="1573.913" height="2165.812" transform="translate(-40.394 -99.911)"/><g transform="translate(-11.395 -44.932)"><path class="f" d="M489.26,827.35c-20.631,0-34.946,52.306-38.819,78.641-4.523,30.771-14.741,61.346-19.094,92.407-3.983,28.394-13.946,49.493-19.8,76.9a32.183,32.183,0,0,1-15.314,3.34c-6.68,0-13.8-1.3-20.95-2.608s-14.341-2.608-21.162-2.608a44,44,0,0,0-6.276.421c-2.981,17.869-15.744,56.114-6.766,70.507-12.238,18.35,69.216,19.263,92.511,19.263,1.289,0,2.4,0,3.3,0s1.613-.007,2.086-.007c.314,0,.526,0,.633,0,63.211,1.944,127.034,4.1,190.637,4.1,52.158,0,104.171-1.451,155.57-5.66,43.122-3.528,38.217-18.756,47.683-54.083,6.578-24.549,15.116-44.847,30.885-64.61,7.163-8.971,25.125-22.556,12.866-33.8-1.749-1.6-6.64-2.2-12.54-2.2-11.358,0-26.446,2.232-30.014,3.854-30.552,13.9-31.056,65.735-55.748,85.967a27.287,27.287,0,0,1-17.778,6.231c-17.2,0-36.307-13.513-48.173-26.184-23.9-25.525-50.088-47.176-75.663-72.87-44.933-45.14-93.8-89-120.679-147.158-9.963-21.552-19.185-29.852-27.4-29.852" transform="translate(-82.275 856.939)"/><path class="f" d="M849.643,535.79c-7.011,0-13.52,12.414-20.21,15.219a25.889,25.889,0,0,1-10.2,1.615c-.933,0-1.865-.017-2.8-.036s-1.858-.033-2.779-.033c-5.424,0-10.606.609-14.826,5.417-7.611,8.676,3.219,19.977-10.717,25.889a17.737,17.737,0,0,0-6.4-1.254c-9.645,0-16.679,8.826-19.346,17.243-8.6,5.555-10.956,64.924,11.436,64.924,4.337,0,9.6-2.227,15.93-7.5,14.536-12.119,31.113-27.745,36.916-44.543,3.423-9.906,3.135-22.016,8.172-30.578,5.286-8.99,21.209-13.694,25.044-20.94,3.79-7.158,3.3-23.774-9.492-25.377a6.274,6.274,0,0,0-.728-.043" transform="translate(494.539 454.866)"/><path class="f" d="M972.716,374.151c-15.952,18.525-32.041,38.322-54.735,49.12-24.121,11.481-50.659,17.274-74.052,31.855-22.8,14.212-46.715,32.086-61.769,54.728-13.573,20.415-16.894,48.494-26.831,72.382-11.1,26.676,3.592,45.028,20.122,66.658-9.752,17.067-38.531,15.778-51.93,30.05,3.711,3.687,9.309,5.124,15.942,5.124,21.152,0,52.841-14.614,67.5-17.524,23.874-4.739,40.844-16.494,64.393-19.8a71.81,71.81,0,0,1,10.009-.683c24.768,0,48.8,11.755,73.7,15.649,6.219.973,10.7,1.9,14.372,1.9,5.522,0,9.209-2.091,14.215-9.252,13.366-19.12,7.9-66.989,8.4-88.817.4-17.253-1.751-186.119-19.337-191.394" transform="translate(449.465 231.959)"/><path class="f" d="M645.477,119.38c-25.044,0-51.7,7.382-60.7,30.863C577.3,169.754,572.8,190.4,567.242,210.076a33.31,33.31,0,0,0-14.541-3.937,16.067,16.067,0,0,0-13.258,6.247c5.748,13.461,21.882,8.217,27.842,17.122,4.592,6.863-.714,26.077-3.652,31.812,5.967,7.77,16.287,10.411,25.441,11.27,36.7,3.447,84.944,24.728,121.131,37.62,24.728,8.807,54.965,22.389,82.745,22.389q3.1,0,6.15-.233c2.89-16.791-26.731-42.3-34.5-57.637-14.636-28.92-29.469-57.532-40.327-88.239-8.7-24.611-13.413-51.323-38.688-60.685-9.7-3.592-24.6-6.426-40.111-6.426" transform="translate(195.614 -119.38)"/><path class="f" d="M238.037,177.688a38.592,38.592,0,0,0-4.182,6.276l4.182-6.276m4.4-6.6-4.4,6.6a29.55,29.55,0,0,1,2.793-2.938c.545-1.316,1.085-2.541,1.611-3.666M278.6,164.97c-15.231,2.229-27.98.833-37.774,9.78-10,24.107-22.025,77.787,13.239,77.787.757,0,1.542-.026,2.343-.076,7.242-.454,34.108-11.964,37.46-18.219,8.331-15.552-13.687-52.448-15.269-69.273" transform="translate(-230.471 -56.51)"/></g><g transform="translate(-64.406 121.216)"><path class="g" d="M271.454,189.218c-65.393.017-57.009,234.571-58.75,255.24C204.082,546.835,210,649,212.563,751.549c.952,38.029,2.717,77.109,12.495,114.073,6.14,23.219,20.831,43.444,26.617,66.259,8.025,31.651,12.093,54,28.648,83.614,14.308,25.589,34.92,51.811,43.779,79.8,14.01,44.257-43.629,17.66-70.051,34.586-43.525,27.892-22.706,94.36-26.943,135.039-7.565,72.625-11.417,135.265,4.159,207.124,7.927,36.566,16.946,73.774,26.367,110,6.416,24.678,11.4,38.783,35.2,46.829,16.422,5.553,32.26.894,46.608,11.729-.476,18.994-24.5,40.52-35.131,56.652-9.133,13.855-13.4,31.8-25.908,43.132-13.27,12.033-30.083,3.369-20.7,31.889,5.693,17.291,14.464,17.9,29.821,23.667,27.14,10.2,53.329,7.316,84.2,8.607,12.411.519,24.709.7,36.944.7,13.9,0,27.728-.233,41.533-.466,13.822-.233,27.628-.466,41.486-.466q1.763,0,3.523.007c23.269.069,49.246,3.433,73.61,3.433,12.58,0,24.735-.9,35.857-3.609.378-40.272-35.179-88.85-54.618-124.811-17.6-32.55-26.945-68.747-46.337-96.944-3.352-4.875-26.374-30.2-5.289-30.2a42.5,42.5,0,0,1,6.975.676c11.576,1.963,16.867,24.583,20.7,33.659,29.193,69.149,66.152,149.863,102.839,212.72-1.834-12.109,11.552-56.538,20.624-65.959,11.46,18.835,19.254,42.024,34.406,58.658,29.591,32.491,68.2,61.641,102.5,88.5,32.895,25.767,88.079,59.526,113.033,82.51a1.529,1.529,0,0,0,1.066.443c2.379,0,5.3-5.56,4.865-8.4-2.293-14.885-16.632-30.537-30.544-43.712-32.034-30.342-74.795-56.124-102.087-88.771-4.606-5.512-23.672-25.3-24.055-31.223-.835-12.892,10.839-12.383,15.5-19.794,6.849-10.889,6.837-17.69,15.987-27.347,5.917-6.245,18.223-14.12,19.967-14.12.159,0,.231.067.2.2a82.771,82.771,0,0,0,21.269,3.074c56.654,0,54.649-77.718,40.023-119.754-6.673-19.177-20.636-37.52-26.707-55.72-4.825-14.46-9.568-19.658,2.02-34.444,15.354-19.591,46.051-35.892,65.124-52.95,13.917-12.449,24.114-21.483,42.568-21.483q2.719,0,5.691.269c21.621,1.956,39.9,18.987,51.789,37.192,15.25,23.348,14.272,50.3-9.956,67.241-19.04,13.32-59.838,11.491-58.334,44.055,17.336,6.562,8.312,121.188,27.109,147.91,13.489,19.172,36.8,31.246,52.453,48.908,16.437,18.54,25.425,39.747,33.8,63.054,9.3,25.872,17.936,60.14,43.282,60.14,6.623,0,14.388-2.339,23.6-7.779,35.433-20.921,66.28-56.036,100.184-79.541,18.48-12.809,52.456-55.815,71.866-57.256,7.47,53.015-31.993,87.887-72.849,103.2,14.912-2.886,26.312-11.805,40.753-18.823,22.919-11.139,47.983-11.512,72.14-19.965,22.565-7.893,96.751-32.381,108.846-62.178,30.057-74.057-27.328-161.856-63.316-221.194-37.8-62.317-61.4-119.156-82.455-189.417-11.039-36.828-30.026-80.107-50.459-111.786-17.407-26.988-57.849-59.614-57.749-95.461.059-21.007,4.442-18.8,19.96-29.836,26.105-18.561,39.754-24.071,43.094-56.345,3.338-32.291,6.231-64.174,7.953-96.139,1.525-28.287-9.814-65.514,14.56-80.131,23.664-14.191,54.283-1.646,67.244-33.87-5.688-4.468-13.256-5.241-21.173-5.241-2.105,0-4.235.055-6.359.109s-4.244.109-6.333.109c-11.522,0-22.042-1.67-26.724-14.215a18.766,18.766,0,0,1-2.079.121c-15.128,0-13.953-20.714-11.205-33.268,4.175-19.054,5.871-18.963,22.537-25.448,18.042-7.021,69.171-.2,41.26-34.344-5.664-6.93-16.924-1.577-24.644-15.131-4.939-8.669-6.3-26.21-7.4-36.678-3.9-37.008,5.11-76.177,11.286-111.953,4.941-28.613,14.41-54.792,30.24-78.52,16.946-25.394,42.97-50.41,51.452-81.028,5.986-21.614-1.634-26.091-14.814-26.091-8.172,0-18.48,1.72-29.005,2.148-5.391.219-10.729.314-16.035.314-22.848,0-45.016-1.763-67.5-2.967-12.433-.664-27.98-3.376-42.442-3.376-12.947,0-25.023,2.174-33.2,9.937-19.054,18.085-10.865,48.166-41.034,59.733-16.937,29.857-37.941,41.65-59.918,41.65-57.157,0-120.846-79.8-136.312-129.158-29.212-.354-67.3-43.853-78.094-70.039-7.316-17.738.759-31-1.861-48.889-15.79-1.285-26.845-6.535-40-6.535a51.762,51.762,0,0,0-19.936,4.144c-21.4,8.7-36.9,30.326-53.688,44.419-13.489,11.322-9.43,43.417-22.939,43.417-3.88,0-9.214-2.653-16.829-9.209-14.931,11.586-26.434,37.1-44.636,39.568-4.834-8.534-10.192-16.473-14.234-25.644-4.561,2.886-15.388,4.4-20.1,7.216-9.514-18.433-34.791-44.226-32.438-64.655,1.941-16.863,23.552-38.521,34.1-52.41-7.661-11.593-19.677-25.12-31.43-34-22.237,10.225-35.735,43.184-53.683,60.589-18.928,18.357-38.148,19.962-60.333,29.826a63.759,63.759,0,0,1-26.2,5.683c-65.678,0-125.073-101.633-185.946-111.753a29.143,29.143,0,0,0-4.818-.409" transform="translate(-208.188 -189.218)"/></g><path class="g" d="M298.982,1029.927c-16.955-15.24-8.917-46.013.374-68.314,28.782,4.922,46.268-1.772,53.757-29.945,5.807-21.847,13.275-41.847,29.526-58.7,29.617,19.489-4.166,83.214-10.475,108.617-4.259,17.143-12.233,113.371-34.173,108.063-10.17-18.725-9.419-45.316-13.729-66.009C319.056,1030.3,310.561,1035.469,298.982,1029.927Z" transform="translate(-161.034 874.923)"/><g transform="translate(89.109 209.533)"><path class="h" d="M441.178,226.341c-16.955,10.832-39.8,16.192-62.2,16.192-20.924,0-41.464-4.677-56.45-13.941,3.685,13.032,33.642,43.417,44.878,57.877-.469-.014-.942-.021-1.423-.021-18.511,0-46.724,9.835-45.706,31.9,3.178.088,6.623.554,9.806.8,6.1,23.959-20.95,47.707-36.069,63.9-21.994,23.555-25.872,38.019-16.565,70.943,7.772,27.506,22.5,55.3,37.779,79.624,6.531,10.389,15.894,20.405,21.214,31.092,10.213,20.524-1.675,13.789-.454,31.38,1.151,16.637,10.808,20.574,23.567,20.574a159.481,159.481,0,0,0,18.609-1.594,163.2,163.2,0,0,1,19.42-1.594,43.727,43.727,0,0,1,15.1,2.275c6.219,2.3,27.675,6.863,39.119,13.915a378.779,378.779,0,0,1,32.479,23.21h.057c3,0,7.054-2.622,11.8-5.246s10.189-5.244,15.956-5.244a18.008,18.008,0,0,1,3.54.345c3.785,9.109,12.145,13.327,21.457,13.327a33.968,33.968,0,0,0,7.775-.933c1.323-26.179-7.427-62.909,28.47-62.9.209,0,.424,0,.638,0,3.554,17.188,2.936,38.709,8.945,55.41,8.262,22.953,18.878,25.87,14.793,52.382-6,38.95-20.55,58.275,9.212,92.747,16.4,19,71.626,50.029,41.238,80.274-9.026,8.983-22.437,10.111-36.628,10.111-2.377,0-4.777-.033-7.18-.064s-4.813-.064-7.211-.064c-17.9,0-35.112,1.768-44.564,18.48-19.137,33.839,41.576,100.048,48.373,133.229,8.3,40.491-8.814,118.569-22.508,156.484-9.211,25.5-18.911,47.414-22.434,74.219-4.235,32.241,5.931,51.523-11.334,81.613-10.266,17.9-14.262,15.628-7.365,37.708,4.611,14.752,18.245,24.021-2.917,34.491,14.191,29.776,42.763,47.735,60.665,74.828,8.957,13.553,14.348,24.637,11.189,39.178-3.131,14.4-29.2,33.485,2.66,42.435,3.473,6.062,14.674,7.932,28.508,7.932,11.184,0,24.093-1.223,36.028-2.446s22.913-2.448,30.223-2.448c1.042,0,2.01.026,2.9.078,10.339,16.527,45.052,51.037,7.023,54.018-.062,0-.121.007-.186.007-3.759,0-9.883-8.6-14.269-9.469a14.093,14.093,0,0,0-2.774-.274,23.822,23.822,0,0,0-7.875,1.715,23.772,23.772,0,0,1-7.825,1.713,13.861,13.861,0,0,1-2.94-.314c-12.133-2.615-21.3-14.505-32.983-18.392a32.652,32.652,0,0,0-10.244-1.865c-25.922,0-23.4,43.705-24.992,70.513-1.634,27.473,21.854,61.634,49.865,72.237a35.528,35.528,0,0,0,12.649,2.5c26.222,0,39.5-34.767,64.182-48.214a24.565,24.565,0,0,1,11.952-2.976c37.746,0,91.043,75.259,117.984,90.482a5.613,5.613,0,0,0,2.129.24c10.682,0,55.736-7.242,63.159-13.178,21.05-16.836,6.143-51.849-.918-74.716-19.168-62.053-40.315-123.924-59.4-186.7a477.6,477.6,0,0,1-18.231-94.241c18.752.35,38.871,20.8,54.107,31.753,10.273,7.38,23.165,13.294,33.4,20.555,4.677,3.317,11.2,5.384,15.383,9.347,4.1,3.887.611,13.449,3.052,15.373,7.551,5.957,16.451,7.354,25.874,7.354,4.159,0,8.42-.271,12.709-.542s8.614-.545,12.9-.545a61.7,61.7,0,0,1,14.8,1.561c28.736,7.1,32.793,14.993,41.115,39.8,4.963,14.8,7.251,16.447,6.754,33.124-.362,12.085-8.643,24.958,7.494,30.956,3.4,23.024-19.092,29.931,7.194,41.864,5.833,2.648,10.891,3.9,15.14,3.9,12.021,0,17.55-10.071,15.714-27.2,9.8-1.784,18.932-2.969,26.055-8.417,18.956-14.5,13.394-79.212,48.963-85.205a23.924,23.924,0,0,1,3.926-.369c10.028,0,6.471,9.162,15.93,11.45a33.511,33.511,0,0,0,7.718.756c3.226,0,6.583-.271,9.649-.54s5.848-.54,7.925-.54c.088,0,.174,0,.257,0q.807.007,1.663.007c.925,0,1.891,0,2.89-.012s2.036-.012,3.1-.012c14.912,0,34.439,1.23,32.824,21.026a92.231,92.231,0,0,1-15.569,1.22c-6.666,0-13.23-.55-19.736-1.1s-12.956-1.1-19.4-1.1a80.768,80.768,0,0,0-16.358,1.516c-26.864,5.51-29.548,25.439-34.687,52.958-3.935,21.076,9.954,36.1-3.1,54.9-13.629,19.622-38.126,21.923-51.78,43.891-13.066,21.023-20.108,51.09-21.942,70.862-.312,3.378-7.8,1.128-2.838,2.841,46.558-5.517,52.643-74.076,101.223-74.076.649,0,1.308.012,1.972.038-.276,29.043-49.075,58.182-68.388,76.577-14.124,13.451-50.238,35.331-52.71,55.158,12.007,7.87,25.782,23.224,37.308,29.1,7.851,4,12.162,5.726,15.359,5.726,5.508,0,7.713-5.113,18.987-12.5,20.162-13.223,47.871-30.873,71.959-30.873,10.4,0,20.127,3.292,28.28,11.652,16.587,17.013,25.644,61.753,50.911,71.069a23.294,23.294,0,0,0,8.07,1.277c28.458,0,81.518-36.516,105.417-43.313,59.8-17.013,12.752-43.4,13.268-84.722.378-.55,3.25-4.518,5.959-7.551,36.171,26.243,30.771,112.647,76.548,112.647a40.331,40.331,0,0,0,5-.323c24.916-3.138,50.041-22.056,68.216-39.2,24.449-23.062,18.438-43.386,16.639-78.925-1.875-37.025-.906-74.749-2.653-111.265-.761-15.935.79-27.69-5.234-41.179-3.954-8.853-14.757-16.446-18.04-28.365-15.785-57.273-30.668-113.343-80.664-155.209-8.693-7.28-15.873-10.33-21.925-10.33-17.888,0-25.927,26.648-33.961,49.6-9.257,26.45-14.362,44.79-35.153,44.79-5.914,0-13.1-1.484-22.013-4.691-9.457,18.138,11.79,24.361,6.973,41.369-2.6,9.195-6.354,12.63-10.418,12.63-7.746,0-16.627-12.485-20.874-21.349-10.691-22.316-14.848-80.6-49.394-81.313-4.068-18.892-18.052-48.727-13.786-68.022,27.53-12.145,47.6-16.382,45.08-50.383,11.331-7.5,25.068-8.988,34.011-19.025,7.86-8.824,14.172-27.633,9.276-41.1-5.657-15.554-17.419-15.847-27.428-27.183a17.627,17.627,0,0,1,6.188-1.109,31.366,31.366,0,0,1,6.954.978,29.812,29.812,0,0,0,6.443.978c2.979,0,6.019-.947,9.43-4.163-12.435-9.623-24.28-17.108-13.915-33.949a16.227,16.227,0,0,0-7.13-1.613,31.9,31.9,0,0,0-10.135,2.134c-3.167,1.068-6.1,2.134-8.772,2.134a8.071,8.071,0,0,1-2.586-.4c-15.49-5.208-8.358-10.625-17.983-21.48-13.575-15.311-34.368-24.488-32.148-47.2,2.355-.195,4.8-.283,7.32-.283,11.053,0,23.581,1.689,36.371,3.38s25.844,3.378,37.953,3.378c14.139,0,26.988-2.305,36.621-9.6,16.334-12.376,56.043-74.959,50.585-92.273a19.135,19.135,0,0,1-2.826.221c-26.674,0-.526-66.411-33.185-78.235-7.439-2.7-16.955-3.9-27.433-3.9-31.708,0-72.142,11.1-89.894,25.767a26.02,26.02,0,0,0-7.2-.887c-30.939,0-99.13,37-125.366,48.521-79.015,34.7-163.633,52.215-250.021,61.013-36.892,3.759-79.8,13.844-118.1,13.844a180.606,180.606,0,0,1-18.659-.909c-.086-32.265,10.209-65.757,10.209-100.367-29.365-24.045-40.76-48.537-52.37-86.847-6.29-20.752-17.181-45.2-16.587-66.944.752-27.387,3.707-16.656,26.519-21.235,73.541-14.757,56.419-157.828,81.554-215.379,23.578-53.992,97.241-96.208,154.461-105.472,25.891-4.192,57.53-35.464,78.52-58.27,24.314-26.417,11.791-70.227,19.594-103.486-13.67-4.927-54.342-13.886-78.14-13.886a58.743,58.743,0,0,0-9.35.635c-18.033,2.99-30.062,41.564-40.491,41.564-1.794,0-3.538-1.14-5.258-3.8-5.172-7.986,2.8-29.619,3.3-40.427.859-18.545-2.99-24.516-8.981-37.425-11.255-24.247-19.981-43.969-42.727-50.084-22.47-6.038-64.263-1.672-80.88-26.517-20.507-6.39-40.613-12.309-59.685-12.309-16.584,0-32.386,4.48-46.974,17.022-28.218,24.264-42.854,56.816-78.963,64.232C622.187,337.849,590,338.479,569.075,347.27c-19.922,8.367-38.4,34.084-52.972,37.774-18.028-.216-37.3-6.642-56.341-15.25-19.018-8.6-34.027-11.488-55.034-13.917-29.46-3.409-42.754-.374-29.469-33.247,7.982-19.753,70.129-88.562,65.918-96.289" transform="translate(-272.716 -226.341)"/></g><path class="f" d="M602.9,872.315c-10.294,3.761-27.468,7.922-31.77,16.856v2.146c11.41,14.227,4.054,51.43,22.9,51.43,5.353,0,12.821-3,23.434-10.384,11.888-8.272,24.794-18.644,24.977-34.13.152-12.509-5.108-15.53-13.3-15.53-4.779,0-10.56,1.028-16.851,1.8-1.832-5.46-6.233-7.447-9.388-12.186" transform="translate(227.918 874.015)"/><path class="i" d="M712.944,1317.608c-30.918,11.246-64.615-28.021-84.311-48.49-13.844-14.391-48.828-86.423-63.009-88.738-19.263-35.621-76.462.557-104.947-10.085-21.411-8-8-32.469-4.142-52.372,5.191-26.75,15.147-57.3,16.256-84.865,1.018-25.291-7.767-48.223-18.169-70.529-18.773-40.258-34.986-71.445-40.429-116.142-4.6-37.767-9.918-64.769-30.2-95.861-9.968,6.285-18.649,16.737-31.984,15.84-.79-14.719,8.619-30.368,12.245-44.1,4.539-17.191,5.448-30.587,3.707-48.537-3.081-31.727-8.788-60.049-.569-92.768,7.049-28.056,18.647-51.107,34.265-75.128,16.858-25.931,28.606-42.09,22.7-72.144-3.661-18.621-12.262-55.132-28.253-64.579,29.8-21.461,47.5-50.31,84.758-60.544,36.751-10.094,75.975-16.627,110.892-28.311,23.69-7.925,42.868-8.576,66.7-8.015,33.961.8,54.13-13.494,88.346-3.585,11.188,3.238,28.974,14.036,38.79,8.629,12.916-7.12,8.3-30.583,24.773-17.15C829.7,275.9,826.741,335.065,824.388,357.7c-3.169,30.528-9.107,58.815-29.714,83.043-26.683,31.377-54.5,64.394-65.583,105.953,5.9,15.511-31.917,74.859-38.345,93.786a363.308,363.308,0,0,0-18.155,85.374c-1.806,21.78,2.893,53.652-5.957,73.213-10.644,23.519-39.1,14.039-59.466,15.861-31.123,2.781-48.206,15.868-29.433,48.606,14.005,24.425,29.4,64.9,44.621,93.843,8.926,16.977,30.706,72.842,54.256,45.209,25.867,18.916-31.087,86.733-15.2,113.28,5.624,9.4,31.265,15.535,41.386,22.627,15.193,10.644,25.846,19.658,24.273,39.861-1.18,15.178-15.447,39.385-22.2,54.378-10.213,22.679-6.447,32.583,1.57,55.1,7.049,19.8,7.822,35.108,22.649,52.984,12.131,14.624,26.015,25.779,40.36,38.343,15.442,13.525,34.56,23.393,48.435,37.334,17.079,17.162,32.757-23.712,38.288-39.428,7.884-22.4,20.736-33.587,44.564-41.288,25.489-8.236,49.515-9.024,75.456-21.706,30.254-14.791,57.092-33.792,87.905-46.863,14.091-5.976,28.915-14.909,43.553-18.024,11.89-2.531,28.182,1.187,36.859-8.764-6.183-7.468-13.739-16.047-19.58-22.092,3.994-21.8,31.767-26.267,33.963-52.032,1.182-13.874,1.982-29.455,2.508-42.432.457-11.31-8.469-27.3-4.477-36.318" transform="translate(-74.318 24.169)"/><path class="i" d="M382.4,523.109c26.234-14.127,62.9,32.436,80.78,48.378,26.129,23.291,64.791,43.042,96.049,60.375,19.365,10.737,33.944,13.889,53.231,12.333" transform="translate(-32.355 388.816)"/><path class="i" d="M567.32,801.139c17.524-36.437,52.162-36.623,83.828-50.2,17.226-7.389,31.334-21.526,44.053-33.8,20.405-19.684,40.322-32.252,67.42-42.632,20.072-7.687,44.2-15.257,65.033-14.631" transform="translate(222.663 581.001)"/><text class="j" transform="translate(1225.697 774.735)"><tspan x="0" y="0">Rugely</tspan></text><text class="k" transform="translate(1340.079 399.015) rotate(19.879)"><tspan x="0" y="0">A51</tspan></text><text class="k" transform="matrix(0.699, 0.715, -0.715, 0.699, 1043.539, 195.119)"><tspan x="0" y="0">A51</tspan></text><text class="l" transform="translate(835.485 43.325)"><tspan x="-26.958" y="0">Little</tspan><tspan x="-50.261" y="31">Haywood</tspan></text><text class="m" transform="translate(820.488 977.217) rotate(-12.213)"><tspan x="-79.762" y="0">Kingsley Wood Road</tspan></text><text class="m" transform="matrix(0.994, -0.11, 0.11, 0.994, 750.297, 1104.522)"><tspan x="-81.608" y="0">Penkridge Bank Road</tspan></text><text class="m" transform="translate(811.52 1242.989) rotate(-34.132)"><tspan x="-73.76" y="0">Birches Valley Road</tspan></text><text class="m" transform="matrix(0.93, 0.367, -0.367, 0.93, 824.185, 1484.209)"><tspan x="-54.365" y="0">Marquis Drive</tspan></text><text class="n" transform="translate(134.771 758.527) rotate(70.457)"><tspan x="-55.99" y="0">Chase Road</tspan></text><text class="n" transform="translate(191.837 1359.428) rotate(70.457)"><tspan x="-54.923" y="0">Camp Road</tspan></text><path class="o" d="M482.8,133.547c18.114,15.561,45.589,39.233,49.672,64.55,5.631,34.948-22.522,15.583-40.054,24.257-52.1,25.767,75.558,114.584,99.089,125.275,25.337,11.51,61.914,24.15,90.092,21.737,24.147-2.065,40.715-18.509,61.791-26.8,13.334-5.241,19.917-4.244,19.173-21.944-.6-14.239-11.434-21.735,11.26-23.172,19.725-1.249,65.831,25.841,79.241,40.415,22.439,24.38,9.538,63.692,38.169,77.852,27.552,13.625,45.133,38.9,75.91,43.789,20.062,3.188,32.452-8.008,46.142-18.818,15.521-12.259,34.341-23.591,55.077-23.538,25.189.064,46.5,5.17,67.131,20.279,12.978,9.5,23.239,24.059,38.833,29.512,25.675,8.981,62.992,7.639,90.315,9.162,13.553.754,30.54-2.836,43.2,1.82" transform="translate(102.291 -144.775)"/><path class="p" d="M233.179,207.749c82.607,13.3,166.887,159.391,258.28,90.67,37.023-27.84,42.689-82.348,79.205-107.961,38-26.655,81.649-1.137,117.922,18.978,81.682,45.295,173.12,66.1,259.5,101.043,27.2,11,63.711,6.768,92.714,12.518,29.854,5.921,52.71,23.717,81.3,34.127,30.1,10.963,61.836,13.9,91.022,27.5,27.5,12.821,50.126,22.924,80.892,24.388,28.137,1.339,53.136-2.367,77.571,10.484,39.832,20.947,83.945,36.026,127.469,50.833,57.363,19.518,128.22,42.88,176.525,79.151" transform="translate(-238.131 -82.101)"/><path class="p" d="M837.774,487.136C822.9,393.081,716.331,349.766,665.862,275.383c-30.278-44.624-50.086-100.671-60.8-153.039" transform="translate(274.712 -160.224)"/><path class="q" d="M506.364,129.394c97.736,75.941,210.426,153.117,331.248,180.3" transform="translate(138.602 -150.502)"/><path class="q" d="M555.713,1343.456c13.682-30.345,37-57.266,69.651-79.667,52.044-35.7,100.243-72.739,149.96-111.225,40.969-31.713,85.81-61.3,125.737-94.807,36.145-30.333,50.524-70.812,67.605-114.222,13.077-33.24,25.962-68.611,44.145-99.567,15.645-26.633,46.46-70.653,77.511-79.148-2.117,1.406.581-5.719.214-2.515,42.663-14.479,96.489-56.921,125.575-91.829" transform="translate(206.656 595.672)"/><path class="q" d="M225.248,1351.579c26.208-19.018,48.918-56.057,69.651-88.053,29.807-46,73.139-82.2,125.306-99.56,64.539-21.473,122.049-56.859,176.042-98.54,49.458-38.181,114.227-80.093,150.065-131.033,31.689-45.045,48.82-112.367,82.729-150.969,50.29-8.343,111.684-24.58,168.186-27.721,34.819-1.934,69.53-9.649,104-15.778,34.794-6.188,58.969-18.978,91.027-31.618,59.8-23.579,121.067-47.445,181.706-68.49,55.5-19.261,115.017-21.549,169.528-37.151,24.583-7.037,35.89-24.683,52.82-43.1,24.126-26.248,54.033-45.042,86.009-59.169" transform="translate(-249.068 361.126)"/><path class="q" d="M650.89,869.489c2.3-9.416-7.109-28.808-8.407-41.041-2.455-23.108,2-49.551,4.135-72.428,2.686-28.753-7.059-89.661,16.753-108.294,21.942-17.167,59.388-14.869,83.485-28.244,20.16-11.191,25.394-31.991,40.265-47.7,18-19.013,46.755-25.225,68.6-38.671,22.946-14.12,41.414-32.419,61.415-49.957,49.993-43.836,136.317-53.436,174.017-110.54" transform="translate(325.324 184.912)"/><path class="q" d="M539.851,595.231c10.606,5.772,38.174-5.2,51.363-8.386,23.462-5.667,46.61-12.847,69.715-18.918,40.972-10.765,85.941-17.838,124.212-31.4" transform="translate(184.782 410.952)"/><path class="q" d="M759.3,432.541C754.1,451.649,745.2,469.968,738.6,489.4c-8.676,25.546-15.549,33.918,6.923,47.938,36.071,22.5,75.527,40.667,118.536,38.809,32.229-1.392,81.406,3.671,111.189-7.337" transform="translate(447.525 267.55)"/><path class="q" d="M749.717,469.553c-.635,37.26-35.816,67.91-33.568,105.9,1,16.86,3.835,34.539,4.218,52.389.219,10.282,3.207,44.4,6.288,40.881" transform="translate(427.761 318.591)"/><path class="q" d="M227.891,503.041c23.671,39.7,52.643,77.883,77,117.763,14.56,23.843,18.352,51.987,26.25,79.312,9.873,34.161,20.914,67.717,30.7,101.678,34.579,120.061,71.683,243.007,128.587,355.317,35.757,70.572,73.141,143.218,104.359,213.885" transform="translate(-245.423 364.772)"/><path class="q" d="M313.848,784.6c62.212-1.256,92.4-72.185,84.375-125.792-10.727-71.673-42.549-146.356-76.5-207.452C307.529,425.821,308.981,426.306,280.3,424c-19.149-1.539-45.78-9.626-52.413-29.35" transform="translate(-245.423 215.294)"/><path class="q" d="M444.677,682.814c32.141,13.092,64.365,34.377,94.343,54.461,29.367,19.675,55.584,40,69,74.495,14.334,36.842,21.2,83.84,31.625,124.821,19.734,77.6,36.823,156.243,54.563,234.859,10.439,46.251,27.813,73.693,73.327,79.517" transform="translate(53.533 612.686)"/><path class="q" d="M360.078,1485.782c13.13-31.579,16.82-77.754,26.229-114.258,10.068-39.054,20.845-71.4,32.472-110.066,14.869-49.437,22.111-108.318,44.55-155.149,21.535-44.945,68.735-75.22,107.92-104.818,24.176-18.262,46.679-35.724,67.615-56.662,10.951-10.951,25.192-29.117,35.69-35.586,2.845-16.28,27.875-22.406,39.856-33.016,11.936-10.568,22.953-24.026,33.839-34.329,25.353-24,53.714-46.591,84.039-64.453,68.776-40.508,134.518-73.365,204.947-108.025,25.137-12.371,47.573-24.942,62.052-48.823,9.031-14.9,12.335-41.048,17.964-50.288" transform="translate(-63.132 457.537)"/><path class="q" d="M382.109,866.112c24.093,48.257,75.91,77.166,117.41,108.5,27.457,20.734,57.639,36.949,83.909,59.274,34.351,29.191,70.555,37.674,111.061,56.55" transform="translate(-32.75 865.461)"/><text class="r" transform="translate(1327.131 1326.262) rotate(-28.867)"><tspan x="-17.336" y="0">A460</tspan></text><text class="r" transform="translate(819.962 1901.929) rotate(-42.22)"><tspan x="-17.336" y="0">A460</tspan></text><g transform="translate(876.294 1407.136)"><line class="s" y2="42.667" transform="translate(14.774 0.554)"/><path class="s" d="M603.6,744.515c7.042-.179,13.865-8.388,14.99-14.776.573,7.173,8.926,14.162,15.823,13.986" transform="translate(-603.6 -729.739)"/><path class="s" d="M603.6,750.161c7.042-.178,13.865-8.389,14.99-14.776.573,7.173,8.926,14.163,15.823,13.986" transform="translate(-603.6 -721.953)"/></g><g transform="translate(948.132 1433.477)"><line class="s" y2="42.667" transform="translate(14.776 0.554)"/><path class="s" d="M633.8,755.587c7.044-.176,13.867-8.388,14.993-14.776.573,7.175,8.924,14.162,15.823,13.986" transform="translate(-633.796 -740.811)"/><path class="s" d="M633.8,761.233c7.044-.176,13.867-8.389,14.993-14.776.573,7.175,8.924,14.162,15.823,13.987" transform="translate(-633.796 -733.025)"/></g><g transform="translate(976.868 1376.007)"><line class="s" y2="42.667" transform="translate(14.775 0.553)"/><path class="s" d="M645.875,731.43c7.044-.179,13.865-8.388,14.99-14.776.573,7.173,8.926,14.162,15.825,13.984" transform="translate(-645.875 -716.654)"/><path class="s" d="M645.875,737.076c7.044-.178,13.865-8.388,14.99-14.776.573,7.173,8.926,14.162,15.825,13.984" transform="translate(-645.875 -708.868)"/></g><g transform="translate(1120.548 1268.246)"><line class="s" y2="42.667" transform="translate(14.774 0.555)"/><path class="s" d="M706.269,686.134c7.042-.176,13.865-8.388,14.99-14.776.573,7.175,8.926,14.163,15.823,13.987" transform="translate(-706.269 -671.358)"/><path class="s" d="M706.269,691.78c7.042-.176,13.865-8.388,14.99-14.776.573,7.175,8.926,14.162,15.823,13.986" transform="translate(-706.269 -663.572)"/></g><g transform="translate(1067.864 1289.797)"><line class="s" y2="42.667" transform="translate(14.776 0.555)"/><path class="s" d="M684.124,695.193c7.044-.176,13.867-8.388,14.993-14.776.573,7.175,8.926,14.162,15.823,13.987" transform="translate(-684.124 -680.417)"/><path class="s" d="M684.124,700.839c7.044-.176,13.867-8.389,14.993-14.776.573,7.175,8.926,14.162,15.823,13.986" transform="translate(-684.124 -672.631)"/></g><g transform="translate(1098.996 1330.508)"><line class="s" y2="42.667" transform="translate(14.774 0.554)"/><path class="s" d="M697.21,712.305c7.042-.179,13.865-8.388,14.99-14.776.573,7.175,8.926,14.162,15.823,13.986" transform="translate(-697.21 -697.529)"/><path class="s" d="M697.21,717.951c7.042-.178,13.865-8.388,14.99-14.776.573,7.175,8.926,14.162,15.823,13.986" transform="translate(-697.21 -689.743)"/></g><g transform="translate(696.694 1153.302)"><line class="s" y2="42.667" transform="translate(14.776 0.555)"/><path class="s" d="M528.107,637.819c7.044-.176,13.867-8.388,14.993-14.776.573,7.175,8.926,14.165,15.823,13.986" transform="translate(-528.107 -623.043)"/><path class="s" d="M528.107,643.465c7.044-.176,13.867-8.389,14.993-14.776.573,7.175,8.926,14.165,15.823,13.986" transform="translate(-528.107 -615.257)"/></g><g transform="translate(502.728 748.609)"><line class="s" y2="42.667" transform="translate(14.775 0.553)"/><path class="s" d="M446.576,467.711c7.044-.178,13.865-8.389,14.99-14.776.573,7.173,8.926,14.162,15.825,13.986" transform="translate(-446.576 -452.935)"/><path class="s" d="M446.576,473.357c7.044-.178,13.865-8.389,14.99-14.776.573,7.173,8.926,14.163,15.825,13.986" transform="translate(-446.576 -445.149)"/></g><g transform="translate(543.438 676.769)"><line class="s" y2="42.667" transform="translate(14.774 0.554)"/><path class="s" d="M463.688,437.514c7.042-.178,13.865-8.389,14.99-14.776.573,7.175,8.926,14.162,15.823,13.986" transform="translate(-463.688 -422.738)"/><path class="s" d="M463.688,443.16c7.042-.178,13.865-8.389,14.99-14.776.573,7.175,8.926,14.162,15.823,13.986" transform="translate(-463.688 -414.952)"/></g><g transform="translate(509.913 609.718)"><line class="s" y2="42.667" transform="translate(14.775 0.555)"/><path class="s" d="M449.6,409.33c7.042-.176,13.865-8.389,14.99-14.776.573,7.175,8.926,14.162,15.823,13.986" transform="translate(-449.596 -394.554)"/><path class="s" d="M449.6,414.976c7.042-.176,13.865-8.389,14.99-14.776.573,7.175,8.926,14.162,15.823,13.986" transform="translate(-449.596 -386.768)"/></g><g transform="translate(572.172 571.404)"><line class="s" y2="42.667" transform="translate(14.776 0.555)"/><path class="s" d="M475.766,393.225c7.044-.176,13.868-8.389,14.993-14.776.573,7.175,8.926,14.162,15.823,13.986" transform="translate(-475.766 -378.449)"/><path class="s" d="M475.766,398.871c7.044-.176,13.868-8.388,14.993-14.776.573,7.175,8.926,14.162,15.823,13.986" transform="translate(-475.766 -370.663)"/></g><g transform="translate(615.276 494.775)"><line class="s" y2="42.667" transform="translate(14.776 0.555)"/><path class="s" d="M493.884,361.015c7.044-.176,13.867-8.388,14.993-14.776.573,7.175,8.926,14.162,15.823,13.986" transform="translate(-493.884 -346.239)"/><path class="s" d="M493.884,366.661c7.044-.176,13.867-8.389,14.993-14.776.573,7.175,8.926,14.162,15.823,13.986" transform="translate(-493.884 -338.453)"/></g><g transform="translate(754.167 461.249)"><line class="s" y2="42.667" transform="translate(14.775 0.555)"/><path class="s" d="M552.265,346.923c7.044-.176,13.865-8.388,14.99-14.776.573,7.175,8.926,14.165,15.826,13.986" transform="translate(-552.265 -332.147)"/><path class="s" d="M552.265,352.569c7.044-.176,13.865-8.389,14.99-14.776.573,7.175,8.926,14.165,15.826,13.986" transform="translate(-552.265 -324.361)"/></g><g transform="translate(869.11 537.878)"><line class="s" y2="42.667" transform="translate(14.775 0.555)"/><path class="s" d="M600.58,379.133c7.042-.176,13.865-8.388,14.99-14.776.573,7.175,8.926,14.165,15.823,13.986" transform="translate(-600.58 -364.357)"/><path class="s" d="M600.58,384.779c7.042-.176,13.865-8.389,14.99-14.776.573,7.175,8.926,14.165,15.823,13.986" transform="translate(-600.58 -356.571)"/></g><g transform="translate(940.95 487.592)"><line class="s" y2="42.667" transform="translate(14.774 0.553)"/><path class="s" d="M630.777,358c7.042-.178,13.865-8.389,14.99-14.776.573,7.173,8.926,14.163,15.823,13.986" transform="translate(-630.777 -343.22)"/><path class="s" d="M630.777,363.642c7.042-.178,13.865-8.388,14.99-14.776.573,7.173,8.926,14.162,15.823,13.986" transform="translate(-630.777 -335.434)"/></g><g transform="translate(933.765 394.201)"><line class="s" y2="42.667" transform="translate(14.775 0.554)"/><path class="s" d="M627.757,318.74c7.044-.178,13.865-8.389,14.99-14.776.573,7.173,8.926,14.162,15.826,13.986" transform="translate(-627.757 -303.964)"/><path class="s" d="M627.757,324.386c7.044-.178,13.865-8.388,14.99-14.776.573,7.173,8.926,14.162,15.826,13.986" transform="translate(-627.757 -296.178)"/></g><g transform="translate(996.027 410.964)"><line class="s" y2="42.667" transform="translate(14.774 0.553)"/><path class="s" d="M653.928,325.786c7.042-.178,13.865-8.389,14.99-14.776.573,7.173,8.926,14.163,15.823,13.986" transform="translate(-653.928 -311.01)"/><path class="s" d="M653.928,331.432c7.042-.178,13.865-8.388,14.99-14.776.573,7.173,8.926,14.162,15.823,13.986" transform="translate(-653.928 -303.224)"/></g><g transform="translate(964.895 636.059)"><line class="s" y2="42.667" transform="translate(14.776 0.555)"/><path class="s" d="M640.842,420.4c7.044-.176,13.867-8.388,14.993-14.776.573,7.175,8.924,14.165,15.823,13.986" transform="translate(-640.842 -405.626)"/><path class="s" d="M640.842,426.048c7.044-.176,13.867-8.389,14.993-14.776.573,7.175,8.924,14.165,15.823,13.986" transform="translate(-640.842 -397.84)"/></g><g transform="translate(938.554 758.187)"><line class="s" y2="42.667" transform="translate(14.775 0.554)"/><path class="s" d="M629.77,471.737c7.044-.178,13.865-8.388,14.99-14.776.573,7.175,8.926,14.162,15.825,13.986" transform="translate(-629.77 -456.961)"/><path class="s" d="M629.77,477.383c7.044-.176,13.865-8.389,14.99-14.776.573,7.175,8.926,14.162,15.825,13.986" transform="translate(-629.77 -449.175)"/></g><g transform="translate(888.266 700.716)"><line class="s" y2="42.667" transform="translate(14.776 0.553)"/><path class="s" d="M608.632,447.58c7.044-.178,13.867-8.389,14.993-14.776.573,7.173,8.924,14.162,15.823,13.984" transform="translate(-608.632 -432.804)"/><path class="s" d="M608.632,453.226c7.044-.178,13.867-8.388,14.993-14.776.573,7.173,8.924,14.163,15.823,13.984" transform="translate(-608.632 -425.018)"/></g><g transform="translate(730.219 602.536)"><line class="s" y2="42.667" transform="translate(14.776 0.553)"/><path class="s" d="M542.2,406.311c7.044-.178,13.868-8.389,14.993-14.776.573,7.173,8.926,14.162,15.823,13.984" transform="translate(-542.199 -391.535)"/><path class="s" d="M542.2,411.957c7.044-.178,13.868-8.389,14.993-14.776.573,7.173,8.926,14.162,15.823,13.984" transform="translate(-542.199 -383.749)"/></g><g transform="translate(806.848 614.507)"><line class="s" y2="42.667" transform="translate(14.776 0.555)"/><path class="s" d="M574.409,411.343c7.044-.176,13.867-8.389,14.993-14.776.573,7.175,8.924,14.162,15.823,13.986" transform="translate(-574.409 -396.567)"/><path class="s" d="M574.409,416.989c7.044-.176,13.867-8.389,14.993-14.776.573,7.175,8.924,14.162,15.823,13.986" transform="translate(-574.409 -388.781)"/></g><g transform="translate(670.353 695.925)"><line class="s" y2="42.667" transform="translate(14.776 0.555)"/><path class="s" d="M517.035,445.566c7.044-.176,13.868-8.388,14.993-14.776.573,7.175,8.924,14.165,15.823,13.986" transform="translate(-517.035 -430.79)"/><path class="s" d="M517.035,451.212c7.044-.176,13.868-8.388,14.993-14.776.573,7.175,8.924,14.165,15.823,13.986" transform="translate(-517.035 -423.004)"/></g><g transform="translate(749.378 746.213)"><line class="s" y2="42.667" transform="translate(14.775 0.554)"/><path class="s" d="M550.252,466.7c7.042-.176,13.865-8.389,14.99-14.776.573,7.175,8.926,14.162,15.823,13.986" transform="translate(-550.252 -451.928)"/><path class="s" d="M550.252,472.35c7.042-.176,13.865-8.388,14.99-14.776.573,7.175,8.926,14.162,15.823,13.986" transform="translate(-550.252 -444.142)"/></g><g transform="translate(603.304 865.945)"><line class="s" y2="42.667" transform="translate(14.774 0.554)"/><path class="s" d="M488.852,517.032c7.042-.176,13.865-8.389,14.99-14.776.573,7.175,8.926,14.162,15.823,13.986" transform="translate(-488.852 -502.256)"/><path class="s" d="M488.852,522.678c7.042-.176,13.865-8.388,14.99-14.776.573,7.175,8.926,14.163,15.823,13.987" transform="translate(-488.852 -494.47)"/></g><g transform="translate(634.434 949.759)"><line class="s" y2="42.667" transform="translate(14.775 0.553)"/><path class="s" d="M501.937,552.262c7.044-.178,13.865-8.388,14.99-14.776.573,7.173,8.926,14.162,15.825,13.986" transform="translate(-501.937 -537.486)"/><path class="s" d="M501.937,557.908c7.044-.178,13.865-8.389,14.99-14.776.573,7.173,8.926,14.162,15.825,13.986" transform="translate(-501.937 -529.7)"/></g><g transform="translate(672.749 873.13)"><line class="s" y2="42.667" transform="translate(14.775 0.554)"/><path class="s" d="M518.042,520.052c7.044-.179,13.865-8.389,14.99-14.776.573,7.175,8.926,14.162,15.823,13.986" transform="translate(-518.042 -505.276)"/><path class="s" d="M518.042,525.7c7.044-.178,13.865-8.389,14.99-14.776.573,7.175,8.926,14.162,15.823,13.986" transform="translate(-518.042 -497.49)"/></g><g transform="translate(823.611 825.238)"><line class="s" y2="42.667" transform="translate(14.776 0.553)"/><path class="s" d="M581.455,499.921c7.044-.178,13.867-8.389,14.993-14.776.573,7.173,8.924,14.162,15.823,13.986" transform="translate(-581.455 -485.145)"/><path class="s" d="M581.455,505.567c7.044-.178,13.867-8.389,14.993-14.776.573,7.173,8.924,14.162,15.823,13.986" transform="translate(-581.455 -477.359)"/></g><g transform="translate(811.637 396.594)"><line class="s" y2="42.667" transform="translate(14.776 0.555)"/><path class="s" d="M576.422,319.746c7.044-.176,13.867-8.389,14.993-14.776.573,7.175,8.926,14.163,15.823,13.986" transform="translate(-576.422 -304.97)"/><path class="s" d="M576.422,325.392c7.044-.176,13.867-8.389,14.993-14.776.573,7.175,8.926,14.162,15.823,13.986" transform="translate(-576.422 -297.184)"/></g><g transform="translate(627.249 410.964)"><line class="s" y2="42.667" transform="translate(14.776 0.553)"/><path class="s" d="M498.917,325.786c7.044-.178,13.867-8.389,14.993-14.776.573,7.173,8.924,14.163,15.823,13.986" transform="translate(-498.917 -311.01)"/><path class="s" d="M498.917,331.432c7.044-.178,13.867-8.388,14.993-14.776.573,7.173,8.924,14.162,15.823,13.986" transform="translate(-498.917 -303.224)"/></g><g transform="translate(684.722 367.86)"><line class="s" y2="42.667" transform="translate(14.774 0.553)"/><path class="s" d="M523.075,307.668c7.042-.178,13.865-8.389,14.99-14.776.573,7.173,8.926,14.162,15.823,13.984" transform="translate(-523.075 -292.892)"/><path class="s" d="M523.075,313.314c7.042-.178,13.865-8.388,14.99-14.776.573,7.173,8.926,14.162,15.823,13.986" transform="translate(-523.075 -285.106)"/></g><g transform="translate(627.249 324.757)"><line class="s" y2="42.667" transform="translate(14.776 0.553)"/><path class="s" d="M498.917,289.55c7.044-.178,13.867-8.388,14.993-14.776.573,7.173,8.924,14.162,15.823,13.984" transform="translate(-498.917 -274.774)"/><path class="s" d="M498.917,295.2c7.044-.178,13.867-8.389,14.993-14.776.573,7.173,8.924,14.162,15.823,13.984" transform="translate(-498.917 -266.988)"/></g><g transform="translate(569.779 377.438)"><line class="s" y2="42.667" transform="translate(14.775 0.554)"/><path class="s" d="M474.76,311.694c7.042-.178,13.865-8.389,14.99-14.776.573,7.175,8.926,14.162,15.823,13.986" transform="translate(-474.76 -296.918)"/><path class="s" d="M474.76,317.34c7.042-.178,13.865-8.389,14.99-14.776.573,7.175,8.926,14.162,15.823,13.986" transform="translate(-474.76 -289.132)"/></g><g transform="translate(507.517 348.702)"><line class="s" y2="42.667" transform="translate(14.776 0.554)"/><path class="s" d="M448.589,299.615c7.044-.176,13.868-8.388,14.993-14.776.573,7.175,8.924,14.162,15.823,13.986" transform="translate(-448.589 -284.839)"/><path class="s" d="M448.589,305.261c7.044-.176,13.868-8.389,14.993-14.776.573,7.175,8.924,14.162,15.823,13.986" transform="translate(-448.589 -277.053)"/></g><g transform="translate(531.465 473.223)"><line class="s" y2="42.667" transform="translate(14.775 0.555)"/><path class="s" d="M458.655,351.956c7.042-.176,13.865-8.389,14.99-14.776.573,7.175,8.926,14.162,15.823,13.986" transform="translate(-458.655 -337.18)"/><path class="s" d="M458.655,357.6c7.042-.176,13.865-8.389,14.99-14.776.573,7.175,8.926,14.162,15.823,13.986" transform="translate(-458.655 -329.394)"/></g><g transform="translate(447.651 415.753)"><line class="s" y2="42.667" transform="translate(14.776 0.554)"/><path class="s" d="M423.425,327.8c7.044-.178,13.867-8.388,14.993-14.776.573,7.173,8.924,14.162,15.823,13.986" transform="translate(-423.425 -313.023)"/><path class="s" d="M423.425,333.445c7.044-.178,13.867-8.389,14.993-14.776.573,7.173,8.924,14.162,15.823,13.986" transform="translate(-423.425 -305.237)"/></g><g transform="translate(464.414 523.511)"><line class="s" y2="42.667" transform="translate(14.776 0.554)"/><path class="s" d="M430.471,373.094c7.044-.176,13.865-8.389,14.993-14.776.573,7.175,8.924,14.162,15.823,13.986" transform="translate(-430.471 -358.318)"/><path class="s" d="M430.471,378.74c7.044-.176,13.865-8.389,14.993-14.776.573,7.175,8.924,14.162,15.823,13.986" transform="translate(-430.471 -350.532)"/></g><g transform="translate(773.323 1160.487)"><line class="s" y2="42.667" transform="translate(14.776 0.554)"/><path class="s" d="M560.317,640.839c7.044-.176,13.867-8.388,14.993-14.776.573,7.175,8.926,14.162,15.823,13.987" transform="translate(-560.317 -626.063)"/><path class="s" d="M560.317,646.485c7.044-.176,13.867-8.389,14.993-14.776.573,7.175,8.926,14.162,15.823,13.986" transform="translate(-560.317 -618.277)"/></g><g transform="translate(835.584 1122.173)"><line class="s" y2="42.667" transform="translate(14.775 0.554)"/><path class="s" d="M586.488,624.734c7.044-.176,13.865-8.389,14.99-14.776.573,7.175,8.926,14.162,15.825,13.986" transform="translate(-586.488 -609.958)"/><path class="s" d="M586.488,630.38c7.044-.176,13.865-8.388,14.99-14.776.573,7.175,8.926,14.163,15.825,13.986" transform="translate(-586.488 -602.172)"/></g><g transform="translate(708.667 1311.349)"><line class="s" y2="42.667" transform="translate(14.776 0.555)"/><path class="s" d="M533.14,704.252c7.044-.176,13.867-8.388,14.993-14.776.573,7.175,8.924,14.165,15.823,13.986" transform="translate(-533.14 -689.476)"/><path class="s" d="M533.14,709.9c7.044-.176,13.867-8.389,14.993-14.776.573,7.175,8.924,14.165,15.823,13.986" transform="translate(-533.14 -681.69)"/></g><g transform="translate(785.296 1292.193)"><line class="s" y2="42.667" transform="translate(14.776 0.554)"/><path class="s" d="M565.35,696.2c7.044-.178,13.867-8.389,14.993-14.776.573,7.175,8.924,14.163,15.823,13.986" transform="translate(-565.35 -681.424)"/><path class="s" d="M565.35,701.846c7.044-.179,13.867-8.388,14.993-14.776.573,7.175,8.924,14.162,15.823,13.986" transform="translate(-565.35 -673.638)"/></g><g transform="translate(952.921 1160.487)"><line class="s" y2="42.667" transform="translate(14.776 0.554)"/><path class="s" d="M635.809,640.839c7.044-.176,13.867-8.388,14.993-14.776.573,7.175,8.926,14.162,15.823,13.987" transform="translate(-635.809 -626.063)"/><path class="s" d="M635.809,646.485c7.044-.176,13.867-8.389,14.993-14.776.573,7.175,8.926,14.162,15.823,13.986" transform="translate(-635.809 -618.277)"/></g><g transform="translate(1108.574 1057.518)"><line class="s" y2="42.667" transform="translate(14.775 0.554)"/><path class="s" d="M701.236,597.557c7.044-.176,13.865-8.388,14.99-14.776.573,7.175,8.926,14.163,15.823,13.986" transform="translate(-701.236 -582.781)"/><path class="s" d="M701.236,603.2c7.044-.176,13.865-8.388,14.99-14.776.573,7.175,8.926,14.162,15.823,13.986" transform="translate(-701.236 -574.995)"/></g><g transform="translate(1168.441 1012.018)"><line class="s" y2="42.667" transform="translate(14.775 0.555)"/><path class="s" d="M726.4,578.432c7.044-.176,13.865-8.388,14.99-14.776.573,7.175,8.926,14.163,15.823,13.986" transform="translate(-726.4 -563.656)"/><path class="s" d="M726.4,584.078c7.044-.176,13.865-8.388,14.99-14.776.573,7.175,8.926,14.162,15.823,13.986" transform="translate(-726.4 -555.87)"/></g><g transform="translate(1187.597 1596.313)"><line class="s" y2="42.667" transform="translate(14.776 0.554)"/><path class="s" d="M734.452,824.033c7.044-.176,13.867-8.388,14.993-14.776.573,7.175,8.926,14.163,15.823,13.986" transform="translate(-734.452 -809.257)"/><path class="s" d="M734.452,829.679c7.044-.176,13.867-8.388,14.993-14.776.573,7.175,8.926,14.162,15.823,13.986" transform="translate(-734.452 -801.471)"/></g><g transform="translate(1137.311 1656.179)"><line class="s" y2="42.667" transform="translate(14.774 0.554)"/><path class="s" d="M713.315,849.2c7.042-.176,13.865-8.389,14.99-14.776.573,7.175,8.926,14.162,15.823,13.986" transform="translate(-713.315 -834.421)"/><path class="s" d="M713.315,854.843c7.042-.176,13.865-8.388,14.99-14.776.573,7.175,8.926,14.162,15.823,13.986" transform="translate(-713.315 -826.635)"/></g><g transform="translate(1204.359 1675.338)"><line class="s" y2="42.667" transform="translate(14.776 0.553)"/><path class="s" d="M741.5,857.25c7.044-.178,13.867-8.388,14.993-14.776.573,7.173,8.924,14.162,15.823,13.984" transform="translate(-741.498 -842.474)"/><path class="s" d="M741.5,862.9c7.044-.178,13.867-8.388,14.993-14.776.573,7.173,8.924,14.162,15.823,13.984" transform="translate(-741.498 -834.688)"/></g><g transform="translate(1283.384 1720.834)"><line class="s" y2="42.667" transform="translate(14.775 0.555)"/><path class="s" d="M774.715,876.374c7.042-.176,13.865-8.388,14.99-14.776.573,7.175,8.926,14.162,15.823,13.986" transform="translate(-774.715 -861.598)"/><path class="s" d="M774.715,882.02c7.042-.176,13.865-8.389,14.99-14.776.573,7.175,8.926,14.162,15.823,13.986" transform="translate(-774.715 -853.812)"/></g><g transform="translate(1321.698 1625.049)"><line class="s" y2="42.667" transform="translate(14.775 0.554)"/><path class="s" d="M790.82,836.112c7.042-.179,13.865-8.389,14.99-14.776.573,7.173,8.926,14.162,15.823,13.987" transform="translate(-790.82 -821.336)"/><path class="s" d="M790.82,841.758c7.042-.178,13.865-8.388,14.99-14.776.573,7.173,8.926,14.163,15.823,13.986" transform="translate(-790.82 -813.55)"/></g><g transform="translate(1269.014 1548.42)"><line class="s" y2="42.667" transform="translate(14.776 0.554)"/><path class="s" d="M768.675,803.9c7.044-.178,13.868-8.388,14.993-14.776.573,7.175,8.926,14.162,15.823,13.986" transform="translate(-768.675 -789.126)"/><path class="s" d="M768.675,809.548c7.044-.178,13.868-8.388,14.993-14.776.573,7.175,8.926,14.162,15.823,13.986" transform="translate(-768.675 -781.34)"/></g><g transform="translate(1163.652 1778.307)"><line class="s" y2="42.667" transform="translate(14.775 0.553)"/><path class="s" d="M724.387,900.532c7.042-.178,13.865-8.389,14.99-14.776.573,7.173,8.926,14.162,15.823,13.987" transform="translate(-724.387 -885.756)"/><path class="s" d="M724.387,906.178c7.042-.178,13.865-8.388,14.99-14.776.573,7.173,8.926,14.162,15.823,13.986" transform="translate(-724.387 -877.97)"/></g><g transform="translate(1101.39 1732.808)"><line class="s" y2="42.667" transform="translate(14.776 0.554)"/><path class="s" d="M698.216,881.407c7.044-.176,13.867-8.388,14.993-14.776.573,7.175,8.924,14.163,15.823,13.987" transform="translate(-698.216 -866.631)"/><path class="s" d="M698.216,887.053c7.044-.176,13.867-8.388,14.993-14.776.573,7.175,8.924,14.163,15.823,13.986" transform="translate(-698.216 -858.845)"/></g><g transform="translate(1022.367 1747.175)"><line class="s" y2="42.667" transform="translate(14.774 0.555)"/><path class="s" d="M665,887.446c7.042-.176,13.865-8.388,14.99-14.776.573,7.175,8.926,14.165,15.823,13.986" transform="translate(-665 -872.67)"/><path class="s" d="M665,893.092c7.042-.176,13.865-8.388,14.99-14.776.573,7.175,8.926,14.165,15.823,13.987" transform="translate(-665 -864.884)"/></g><g transform="translate(663.171 1658.575)"><line class="s" y2="42.667" transform="translate(14.774 0.553)"/><path class="s" d="M514.016,850.2c7.042-.179,13.865-8.389,14.99-14.776.573,7.173,8.926,14.162,15.823,13.986" transform="translate(-514.016 -835.428)"/><path class="s" d="M514.016,855.85c7.042-.178,13.865-8.388,14.99-14.776.573,7.173,8.926,14.163,15.823,13.987" transform="translate(-514.016 -827.642)"/></g><g transform="translate(584.146 1620.26)"><line class="s" y2="42.667" transform="translate(14.776 0.553)"/><path class="s" d="M480.8,834.1c7.044-.178,13.865-8.388,14.993-14.776.573,7.173,8.924,14.162,15.823,13.986" transform="translate(-480.799 -819.323)"/><path class="s" d="M480.8,839.745c7.044-.178,13.865-8.388,14.993-14.776.573,7.173,8.924,14.162,15.823,13.986" transform="translate(-480.799 -811.537)"/></g><g transform="translate(634.434 1534.053)"><line class="s" y2="42.667" transform="translate(14.775 0.553)"/><path class="s" d="M501.937,797.863c7.044-.178,13.865-8.388,14.99-14.776.573,7.173,8.926,14.162,15.825,13.984" transform="translate(-501.937 -783.087)"/><path class="s" d="M501.937,803.509c7.044-.179,13.865-8.389,14.99-14.776.573,7.173,8.926,14.162,15.825,13.984" transform="translate(-501.937 -775.301)"/></g><g transform="translate(584.146 1490.948)"><line class="s" y2="42.667" transform="translate(14.776 0.555)"/><path class="s" d="M480.8,779.744c7.044-.176,13.865-8.388,14.993-14.776.573,7.175,8.924,14.165,15.823,13.986" transform="translate(-480.799 -764.968)"/><path class="s" d="M480.8,785.39c7.044-.176,13.865-8.389,14.993-14.776.573,7.175,8.924,14.165,15.823,13.987" transform="translate(-480.799 -757.182)"/></g><g transform="translate(519.491 1356.848)"><line class="s" y2="42.667" transform="translate(14.775 0.554)"/><path class="s" d="M453.622,723.377c7.044-.176,13.865-8.388,14.99-14.776.573,7.175,8.926,14.162,15.825,13.986" transform="translate(-453.622 -708.601)"/><path class="s" d="M453.622,729.023c7.044-.176,13.865-8.388,14.99-14.776.573,7.175,8.926,14.162,15.825,13.986" transform="translate(-453.622 -700.815)"/></g><g transform="translate(442.862 1012.018)"><line class="s" y2="42.667" transform="translate(14.775 0.555)"/><path class="s" d="M421.412,578.432c7.044-.176,13.865-8.388,14.99-14.776.573,7.175,8.926,14.163,15.825,13.986" transform="translate(-421.412 -563.656)"/><path class="s" d="M421.412,584.078c7.044-.176,13.865-8.388,14.99-14.776.573,7.175,8.926,14.162,15.825,13.986" transform="translate(-421.412 -555.87)"/></g><g transform="translate(517.095 1057.518)"><line class="s" y2="42.667" transform="translate(14.776 0.554)"/><path class="s" d="M452.615,597.557c7.044-.176,13.867-8.388,14.993-14.776.573,7.175,8.926,14.163,15.823,13.986" transform="translate(-452.615 -582.781)"/><path class="s" d="M452.615,603.2c7.044-.176,13.867-8.388,14.993-14.776.573,7.175,8.926,14.162,15.823,13.986" transform="translate(-452.615 -574.995)"/></g><g transform="translate(478.781 1112.595)"><line class="s" y2="42.667" transform="translate(14.776 0.554)"/><path class="s" d="M436.51,620.708c7.044-.179,13.867-8.389,14.993-14.776.573,7.175,8.926,14.162,15.823,13.986" transform="translate(-436.51 -605.932)"/><path class="s" d="M436.51,626.354c7.044-.178,13.867-8.388,14.993-14.776.573,7.175,8.926,14.162,15.823,13.986" transform="translate(-436.51 -598.146)"/></g><g transform="translate(406.943 1232.327)"><line class="s" y2="42.667" transform="translate(14.774 0.554)"/><path class="s" d="M406.314,671.036c7.042-.178,13.865-8.388,14.99-14.776.573,7.175,8.926,14.162,15.823,13.986" transform="translate(-406.314 -656.26)"/><path class="s" d="M406.314,676.682c7.042-.178,13.865-8.389,14.99-14.776.573,7.175,8.926,14.162,15.823,13.986" transform="translate(-406.314 -648.474)"/></g><g transform="translate(136.347 1447.844)"><line class="s" y2="42.667" transform="translate(14.776 0.555)"/><path class="s" d="M292.572,761.626c7.044-.176,13.867-8.388,14.993-14.776.573,7.175,8.926,14.162,15.823,13.987" transform="translate(-292.572 -746.85)"/><path class="s" d="M292.572,767.272c7.044-.176,13.867-8.388,14.993-14.776.573,7.175,8.926,14.162,15.823,13.986" transform="translate(-292.572 -739.064)"/></g><g transform="translate(81.269 1469.396)"><line class="s" y2="42.667" transform="translate(14.776 0.555)"/><path class="s" d="M269.421,770.685c7.044-.176,13.867-8.388,14.993-14.776.573,7.175,8.926,14.165,15.823,13.987" transform="translate(-269.421 -755.909)"/><path class="s" d="M269.421,776.331c7.044-.176,13.867-8.389,14.993-14.776.573,7.175,8.926,14.165,15.823,13.986" transform="translate(-269.421 -748.123)"/></g><g transform="translate(124.375 1371.215)"><line class="s" y2="42.667" transform="translate(14.774 0.555)"/><path class="s" d="M287.54,729.416c7.042-.176,13.865-8.388,14.99-14.776.573,7.175,8.926,14.165,15.823,13.986" transform="translate(-287.54 -714.64)"/><path class="s" d="M287.54,735.062c7.042-.176,13.865-8.388,14.99-14.776.573,7.175,8.926,14.165,15.823,13.986" transform="translate(-287.54 -706.854)"/></g><g transform="translate(66.902 1380.796)"><line class="s" y2="42.667" transform="translate(14.776 0.553)"/><path class="s" d="M263.382,733.443c7.044-.178,13.865-8.388,14.993-14.776.573,7.173,8.924,14.162,15.823,13.986" transform="translate(-263.382 -718.667)"/><path class="s" d="M263.382,739.089c7.044-.179,13.865-8.389,14.993-14.776.573,7.173,8.924,14.162,15.823,13.987" transform="translate(-263.382 -710.881)"/></g><g transform="translate(33.377 1316.141)"><line class="s" y2="42.667" transform="translate(14.776 0.553)"/><path class="s" d="M249.29,706.266c7.044-.178,13.867-8.389,14.993-14.776.573,7.173,8.924,14.163,15.823,13.984" transform="translate(-249.29 -691.49)"/><path class="s" d="M249.29,711.912c7.044-.179,13.867-8.388,14.993-14.776.573,7.173,8.924,14.163,15.823,13.984" transform="translate(-249.29 -683.704)"/></g><g transform="translate(76.48 1249.09)"><line class="s" y2="42.667" transform="translate(14.776 0.554)"/><path class="s" d="M267.408,678.082c7.044-.179,13.867-8.388,14.993-14.776.573,7.173,8.926,14.162,15.823,13.986" transform="translate(-267.408 -663.306)"/><path class="s" d="M267.408,683.728c7.044-.178,13.867-8.388,14.993-14.776.573,7.175,8.926,14.163,15.823,13.986" transform="translate(-267.408 -655.52)"/></g><g transform="translate(52.535 1174.854)"><line class="s" y2="42.667" transform="translate(14.775 0.555)"/><path class="s" d="M257.343,646.878c7.042-.176,13.865-8.389,14.99-14.776.573,7.175,8.926,14.165,15.823,13.986" transform="translate(-257.343 -632.102)"/><path class="s" d="M257.343,652.524c7.042-.176,13.865-8.388,14.99-14.776.573,7.175,8.926,14.165,15.823,13.987" transform="translate(-257.343 -624.316)"/></g><g transform="translate(459.625 1241.905)"><line class="s" y2="42.667" transform="translate(14.775 0.554)"/><path class="s" d="M428.458,675.062c7.044-.176,13.865-8.388,14.99-14.776.573,7.175,8.926,14.162,15.825,13.986" transform="translate(-428.458 -660.286)"/><path class="s" d="M428.458,680.708c7.044-.176,13.865-8.388,14.99-14.776.573,7.175,8.926,14.162,15.825,13.986" transform="translate(-428.458 -652.5)"/></g><g transform="translate(471.598 1416.714)"><line class="s" y2="42.667" transform="translate(14.775 0.554)"/><path class="s" d="M433.491,748.541c7.042-.176,13.865-8.388,14.99-14.776.573,7.175,8.926,14.163,15.823,13.986" transform="translate(-433.491 -733.765)"/><path class="s" d="M433.491,754.187c7.042-.176,13.865-8.388,14.99-14.776.573,7.175,8.926,14.162,15.823,13.986" transform="translate(-433.491 -725.979)"/></g><g transform="translate(272.842 1493.343)"><line class="s" y2="42.667" transform="translate(14.776 0.554)"/><path class="s" d="M349.946,780.751c7.044-.176,13.867-8.388,14.993-14.776.573,7.175,8.924,14.163,15.823,13.987" transform="translate(-349.946 -765.975)"/><path class="s" d="M349.946,786.4c7.044-.176,13.867-8.388,14.993-14.776.573,7.175,8.924,14.162,15.823,13.986" transform="translate(-349.946 -758.189)"/></g><g transform="translate(344.681 1483.765)"><line class="s" y2="42.667" transform="translate(14.775 0.554)"/><path class="s" d="M380.143,776.725c7.044-.178,13.865-8.388,14.993-14.776.573,7.173,8.924,14.162,15.823,13.986" transform="translate(-380.143 -761.949)"/><path class="s" d="M380.143,782.371c7.044-.178,13.865-8.388,14.993-14.776.573,7.173,8.924,14.162,15.823,13.986" transform="translate(-380.143 -754.163)"/></g><g transform="translate(459.625 1361.637)"><line class="s" y2="42.667" transform="translate(14.775 0.554)"/><path class="s" d="M428.458,725.39c7.044-.176,13.865-8.388,14.99-14.776.573,7.175,8.926,14.163,15.825,13.986" transform="translate(-428.458 -710.614)"/><path class="s" d="M428.458,731.036c7.044-.176,13.865-8.388,14.99-14.776.573,7.175,8.926,14.162,15.825,13.986" transform="translate(-428.458 -702.828)"/></g></g></g></g></svg>