<?xml version="1.0" encoding="utf-8"?>
<!-- Generator: Adobe Illustrator 25.4.1, SVG Export Plug-In . SVG Version: 6.00 Build 0)  -->
<svg version="1.1" id="Layer_1" xmlns="http://www.w3.org/2000/svg" xmlns:xlink="http://www.w3.org/1999/xlink" x="0px" y="0px"
	 viewBox="0 0 954 978" style="enable-background:new 0 0 954 978;" xml:space="preserve">
<style type="text/css">
	.st0{fill:none;}
	.st1{fill:#D4EDCE;}
	.st2{fill:#E5CA7F;}
	.st3{fill:#B2DBAE;}
	.st4{fill:#8AC883;}
	.st5{fill:none;stroke:#005731;stroke-width:4;stroke-linecap:round;stroke-linejoin:round;stroke-dasharray:1,7;}
	.st6{font-family:'GillSans';}
	.st7{font-size:15px;}
	.st8{font-size:10px;}
	.st9{font-size:9.9996px;}
	.st10{font-size:13px;}
	.st11{font-size:9px;}
	.st12{font-size:9.0003px;}
	.st13{font-size:8.9996px;}
	.st14{font-size:8.9981px;}
	.st15{font-size:12px;}
	.st16{fill:none;stroke:#009FE3;stroke-width:4;stroke-miterlimit:10;}
	.st17{fill:none;stroke:#666666;stroke-width:5;stroke-miterlimit:10;}
	.st18{fill:none;stroke:#666666;stroke-width:3;stroke-miterlimit:10;}
	.st19{font-size:8px;}
	.st20{font-size:8.0003px;}
	.st21{fill:none;stroke:#3FA535;stroke-width:2;stroke-linecap:round;stroke-linejoin:round;}
	.st22{fill:#D5A400;}
</style>
<rect class="st0" width="954" height="978"/>
<g transform="translate(-837 -53)">
	<rect x="837" y="53" class="st1" width="954" height="978"/>
	<g transform="translate(954.258 44.898)">
		<path class="st2" d="M205.1,848.7c-10.4,0-17.6,26.4-19.6,39.6c-2.3,15.5-7.4,30.9-9.6,46.6c-2,14.3-7,24.9-10,38.8
			c-2.4,1.2-5,1.8-7.7,1.7c-3.6-0.1-7.1-0.6-10.6-1.3c-3.5-0.8-7.1-1.2-10.7-1.3c-1.1,0-2.1,0.1-3.2,0.2c-1.5,9-7.9,28.3-3.4,35.5
			c-6.2,9.2,34.9,9.7,46.6,9.7h1.7h1.1c0.2,0,0.3,0,0.3,0c31.9,1,64,2.1,96.1,2.1c26.3,0,52.5-0.7,78.4-2.9
			c21.7-1.8,19.3-9.5,24-27.3c3.3-12.4,7.6-22.6,15.6-32.6c3.6-4.5,12.7-11.4,6.5-17c-0.9-0.8-3.3-1.1-6.3-1.1
			c-5.7,0-13.3,1.1-15.1,1.9c-15.4,7-15.6,33.1-28.1,43.3c-2.5,2.1-5.7,3.2-9,3.1c-8.7,0-18.3-6.8-24.3-13.2
			c-12-12.9-25.2-23.8-38.1-36.7c-22.6-22.7-47.3-44.8-60.8-74.2C213.9,852.9,209.2,848.7,205.1,848.7"/>
		<path class="st2" d="M677.3,499.2c-3.5,0-6.8,6.3-10.2,7.7c-1.6,0.6-3.4,0.9-5.1,0.8c-0.5,0-0.9,0-1.4,0s-0.9,0-1.4,0
			c-2.7,0-5.3,0.3-7.5,2.7c-3.8,4.4,1.6,10.1-5.4,13c-1-0.4-2.1-0.6-3.2-0.6c-4.9,0-8.4,4.4-9.7,8.7c-4.3,2.8-5.5,32.7,5.8,32.7
			c2.2,0,4.8-1.1,8-3.8c7.3-6.1,15.7-14,18.6-22.4c1.7-5,1.6-11.1,4.1-15.4c2.7-4.5,10.7-6.9,12.6-10.6c1.9-3.6,1.7-12-4.8-12.8
			C677.6,499.2,677.4,499.2,677.3,499.2"/>
		<path class="st2" d="M716.6,305.4c-8,9.3-16.1,19.3-27.6,24.8c-12.2,5.8-25.5,8.7-37.3,16.1c-11.5,7.2-23.5,16.2-31.1,27.6
			c-6.8,10.3-8.5,24.4-13.5,36.5c-5.6,13.4,1.8,22.7,10.1,33.6c-4.9,8.6-19.4,8-26.2,15.1c1.9,1.9,4.7,2.6,8,2.6
			c10.7,0,26.6-7.4,34-8.8c12-2.4,20.6-8.3,32.4-10c1.7-0.2,3.4-0.3,5-0.3c12.5,0,24.6,5.9,37.1,7.9c2.4,0.5,4.8,0.8,7.2,1
			c2.8,0,4.6-1.1,7.2-4.7c6.7-9.6,27.5-45.6,27.8-56.6C750.1,381.3,725.5,308.1,716.6,305.4"/>
		<path class="st2" d="M423.8,0c-12.6,0-26,3.7-30.6,15.6c-3.8,9.8-6,20.2-8.8,30.1c-2.3-1.2-4.8-1.9-7.3-2
			c-2.6-0.1-5.1,1.1-6.7,3.1c2.9,6.8,11,4.1,14,8.6c2.3,3.5-0.4,13.1-1.8,16c3,3.9,8.2,5.2,12.8,5.7c18.5,1.7,42.8,12.5,61,19
			c12.5,4.4,27.7,11.3,41.7,11.3c1,0,2.1,0,3.1-0.1c1.5-8.5-13.5-21.3-17.4-29c-7.4-14.6-14.8-29-20.3-44.5
			C459.1,21.4,456.8,8,444,3.2C437.5,1,430.7,0,423.8,0"/>
		<path class="st2" d="M3.8,61.1c-0.8,1-1.5,2-2.1,3.2L3.8,61.1 M6,57.7L3.8,61c0.4-0.5,0.9-1,1.4-1.5C5.5,58.9,5.8,58.3,6,57.7
			 M24.3,54.7c-7.7,1.1-14.1,0.4-19,4.9C0.3,71.7-5.8,98.8,12,98.8c0.4,0,0.8,0,1.2,0c3.6-0.2,17.2-6,18.9-9.2
			C36.1,81.7,25,63.1,24.3,54.7"/>
	</g>
	<g transform="translate(927.546 128.618)">
		<path class="st3" d="M31.9,0c-2.9,0-48,7-51.3,8.1c-32.4,10.7-66.7,21-67.5,30.5c-0.3,3.1,0.2,107.9,0,111.3
			c-0.2,3.2-0.4,6.2-0.6,9.2c-2.4,40.3-0.5,51.5,0.6,96.8c0.5,19.2,90.5,66.2,95.4,84.9c3.1,11.7,10.5,21.9,13.4,33.4
			c4,15.9,6.1,27.2,14.4,42.1c7.2,12.9,17.6,26.1,22.1,40.2c7.1,22.3-22,8.9-35.3,17.4c-21.9,14.1-36,6.6-60.7,62
			c-3.5,65.3,41.3,74.2,49.2,110.4c4,18.4,8.5,37.2,13.3,55.4c3.2,12.4,5.7,19.5,17.7,23.6c8.3,2.8,16.3,0.5,23.5,5.9
			c-0.2,9.6-12.3,20.4-17.7,28.5c-4.6,7-6.8,16-13.1,21.7c-6.7,6.1-15.2,1.7-10.4,16.1c2.9,8.7,7.3,9,15,11.9
			c13.7,5.1,26.9,3.7,42.4,4.3c6.3,0.3,12.5,0.4,18.6,0.4c7,0,14-0.1,20.9-0.2c6.9-0.1,13.9-0.2,20.9-0.2c0.6,0,1.2,0,1.8,0
			c11.7,0,24.8,1.7,37.1,1.7c6.1,0.1,12.1-0.5,18.1-1.8c0.2-20.3-17.7-44.8-27.5-62.9c-8.9-16.4-13.6-34.6-23.3-48.8
			c-1.7-2.5-13.3-15.2-2.7-15.2c1.2,0,2.4,0.1,3.5,0.3c5.8,1,8.5,12.4,10.4,17c14.7,34.8,33.3,75.5,51.8,107.2
			c-0.9-6.1,5.8-28.5,10.4-33.2c5.8,9.5,9.7,21.2,17.3,29.6c14.9,16.4,34.4,31.1,51.6,44.6c16.6,13,44.4,30,57,41.6
			c0.1,0.1,0.3,0.2,0.5,0.2c1.2,0,2.7-2.8,2.5-4.2c-1.2-7.5-8.4-15.4-15.4-22c-16.1-15.3-37.7-28.3-51.4-44.7
			c-2.3-2.8-11.9-12.8-12.1-15.7c-0.4-6.5,5.5-6.2,7.8-10c3.5-5.5,3.4-8.9,8.1-13.8c3-3.1,9.2-7.1,10.1-7.1c0.1,0,0.1,0,0.1,0.1
			c3.5,1,7.1,1.5,10.7,1.5c28.5,0,27.5-39.2,20.2-60.3c-3.4-9.7-10.4-18.9-13.5-28.1c-2.4-7.3-4.8-9.9,1-17.4
			c7.7-9.9,23.2-18.1,32.8-26.7c7-6.3,12.2-10.8,21.5-10.8c0.9,0,1.9,0,2.9,0.1c10.9,1,20.1,9.6,26.1,18.7c7.7,11.8,7.2,25.3-5,33.9
			c-9.6,6.7-30.2,5.8-29.4,22.2c8.7,3.3,4.2,61.1,13.7,74.5c6.8,9.7,18.5,15.7,26.4,24.6c8.3,9.3,12.8,20,17,31.8
			c4.7,13,9,30.3,21.8,30.3c3.3,0,7.2-1.2,11.9-3.9c17.9-10.5,33.4-28.2,50.5-40.1c9.3-6.5,26.4-28.1,36.2-28.9
			c3.8,26.7-16.1,44.3-36.7,52c7.5-1.5,13.3-5.9,20.5-9.5c11.5-5.6,24.2-5.8,36.4-10.1c11.4-4,48.8-16.3,54.8-31.3
			c15.1-37.3-13.8-81.6-31.9-111.5c-19-31.4-30.9-60-41.5-95.4c-5.6-18.6-15.1-40.4-25.4-56.3c-8.8-13.6-29.1-30-29.1-48.1
			c0-10.6,2.2-9.5,10.1-15c13.2-9.4,20-12.1,21.7-28.4s3.1-32.3,4-48.4c0.8-14.3-4.9-33,7.3-40.4c11.9-7.2,27.4-0.8,33.9-17.1
			c-2.9-2.3-6.7-2.6-10.7-2.6c-1.1,0-2.1,0-3.2,0.1s-2.1,0.1-3.2,0.1c-5.8,0-11.1-0.8-13.5-7.2c-0.3,0-0.7,0.1-1,0.1
			c-7.6,0-7-10.4-5.6-16.8c2.1-9.6,3-9.6,11.4-12.8c9.1-3.5,34.9-0.1,20.8-17.3c-2.9-3.5-8.5-0.8-12.4-7.6
			c-2.5-4.4-3.2-13.2-3.7-18.5c-2-18.6,2.6-38.4,5.7-56.4c2.5-14.4,7.3-27.6,15.2-39.6c8.5-12.8,21.7-25.4,25.9-40.8
			c3-10.9-0.8-13.1-7.5-13.1c-4.1,0-9.3,0.9-14.6,1.1c-2.7,0.1-5.4,0.2-8.1,0.2c-11.5,0-22.7-0.9-34-1.5c-6.3-0.3-14.1-1.7-21.4-1.7
			c-6.5,0-12.6,1.1-16.7,5c-9.6,9.1-5.5,24.3-20.7,30.1c-8.5,15-19.1,21-30.2,21c-28.8,0-60.9-40.2-68.7-65.1
			c-14.7-0.2-33.9-22.1-39.4-35.3c-3.7-8.9,0.4-15.6-0.9-24.6c-8-0.6-13.5-3.3-20.2-3.3c-3.5,0-6.9,0.7-10,2.1
			c-10.8,4.4-18.6,15.3-27.1,22.4c-6.8,5.7-4.8,21.9-11.6,21.9c-2,0-4.6-1.3-8.5-4.6c-7.5,5.8-13.3,18.7-22.5,19.9
			c-2.4-4.3-5.1-8.3-7.2-12.9c-2.3,1.5-7.8,2.2-10.1,3.6c-4.8-9.3-17.5-22.3-16.3-32.6c1-8.5,11.9-19.4,17.2-26.4
			c-4.3-6.5-9.7-12.3-15.8-17.1c-11.2,5.2-18,21.8-27,30.5c-9.5,9.2-19.2,10.1-30.4,15c-4.1,1.9-8.6,2.9-13.2,2.9
			c-33.1,0-63-51.2-93.7-56.3C33.5,0.1-7.2,8.1-8,8.1"/>
	</g>
	<path class="st3" d="M1029.5,1027.4c-8.5-7.7-4.5-23.2,0.2-34.4c14.5,2.5,23.3-0.9,27.1-15.1c2.9-11,6.7-21.1,14.9-29.6
		c14.9,9.8-2.1,41.9-5.3,54.7c-2.1,8.6-6.2,57.1-17.2,54.5c-5.1-9.4-4.7-22.8-6.9-33.3C1039.6,1027.6,1035.3,1030.2,1029.5,1027.4z"
		/>
	<g transform="translate(1004.901 173.121)">
		<path class="st4" d="M84.9,0c-8.5,5.5-20.1,8.2-31.3,8.2c-10.5,0-20.9-2.4-28.4-7C27,7.7,42,23,47.7,30.3c-0.2,0-0.5,0-0.7,0
			c-9.3,0-23.5,5-23,16.1c1.6,0,3.3,0.3,4.9,0.4c3.1,12-10.6,24-18.2,32.2c-11.1,11.9-13,19.2-8.3,35.7c3.9,13.9,11.3,27.9,19,40.1
			c3.3,5.2,8,10.3,10.7,15.7c5.1,10.3-0.8,6.9-0.2,15.8c0.6,8.4,5.4,10.4,11.9,10.4c3.1-0.1,6.3-0.4,9.4-0.8
			c3.2-0.5,6.5-0.7,9.8-0.8c2.6-0.1,5.2,0.3,7.6,1.1c3.1,1.2,13.9,3.5,19.7,7c5.7,3.6,11.1,7.5,16.4,11.7l0,0c1.5,0,3.6-1.3,5.9-2.6
			s5.1-2.6,8-2.6c0.6,0,1.2,0.1,1.8,0.2c1.9,4.6,6.1,6.7,10.8,6.7c1.3,0,2.6-0.2,3.9-0.5c0.7-13.2-3.7-31.7,14.3-31.7h0.3
			c1.8,8.7,1.5,19.5,4.5,27.9c4.2,11.6,9.5,13,7.5,26.4c-3,19.6-10.4,29.4,4.6,46.7c8.3,9.6,36.1,25.2,20.8,40.4
			c-4.5,4.5-11.3,5.1-18.5,5.1c-1.2,0-2.4,0-3.6,0s-2.4,0-3.6,0c-9,0-17.7,0.9-22.5,9.3c-9.6,17.1,21,50.4,24.4,67.1
			c4.2,20.4-4.4,59.7-11.3,78.9c-4.6,12.9-9.5,23.9-11.3,37.4c-2.1,16.2,3,26-5.7,41.1c-5.2,9-7.2,7.9-3.7,19
			c2.3,7.4,9.2,12.1-1.5,17.4c7.2,15,21.5,24.1,30.6,37.7c4.5,6.8,7.2,12.4,5.6,19.7c-1.6,7.3-14.7,16.9,1.3,21.4
			c1.8,3.1,7.4,4,14.4,4c5.6,0,12.1-0.6,18.2-1.2s11.5-1.2,15.2-1.2c0.5,0,1,0,1.5,0c5.2,8.3,22.7,25.7,3.5,27.2H222
			c-1.9,0-5-4.3-7.2-4.8c-0.5-0.1-0.9-0.1-1.4-0.1c-1.4,0.1-2.7,0.4-4,0.9s-2.6,0.8-3.9,0.9c-0.5,0-1-0.1-1.5-0.2
			c-6.1-1.3-10.7-7.3-16.6-9.3c-1.7-0.6-3.4-0.9-5.2-0.9c-13.1,0-11.8,22-12.6,35.5c-0.8,13.8,11,31.1,25.1,36.4
			c2,0.8,4.2,1.2,6.4,1.3c13.2,0,19.9-17.5,32.3-24.3c1.8-1,3.9-1.5,6-1.5c19,0,45.9,37.9,59.5,45.6c0.3,0.1,0.7,0.1,1.1,0.1
			c5.4,0,28.1-3.6,31.8-6.6c10.6-8.5,3.1-26.1-0.5-37.6c-9.7-31.3-20.3-62.4-29.9-94.1c-4.6-15.5-7.7-31.4-9.2-47.5
			c9.4,0.2,19.6,10.5,27.3,16c5.2,3.7,11.7,6.7,16.8,10.4c2.4,1.7,5.6,2.7,7.8,4.7c2.1,2,0.3,6.8,1.5,7.7c3.8,3,8.3,3.7,13,3.7
			c2.1,0,4.2-0.1,6.4-0.3s4.3-0.3,6.5-0.3c2.5,0,5,0.2,7.5,0.8c14.5,3.6,16.5,7.6,20.7,20.1c2.5,7.5,3.7,8.3,3.4,16.7
			c-0.2,6.1-4.4,12.6,3.8,15.6c1.7,11.6-9.6,15.1,3.6,21.1c2.4,1.2,5,1.9,7.6,2c6.1,0,8.8-5.1,7.9-13.7c4.9-0.9,9.5-1.5,13.1-4.2
			c9.6-7.3,6.7-39.9,24.7-42.9c0.7-0.1,1.3-0.2,2-0.2c5.1,0,3.3,4.6,8,5.8c1.3,0.3,2.6,0.4,3.9,0.4c1.6,0,3.3-0.1,4.9-0.3
			s2.9-0.3,4-0.3h0.1c0.3,0,0.5,0,0.8,0c0.5,0,1,0,1.5,0s1,0,1.6,0c7.5,0,17.4,0.6,16.5,10.6c-2.6,0.4-5.2,0.6-7.8,0.6
			c-3.4,0-6.7-0.3-9.9-0.6s-6.5-0.6-9.8-0.6c-2.8,0-5.5,0.2-8.2,0.8c-13.5,2.8-14.9,12.8-17.5,26.7c-2,10.6,5,18.2-1.6,27.7
			c-6.9,9.9-19.2,11-26.1,22.1c-6.6,10.6-10.1,25.7-11.1,35.7c-0.2,1.7-3.9,0.6-1.4,1.4c23.5-2.8,26.5-37.3,51-37.3c0.3,0,0.7,0,1,0
			c-0.1,14.6-24.7,29.3-34.5,38.6c-7.1,6.8-25.3,17.8-26.6,27.8c6,4,13,11.7,18.8,14.7c4,2,6.1,2.9,7.7,2.9c2.8,0,3.9-2.6,9.6-6.3
			c10.2-6.7,24.1-15.6,36.3-15.6c5.4-0.1,10.5,2,14.2,5.9c8.4,8.6,12.9,31.1,25.7,35.8c1.3,0.5,2.7,0.7,4.1,0.6
			c14.3,0,41.1-18.4,53.1-21.8c30.1-8.6,6.4-21.9,6.7-42.7c0.2-0.3,1.6-2.3,3-3.8c18.2,13.2,15.5,56.8,38.6,56.8
			c0.8,0,1.7-0.1,2.5-0.2c12.6-1.6,25.2-11.1,34.4-19.8c12.3-11.6,9.3-21.9,8.4-39.8c-0.9-18.7-0.5-37.7-1.3-56.1
			c-0.4-8,0.4-14-2.6-20.8c-2-4.5-7.4-8.3-9.1-14.3c-8-28.9-15.5-57.1-40.6-78.2c-4.4-3.7-8-5.2-11-5.2c-9,0-13.1,13.4-17.1,25
			c-4.7,13.3-7.2,22.6-17.7,22.6c-3.8-0.2-7.6-1-11.1-2.4c-4.8,9.1,5.9,12.3,3.5,20.8c-1.3,4.6-3.2,6.4-5.2,6.4
			c-3.9,0-8.4-6.3-10.5-10.8c-5.4-11.2-7.5-40.6-24.9-41c-2-9.5-9.1-24.6-6.9-34.3c13.9-6.1,24-8.3,22.7-25.4
			c5.7-3.8,12.6-4.5,17.1-9.6c4-4.4,7.1-13.9,4.7-20.7c-2.9-7.8-8.8-8-13.8-13.7c1-0.4,2.1-0.6,3.1-0.6c1.2,0,2.4,0.2,3.5,0.5
			s2.1,0.4,3.2,0.5c1.8,0,3.5-0.8,4.8-2.1c-6.3-4.8-12.2-8.6-7-17.1c-1.1-0.5-2.3-0.8-3.6-0.8c-1.7,0.1-3.5,0.4-5.1,1.1
			c-1.4,0.6-2.9,0.9-4.4,1.1c-0.4,0-0.9-0.1-1.3-0.2c-7.8-2.6-4.2-5.4-9.1-10.8c-6.8-7.7-17.3-12.3-16.2-23.8
			c1.2-0.1,2.4-0.1,3.7-0.1c6.1,0.2,12.3,0.8,18.3,1.7c6.3,1,12.7,1.5,19.1,1.7c7.1,0,13.6-1.2,18.5-4.8
			c8.2-6.2,28.2-37.8,25.5-46.5c-0.5,0.1-0.9,0.1-1.4,0.1c-13.4,0-0.3-33.5-16.7-39.4c-4.5-1.4-9.1-2.1-13.8-2
			c-16,0-36.4,5.6-45.3,13c-1.2-0.3-2.4-0.5-3.6-0.4c-15.6,0-50,18.6-63.2,24.4c-39.8,17.5-82.5,26.3-126,30.7
			c-18.6,1.9-40.2,7-59.5,7c-3.1,0-6.3-0.1-9.4-0.5c0-16.3,5.1-33.1,5.1-50.6c-14.8-12.1-20.5-24.5-26.4-43.8
			c-3.2-10.5-8.7-22.8-8.4-33.7c0.4-13.8,1.9-8.4,13.4-10.7c37.1-7.4,28.4-79.5,41.1-108.5c11.9-27.2,49-48.5,77.8-53.1
			c13-2.1,29-17.9,39.6-29.4c12.3-13.3,5.9-35.4,9.9-52.1c-6.9-2.5-27.4-7-39.4-7c-1.6,0-3.2,0.1-4.7,0.3
			c-9.1,1.5-15.1,20.9-20.4,20.9c-0.9,0-1.8-0.6-2.6-1.9c-2.6-4,1.4-14.9,1.7-20.4c0.4-9.3-1.5-12.4-4.5-18.9
			c-5.7-12.2-10.1-22.2-21.5-25.2c-11.3-3-32.4-0.8-40.8-13.4c-10.3-3.2-20.5-6.2-30.1-6.2c-8.7-0.2-17.1,2.9-23.7,8.6
			c-14.2,12.2-21.6,28.6-39.8,32.4c-8,8.3-24.2,8.6-34.8,13c-10,4.2-19.4,17.2-26.7,19c-9.1-0.1-18.8-3.3-28.4-7.7s-17.1-5.8-27.7-7
			c-15-1.6-21.7,0-15-16.6C55.7,38.6,87,3.9,84.9,0"/>
	</g>
	<path class="st2" d="M1378.6,947.5c-5.2,1.9-13.8,4-16,8.5v1.1c5.7,7.2,2,25.9,11.5,25.9c2.7,0,6.5-1.5,11.8-5.2
		c6-4.2,12.5-9.4,12.6-17.2c0.1-6.3-2.6-7.8-6.7-7.8c-2.8,0.1-5.7,0.5-8.5,0.9C1382.5,950.9,1380.2,949.9,1378.6,947.5"/>
	<path class="st5" d="M1281.8,743.6c-15.6,5.7-32.6-14.1-42.5-24.4c-7-7.3-24.6-43.5-31.8-44.7c-9.7-17.9-38.5,0.3-52.9-5.1
		c-10.8-4-4-16.4-2.1-26.4c2.6-13.5,7.6-28.9,8.2-42.8c0.5-12.7-3.9-24.3-9.2-35.5c-9.5-20.3-17.6-36-20.4-58.5
		c-2.3-19-5-32.6-15.2-48.3c-5,3.2-9.4,8.4-16.1,8c-0.4-7.4,4.3-15.3,6.2-22.2c2.2-8,2.8-16.3,1.9-24.5c-1.6-16-4.4-30.3-0.3-46.7
		c3.6-14.1,9.4-25.8,17.3-37.9c8.5-13.1,14.4-21.2,11.4-36.4c-1.8-9.4-6.2-27.8-14.2-32.5c15-10.8,23.9-25.4,42.7-30.5
		c18.5-5.1,38.3-8.4,55.9-14.3c11.9-4,21.6-4.3,33.6-4c17.1,0.4,27.3-6.8,44.5-1.8c5.6,1.6,14.6,7.1,19.5,4.3
		c6.5-3.6,4.2-15.4,12.5-8.6c9.7,7.9,8.3,37.8,7.1,49.2c-1.6,15.4-4.6,29.6-15,41.8c-13.4,15.8-27.5,32.4-33,53.4
		c3,7.8-16.1,37.7-19.3,47.3c-4.8,13.9-7.8,28.4-9.1,43c-0.9,11,1.5,27-3,36.9c-5.4,11.9-19.7,7.1-30,8c-15.7,1.4-24.3,8-14.8,24.5
		c7.1,12.3,14.8,32.7,22.5,47.3c4.5,8.6,15.5,36.7,27.3,22.8c13,9.5-15.7,43.7-7.7,57.1c2.8,4.7,15.8,7.8,20.9,11.4
		c7.7,5.4,13,9.9,12.2,20.1c-0.6,7.6-7.8,19.8-11.2,27.4c-5.1,11.4-3.2,16.4,0.8,27.8c3.6,10,3.9,17.7,11.4,26.7
		c6.1,7.4,13.1,13,20.3,19.3c7.8,6.8,17.4,11.8,24.4,18.8c8.6,8.6,16.5-11.9,19.3-19.9c4-11.3,10.4-16.9,22.5-20.8
		c12.8-4.2,25-4.5,38-10.9c15.2-7.5,28.8-17,44.3-23.6c7.1-3,14.6-7.5,21.9-9.1c6-1.3,14.2,0.6,18.6-4.4c-3.1-3.8-6.9-8.1-9.9-11.1
		c2-11,16-13.2,17.1-26.2c0.6-7,1-14.8,1.3-21.4c0.2-5.7-4.3-13.8-2.3-18.3"/>
	<path class="st5" d="M1136.4,527c13.2-7.1,31.7,16.3,40.7,24.4c13.2,11.7,32.6,21.7,48.4,30.4c9.8,5.4,17.1,7,26.8,6.2"/>
	<path class="st5" d="M1358.1,764c8.8-18.4,26.3-18.5,42.2-25.3c8.7-3.7,15.8-10.8,22.2-17c9.7-9.5,21.2-16.8,34-21.5
		c10.1-3.9,22.3-7.7,32.8-7.4"/>
	<text transform="matrix(1 0 0 1 1577.62 457.813)" class="st6 st7">Rugely</text>
	<text transform="matrix(0.9404 0.34 -0.34 0.9404 1635.2799 268.533)" class="st6 st8">A51</text>
	<text transform="matrix(0.6991 0.7151 -0.7151 0.6991 1485.882 165.8079)" class="st6 st9">A51</text>
	<text transform="matrix(1 0 0 1 1367.321 89.276)" class="st6 st10">Little</text>
	<text transform="matrix(1 0 0 1 1355.67 105.276)" class="st6 st10">Haywood</text>
	<text transform="matrix(0.9774 -0.2115 0.2115 0.9774 1334.132 567.8787)" class="st6 st11">Kingsley Wood Road</text>
	<text transform="matrix(0.9939 -0.11 0.11 0.9939 1297.2789 628.0444)" class="st6 st12">Penkridge Bank Road</text>
	<text transform="matrix(0.8277 -0.5611 0.5611 0.8277 1337.7867 714.2917)" class="st6 st13">Birches Valley Road</text>
	<text transform="matrix(0.9302 0.3671 -0.3671 0.9302 1350.4316 804.9982)" class="st6 st14">Marquis Drive</text>
	<text transform="matrix(0.3345 0.9424 -0.9424 0.3345 1018.006 423.1028)" class="st6 st15">Chase Road</text>
	<text transform="matrix(0.3345 0.9424 -0.9424 0.3345 1047.1154 726.8917)" class="st6 st15">Camp Road</text>
	<path class="st16" d="M1246.7,55.6c9.1,7.8,31.1,26.1,33.2,38.8c2.8,17.6-11.3,7.9-20.2,12.2c-26.3,13,38.1,57.7,49.9,63.1
		c12.8,5.8,31.2,12.2,45.4,11c12.2-1,20.5-9.3,31.1-13.5c6.7-2.6,10-2.1,9.7-11.1c-0.3-7.2-5.8-11,5.7-11.7
		c9.9-0.6,33.2,13,39.9,20.4c11.3,12.3,4.8,32.1,19.2,39.2c13.9,6.9,22.7,19.6,38.3,22.1c10.1,1.6,16.4-4,23.2-9.5
		c7.8-6.2,17.3-11.9,27.8-11.9c12.7,0,23.4,2.6,33.8,10.2c6.5,4.8,11.7,12.1,19.6,14.9c12.9,4.5,61.6,17.3,75.3,18.1
		c45.2,4.1,37.1-33.5,106-43.1"/>
	<path class="st17" d="M841.6,122.1c72.2-12.2,200,89,246.1,54.4c18.7-14,21.5-41.5,39.9-54.4c19.1-13.4,41.1-0.6,59.4,9.6
		c41.2,22.8,87.2,33.3,130.8,50.9c13.7,5.5,32.1,3.4,46.7,6.3c15,3,26.6,12,41,17.2c15.2,5.5,31.2,7,45.9,13.9
		c13.9,6.5,25.3,11.6,40.8,12.3c14.2,0.7,26.8-1.2,39.1,5.3c20.1,10.6,42.3,18.2,64.2,25.6c28.9,9.8,169.3,80.9,193.6,99.2"/>
	<path class="st17" d="M1520.6,232.3c-7.5-47.4-61.2-69.2-86.6-106.7c-15.3-22.5-25.2-50.7-30.6-77.1"/>
	<path class="st18" d="M1280.7,55.2c49.2,38.3,110.3,78.8,171.2,92.5"/>
	<path class="st18" d="M1344.2,1044.7c6.9-15.3,18.6-28.9,35.1-40.1c26.2-18,50.5-36.7,75.6-56c20.6-16,43.2-30.9,63.4-47.8
		c18.2-15.3,25.5-35.7,34.1-57.6c6.6-16.7,13.1-34.6,22.2-50.2c7.9-13.4,23.4-35.6,39.1-39.9c-1.1,0.7,0.3-2.9,0.1-1.3
		c21.5-7.3,161.1-122.9,175.7-140.5"/>
	<path class="st18" d="M841.9,1013c64.9-25.8,130.8-110.7,141.2-126.8c15-23.2,36.9-41.4,63.1-50.2c32.5-10.8,61.5-28.7,88.7-49.7
		c24.9-19.2,57.6-40.4,75.6-66c16-22.7,24.6-56.6,41.7-76.1c25.3-4.2,56.3-12.4,84.7-14c17.5-1,35-4.9,52.4-8
		c17.5-3.1,29.7-9.6,45.9-15.9c30.1-11.9,61-23.9,91.6-34.5c28-9.7,58-10.9,85.4-18.7c12.4-3.5,18.1-12.4,26.6-21.7
		c12.2-13.2,128.4-57.7,144.6-64.8"/>
	<path class="st18" d="M1451.9,598.8c1.2-4.7-3.6-14.5-4.2-20.7c-1.2-11.6,1-25,2.1-36.5c1.4-14.5-3.6-45.2,8.4-54.6
		c11.1-8.6,29.9-7.5,42.1-14.2c10.2-5.6,12.8-16.1,20.3-24c9.1-9.6,23.6-12.7,34.6-19.5c11.6-7.1,20.9-16.3,30.9-25.2
		c25.2-22.1,79.6-38.9,122.1-87.4"/>
	<path class="st18" d="M1325.1,574.5c5.3,2.9,19.2-2.6,25.9-4.2c11.8-2.9,23.5-6.5,35.1-9.5c20.6-5.4,43.3-9,62.6-15.8"/>
	<path class="st18" d="M1568.1,420.3c-2.6,9.6-7.1,18.9-10.4,28.7c-4.4,12.9-7.8,17.1,3.5,24.2c18.2,11.3,38.1,20.5,59.7,19.6
		c16.2-0.7,153.6-23.3,168.6-28.9"/>
	<path class="st18" d="M1553.3,464.7c-0.3,18.8-18,34.2-16.9,53.4c0.5,8.5,1.9,17.4,2.1,26.4c0.1,5.2,1.6,22.4,3.2,20.6"/>
	<path class="st18" d="M839.8,389.1c19.7,8.9,137.9,155,150.2,175.1c7.3,12,9.2,26.2,13.2,40c5,17.2,10.5,34.1,15.5,51.2
		c17.4,60.5,36.1,122.4,64.8,179c18,35.6,36.9,72.2,52.6,107.8"/>
	<path class="st18" d="M994.5,571.4c31.3-0.6,46.6-36.4,42.5-63.4c-5.4-36.1-21.4-73.7-38.5-104.5c-7.2-12.9-30.7,1.2-45.1,0
		c-3.7-0.3-53.4-20.4-70.5-41.1C856,330,840.5,277,838.4,270.9"/>
	<path class="st18" d="M1211,720.3c16.2,6.6,32.4,17.3,47.5,27.4c14.8,9.9,28,20.2,34.8,37.5c7.2,18.6,10.7,42.2,15.9,62.9
		c9.9,39.1,18.6,78.7,27.5,118.3c5.3,23.3,14,37.1,36.9,40.1"/>
	<path class="st18" d="M1109.6,1046.8c6.6-15.9,8.5-39.2,13.2-57.6c5.1-19.7,10.5-36,16.4-55.5c7.5-24.9,11.1-54.6,22.4-78.2
		c10.9-22.6,34.6-37.9,54.4-52.8c12.2-9.2,23.5-18,34.1-28.6c5.5-5.5,12.7-14.7,18-17.9c1.4-8.2,14-11.3,20.1-16.6
		c6-5.3,11.6-12.1,17.1-17.3c12.8-12.1,27.1-23.5,42.3-32.5c34.7-20.4,67.8-37,103.3-54.4c12.7-6.2,24-12.6,31.3-24.6
		c4.5-7.5,6.2-20.7,9.1-25.3"/>
	<path class="st18" d="M1136,940.1c12.1,24.3,38.3,38.9,59.2,54.7c13.8,10.4,29,18.6,42.3,29.9c17.3,14.7,35.6,19,56,28.5"/>
	<text transform="matrix(0.8757 -0.4828 0.4828 0.8757 1621.2501 739.3185)" class="st6 st19">A460</text>
	<text transform="matrix(0.7406 -0.672 0.672 0.7406 1366.6991 1031.0261)" class="st6 st20">A460</text>
	<g transform="translate(1401.558 776.584)">
		<line class="st21" x1="7.4" y1="0.3" x2="7.4" y2="21.8"/>
		<path class="st21" d="M0,7.4c3.5,0,7-4.2,7.6-7.4c0.3,3.6,4.5,7.1,8,7"/>
		<path class="st21" d="M0,14.2c3.5-0.1,7-4.2,7.6-7.4c0.3,3.6,4.5,7.1,8,7"/>
	</g>
	<g transform="translate(1437.757 789.857)">
		<line class="st21" x1="7.4" y1="0.3" x2="7.4" y2="21.8"/>
		<path class="st21" d="M0,7.4c3.6,0,7-4.2,7.6-7.4c0.3,3.6,4.5,7.1,8,7"/>
		<path class="st21" d="M0,14.2c3.5-0.1,7-4.2,7.6-7.4c0.3,3.6,4.5,7.1,8,7"/>
	</g>
	<g transform="translate(1452.237 760.898)">
		<line class="st21" x1="7.4" y1="0.3" x2="7.4" y2="21.8"/>
		<path class="st21" d="M0,7.4c3.5,0,7-4.2,7.6-7.4c0.3,3.6,4.5,7.1,8,7"/>
		<path class="st21" d="M0,14.2c3.5-0.1,7-4.2,7.6-7.4c0.3,3.6,4.5,7.1,8,7"/>
	</g>
	<g transform="translate(1524.636 706.598)">
		<line class="st21" x1="7.4" y1="0.3" x2="7.4" y2="21.8"/>
		<path class="st21" d="M0,7.4c3.5,0,7-4.2,7.6-7.4c0.3,3.6,4.5,7.1,8,7"/>
		<path class="st21" d="M0,14.2c3.5-0.1,7-4.2,7.6-7.4c0.3,3.6,4.5,7.1,8,7"/>
	</g>
	<g transform="translate(1498.089 717.458)">
		<line class="st21" x1="7.4" y1="0.3" x2="7.4" y2="21.8"/>
		<path class="st21" d="M0,7.4c3.5,0,7-4.2,7.6-7.4c0.3,3.6,4.5,7.1,8,7"/>
		<path class="st21" d="M0,14.2c3.5-0.1,7-4.2,7.6-7.4c0.3,3.6,4.5,7.1,8,7"/>
	</g>
	<g transform="translate(1513.776 737.971)">
		<line class="st21" x1="7.4" y1="0.3" x2="7.4" y2="21.8"/>
		<path class="st21" d="M0,7.4c3.5,0,7-4.2,7.6-7.4c0.3,3.6,4.5,7.1,8,7"/>
		<path class="st21" d="M0,14.2c3.5-0.1,7-4.2,7.6-7.4c0.3,3.6,4.5,7.1,8,7"/>
	</g>
	<g transform="translate(1311.059 648.679)">
		<line class="st21" x1="7.4" y1="0.3" x2="7.4" y2="21.8"/>
		<path class="st21" d="M0,7.4c3.5,0,7-4.2,7.6-7.4c0.3,3.6,4.5,7.1,8,7"/>
		<path class="st21" d="M0,14.2c3.5-0.1,7-4.2,7.6-7.4c0.3,3.6,4.5,7.1,8,7"/>
	</g>
	<g transform="translate(1213.321 444.757)">
		<line class="st21" x1="7.4" y1="0.3" x2="7.4" y2="21.8"/>
		<path class="st21" d="M0,7.4c3.5,0,7-4.2,7.6-7.4c0.3,3.6,4.5,7.1,8,7"/>
		<path class="st21" d="M0,14.2c3.5-0.1,7-4.2,7.6-7.4c0.3,3.6,4.5,7.1,8,7"/>
	</g>
	<g transform="translate(1233.834 408.558)">
		<line class="st21" x1="7.4" y1="0.3" x2="7.4" y2="21.8"/>
		<path class="st21" d="M0,7.4c3.5,0,7-4.2,7.6-7.4c0.3,3.6,4.5,7.1,8,7"/>
		<path class="st21" d="M0,14.2c3.5-0.1,7-4.2,7.6-7.4c0.3,3.6,4.5,7.1,8,7"/>
	</g>
	<g transform="translate(1216.941 374.771)">
		<line class="st21" x1="7.4" y1="0.3" x2="7.4" y2="21.8"/>
		<path class="st21" d="M0,7.4c3.6,0,7-4.2,7.6-7.4c0.3,3.6,4.5,7.1,8,7"/>
		<path class="st21" d="M0,14.2c3.5-0.1,7-4.2,7.6-7.4c0.3,3.6,4.5,7.1,8,7"/>
	</g>
	<g transform="translate(1248.313 355.465)">
		<line class="st21" x1="7.4" y1="0.3" x2="7.4" y2="21.8"/>
		<path class="st21" d="M0,7.4c3.5,0,7-4.2,7.6-7.4c0.3,3.6,4.5,7.1,8,7"/>
		<path class="st21" d="M0,14.2c3.5-0.1,7-4.2,7.6-7.4c0.3,3.6,4.5,7.1,8,7"/>
	</g>
	<g transform="translate(1270.033 316.852)">
		<line class="st21" x1="7.4" y1="0.3" x2="7.4" y2="21.8"/>
		<path class="st21" d="M0,7.4c3.5,0,7-4.2,7.6-7.4c0.3,3.6,4.5,7.1,8,7"/>
		<path class="st21" d="M0,14.2c3.5-0.1,7-4.2,7.6-7.4c0.3,3.6,4.5,7.1,8,7"/>
	</g>
	<g transform="translate(1340.019 299.959)">
		<line class="st21" x1="7.4" y1="0.3" x2="7.4" y2="21.8"/>
		<path class="st21" d="M0,7.4c3.5,0,7-4.2,7.6-7.4c0.3,3.6,4.5,7.1,8,7"/>
		<path class="st21" d="M0,14.2c3.5-0.1,7-4.2,7.6-7.4c0.3,3.6,4.5,7.1,8,7"/>
	</g>
	<g transform="translate(1397.938 338.571)">
		<line class="st21" x1="7.4" y1="0.3" x2="7.4" y2="21.8"/>
		<path class="st21" d="M0,7.4c3.5,0,7-4.2,7.6-7.4c0.3,3.6,4.5,7.1,8,7"/>
		<path class="st21" d="M0,14.2c3.5-0.1,7-4.2,7.6-7.4c0.3,3.6,4.5,7.1,8,7"/>
	</g>
	<g transform="translate(1434.137 313.233)">
		<line class="st21" x1="7.4" y1="0.3" x2="7.4" y2="21.8"/>
		<path class="st21" d="M0,7.4c3.5,0,7-4.2,7.6-7.4c0.3,3.6,4.5,7.1,8,7"/>
		<path class="st21" d="M0,14.2c3.5-0.1,7-4.2,7.6-7.4c0.3,3.6,4.5,7.1,8,7"/>
	</g>
	<g transform="translate(1430.517 266.173)">
		<line class="st21" x1="7.4" y1="0.3" x2="7.4" y2="21.8"/>
		<path class="st21" d="M0,7.4c3.5,0,7-4.2,7.6-7.4c0.3,3.6,4.5,7.1,8,7"/>
		<path class="st21" d="M0,14.2c3.5-0.1,7-4.2,7.6-7.4c0.3,3.6,4.5,7.1,8,7"/>
	</g>
	<g transform="translate(1461.89 274.62)">
		<line class="st21" x1="7.4" y1="0.3" x2="7.4" y2="21.8"/>
		<path class="st21" d="M0,7.4c3.5,0,7-4.2,7.6-7.4c0.3,3.6,4.5,7.1,8,7"/>
		<path class="st21" d="M0,14.2c3.5-0.1,7-4.2,7.6-7.4c0.3,3.6,4.5,7.1,8,7"/>
	</g>
	<g transform="translate(1446.203 388.044)">
		<line class="st21" x1="7.4" y1="0.3" x2="7.4" y2="21.8"/>
		<path class="st21" d="M0,7.4c3.5,0,7-4.2,7.6-7.4c0.3,3.6,4.5,7.1,8,7"/>
		<path class="st21" d="M0,14.2c3.5-0.1,7-4.2,7.6-7.4c0.3,3.6,4.5,7.1,8,7"/>
	</g>
	<g transform="translate(1432.93 449.583)">
		<line class="st21" x1="7.4" y1="0.3" x2="7.4" y2="21.8"/>
		<path class="st21" d="M0,7.4c3.5,0,7-4.2,7.6-7.4c0.3,3.6,4.5,7.1,8,7"/>
		<path class="st21" d="M0,14.2c3.5-0.1,7-4.2,7.6-7.4c0.3,3.6,4.5,7.1,8,7"/>
	</g>
	<g transform="translate(1407.59 420.625)">
		<line class="st21" x1="7.4" y1="0.3" x2="7.4" y2="21.8"/>
		<path class="st21" d="M0,7.4c3.5,0,7-4.2,7.6-7.4c0.3,3.6,4.5,7.1,8,7"/>
		<path class="st21" d="M0,14.2c3.5-0.1,7-4.2,7.6-7.4c0.3,3.6,4.5,7.1,8,7"/>
	</g>
	<g transform="translate(1327.952 371.152)">
		<line class="st21" x1="7.4" y1="0.3" x2="7.4" y2="21.8"/>
		<path class="st21" d="M0,7.4c3.6,0,7-4.2,7.6-7.4c0.3,3.6,4.5,7.1,8,7"/>
		<path class="st21" d="M0,14.2c3.5-0.1,7-4.2,7.6-7.4c0.3,3.6,4.5,7.1,8,7"/>
	</g>
	<g transform="translate(1366.565 377.184)">
		<line class="st21" x1="7.4" y1="0.3" x2="7.4" y2="21.8"/>
		<path class="st21" d="M0,7.4c3.5,0,7-4.2,7.6-7.4c0.3,3.6,4.5,7.1,8,7"/>
		<path class="st21" d="M0,14.2c3.5-0.1,7-4.2,7.6-7.4c0.3,3.6,4.5,7.1,8,7"/>
	</g>
	<g transform="translate(1297.786 418.21)">
		<line class="st21" x1="7.4" y1="0.3" x2="7.4" y2="21.8"/>
		<path class="st21" d="M0,7.4c3.5,0,7-4.2,7.6-7.4c0.3,3.6,4.5,7.1,8,7"/>
		<path class="st21" d="M0,14.2c3.5-0.1,7-4.2,7.6-7.4c0.3,3.6,4.5,7.1,8,7"/>
	</g>
	<g transform="translate(1337.606 443.55)">
		<line class="st21" x1="7.4" y1="0.3" x2="7.4" y2="21.8"/>
		<path class="st21" d="M0,7.4c3.5,0,7-4.2,7.6-7.4c0.3,3.6,4.5,7.1,8,7"/>
		<path class="st21" d="M0,14.2c3.5-0.1,7-4.2,7.6-7.4c0.3,3.6,4.5,7.1,8,7"/>
	</g>
	<g transform="translate(1264 503.882)">
		<line class="st21" x1="7.4" y1="0.3" x2="7.4" y2="21.8"/>
		<path class="st21" d="M0,7.4c3.5,0,7-4.2,7.6-7.4c0.3,3.6,4.5,7.1,8,7"/>
		<path class="st21" d="M0,14.2c3.5-0.1,7-4.2,7.6-7.4c0.3,3.6,4.5,7.1,8,7"/>
	</g>
	<g transform="translate(1279.687 546.115)">
		<line class="st21" x1="7.4" y1="0.3" x2="7.4" y2="21.8"/>
		<path class="st21" d="M0,7.4c3.5,0,7-4.2,7.6-7.4c0.3,3.6,4.5,7.1,8,7"/>
		<path class="st21" d="M0,14.2c3.5-0.1,7-4.2,7.6-7.4c0.3,3.6,4.5,7.1,8,7"/>
	</g>
	<g transform="translate(1298.993 507.502)">
		<line class="st21" x1="7.4" y1="0.3" x2="7.4" y2="21.8"/>
		<path class="st21" d="M0,7.4c3.5,0,7-4.2,7.6-7.4c0.3,3.6,4.5,7.1,8,7"/>
		<path class="st21" d="M0,14.2c3.5-0.1,7-4.2,7.6-7.4c0.3,3.6,4.5,7.1,8,7"/>
	</g>
	<g transform="translate(1375.011 483.37)">
		<line class="st21" x1="7.4" y1="0.3" x2="7.4" y2="21.8"/>
		<path class="st21" d="M0,7.4c3.5,0,7-4.2,7.6-7.4c0.3,3.6,4.5,7.1,8,7"/>
		<path class="st21" d="M0,14.2c3.5-0.1,7-4.2,7.6-7.4c0.3,3.6,4.5,7.1,8,7"/>
	</g>
	<g transform="translate(1368.978 267.379)">
		<line class="st21" x1="7.4" y1="0.3" x2="7.4" y2="21.8"/>
		<path class="st21" d="M0,7.4c3.5,0,7-4.2,7.6-7.4c0.3,3.6,4.5,7.1,8,7"/>
		<path class="st21" d="M0,14.2c3.5-0.1,7-4.2,7.6-7.4c0.3,3.6,4.5,7.1,8,7"/>
	</g>
	<g transform="translate(1276.066 274.62)">
		<line class="st21" x1="7.4" y1="0.3" x2="7.4" y2="21.8"/>
		<path class="st21" d="M0,7.4c3.5,0,7-4.2,7.6-7.4c0.3,3.6,4.5,7.1,8,7"/>
		<path class="st21" d="M0,14.2c3.5-0.1,7-4.2,7.6-7.4c0.3,3.6,4.5,7.1,8,7"/>
	</g>
	<g transform="translate(1305.026 252.901)">
		<line class="st21" x1="7.4" y1="0.3" x2="7.4" y2="21.8"/>
		<path class="st21" d="M0,7.4c3.5,0,7-4.2,7.6-7.4c0.3,3.6,4.5,7.1,8,7"/>
		<path class="st21" d="M0,14.2c3.5-0.1,7-4.2,7.6-7.4c0.3,3.6,4.5,7.1,8,7"/>
	</g>
	<g transform="translate(1276.066 231.181)">
		<line class="st21" x1="7.4" y1="0.3" x2="7.4" y2="21.8"/>
		<path class="st21" d="M0,7.4c3.5,0,7-4.2,7.6-7.4c0.3,3.6,4.5,7.1,8,7"/>
		<path class="st21" d="M0,14.2c3.5-0.1,7-4.2,7.6-7.4c0.3,3.6,4.5,7.1,8,7"/>
	</g>
	<g transform="translate(1247.107 257.727)">
		<line class="st21" x1="7.4" y1="0.3" x2="7.4" y2="21.8"/>
		<path class="st21" d="M0,7.4c3.5,0,7-4.2,7.6-7.4c0.3,3.6,4.5,7.1,8,7"/>
		<path class="st21" d="M0,14.2c3.5-0.1,7-4.2,7.6-7.4c0.3,3.6,4.5,7.1,8,7"/>
	</g>
	<g transform="translate(1215.734 243.247)">
		<line class="st21" x1="7.4" y1="0.3" x2="7.4" y2="21.8"/>
		<path class="st21" d="M0,7.4c3.5,0,7-4.2,7.6-7.4c0.3,3.6,4.5,7.1,8,7"/>
		<path class="st21" d="M0,14.2c3.5-0.1,7-4.2,7.6-7.4c0.3,3.6,4.5,7.1,8,7"/>
	</g>
	<g transform="translate(1227.801 305.992)">
		<line class="st21" x1="7.4" y1="0.3" x2="7.4" y2="21.8"/>
		<path class="st21" d="M0,7.4c3.5,0,7-4.2,7.6-7.4c0.3,3.6,4.5,7.1,8,7"/>
		<path class="st21" d="M0,14.2c3.5-0.1,7-4.2,7.6-7.4c0.3,3.6,4.5,7.1,8,7"/>
	</g>
	<g transform="translate(1185.568 277.033)">
		<line class="st21" x1="7.4" y1="0.3" x2="7.4" y2="21.8"/>
		<path class="st21" d="M0,7.4c3.5,0,7-4.2,7.6-7.4c0.3,3.6,4.5,7.1,8,7"/>
		<path class="st21" d="M0,14.2c3.5-0.1,7-4.2,7.6-7.4c0.3,3.6,4.5,7.1,8,7"/>
	</g>
	<g transform="translate(1194.015 331.332)">
		<line class="st21" x1="7.4" y1="0.3" x2="7.4" y2="21.8"/>
		<path class="st21" d="M0,7.4c3.5,0,7-4.2,7.6-7.4c0.3,3.6,4.5,7.1,8,7"/>
		<path class="st21" d="M0,14.2c3.5-0.1,7-4.2,7.6-7.4c0.3,3.6,4.5,7.1,8,7"/>
	</g>
	<g transform="translate(1349.671 652.299)">
		<line class="st21" x1="7.4" y1="0.3" x2="7.4" y2="21.8"/>
		<path class="st21" d="M0,7.4c3.5,0,7-4.2,7.6-7.4c0.3,3.6,4.5,7.1,8,7"/>
		<path class="st21" d="M0,14.2c3.5-0.1,7-4.2,7.6-7.4c0.3,3.6,4.5,7.1,8,7"/>
	</g>
	<g transform="translate(1381.045 632.993)">
		<line class="st21" x1="7.4" y1="0.3" x2="7.4" y2="21.8"/>
		<path class="st21" d="M0,7.4c3.5,0,7-4.2,7.6-7.4c0.3,3.6,4.5,7.1,8,7"/>
		<path class="st21" d="M0,14.2c3.5-0.1,7-4.2,7.6-7.4c0.3,3.6,4.5,7.1,8,7"/>
	</g>
	<g transform="translate(1317.092 728.318)">
		<line class="st21" x1="7.4" y1="0.3" x2="7.4" y2="21.8"/>
		<path class="st21" d="M0,7.4c3.5,0,7-4.2,7.6-7.4c0.3,3.6,4.5,7.1,8,7"/>
		<path class="st21" d="M0,14.2c3.5-0.1,7-4.2,7.6-7.4c0.3,3.6,4.5,7.1,8,7"/>
	</g>
	<g transform="translate(1355.705 718.665)">
		<line class="st21" x1="7.4" y1="0.3" x2="7.4" y2="21.8"/>
		<path class="st21" d="M0,7.4c3.5,0,7-4.2,7.6-7.4c0.3,3.6,4.5,7.1,8,7"/>
		<path class="st21" d="M0,14.2c3.5-0.1,7-4.2,7.6-7.4c0.3,3.6,4.5,7.1,8,7"/>
	</g>
	<g transform="translate(1440.17 652.299)">
		<line class="st21" x1="7.4" y1="0.3" x2="7.4" y2="21.8"/>
		<path class="st21" d="M0,7.4c3.5,0,7-4.2,7.6-7.4c0.3,3.6,4.5,7.1,8,7"/>
		<path class="st21" d="M0,14.2c3.5-0.1,7-4.2,7.6-7.4c0.3,3.6,4.5,7.1,8,7"/>
	</g>
	<g transform="translate(1518.602 600.414)">
		<line class="st21" x1="7.4" y1="0.3" x2="7.4" y2="21.8"/>
		<path class="st21" d="M0,7.4c3.5,0,7-4.2,7.6-7.4c0.3,3.6,4.5,7.1,8,7"/>
		<path class="st21" d="M0,14.2c3.5-0.1,7-4.2,7.6-7.4c0.3,3.6,4.5,7.1,8,7"/>
	</g>
	<g transform="translate(1548.768 577.487)">
		<line class="st21" x1="7.4" y1="0.3" x2="7.4" y2="21.8"/>
		<path class="st21" d="M0,7.4c3.5,0,7-4.2,7.6-7.4c0.3,3.6,4.5,7.1,8,7"/>
		<path class="st21" d="M0,14.2c3.5-0.1,7-4.2,7.6-7.4c0.3,3.6,4.5,7.1,8,7"/>
	</g>
	<g transform="translate(1558.421 871.909)">
		<line class="st21" x1="7.4" y1="0.3" x2="7.4" y2="21.8"/>
		<path class="st21" d="M0,7.4c3.5,0,7-4.2,7.6-7.4c0.3,3.6,4.5,7.1,8,7"/>
		<path class="st21" d="M0,14.2c3.5-0.1,7-4.2,7.6-7.4c0.3,3.6,4.5,7.1,8,7"/>
	</g>
	<g transform="translate(1533.082 902.075)">
		<line class="st21" x1="7.4" y1="0.3" x2="7.4" y2="21.8"/>
		<path class="st21" d="M0,7.4c3.5,0,7-4.2,7.6-7.4c0.3,3.6,4.5,7.1,8,7"/>
		<path class="st21" d="M0,14.2c3.5-0.1,7-4.2,7.6-7.4c0.3,3.6,4.5,7.1,8,7"/>
	</g>
	<g transform="translate(1566.867 911.729)">
		<line class="st21" x1="7.4" y1="0.3" x2="7.4" y2="21.8"/>
		<path class="st21" d="M0,7.4c3.6,0,7-4.2,7.6-7.4c0.3,3.6,4.5,7.1,8,7"/>
		<path class="st21" d="M0,14.2c3.5-0.1,7-4.2,7.6-7.4c0.3,3.6,4.5,7.1,8,7"/>
	</g>
	<g transform="translate(1606.687 934.654)">
		<line class="st21" x1="7.4" y1="0.3" x2="7.4" y2="21.8"/>
		<path class="st21" d="M0,7.4c3.5,0,7-4.2,7.6-7.4c0.3,3.6,4.5,7.1,8,7"/>
		<path class="st21" d="M0,14.2c3.5-0.1,7-4.2,7.6-7.4c0.3,3.6,4.5,7.1,8,7"/>
	</g>
	<g transform="translate(1625.994 886.389)">
		<line class="st21" x1="7.4" y1="0.3" x2="7.4" y2="21.8"/>
		<path class="st21" d="M0,7.4c3.5,0,7-4.2,7.6-7.4c0.3,3.6,4.5,7.1,8,7"/>
		<path class="st21" d="M0,14.2c3.5-0.1,7-4.2,7.6-7.4c0.3,3.6,4.5,7.1,8,7"/>
	</g>
	<g transform="translate(1599.447 847.776)">
		<line class="st21" x1="7.4" y1="0.3" x2="7.4" y2="21.8"/>
		<path class="st21" d="M0,7.4c3.5,0,7-4.2,7.6-7.4c0.3,3.6,4.5,7.1,8,7"/>
		<path class="st21" d="M0,14.2c3.5-0.1,7-4.2,7.6-7.4c0.3,3.6,4.5,7.1,8,7"/>
	</g>
	<g transform="translate(1546.355 963.614)">
		<line class="st21" x1="7.4" y1="0.3" x2="7.4" y2="21.8"/>
		<path class="st21" d="M0,7.4c3.5,0,7-4.2,7.6-7.4c0.3,3.6,4.5,7.1,8,7"/>
		<path class="st21" d="M0,14.2c3.5-0.1,7-4.2,7.6-7.4c0.3,3.6,4.5,7.1,8,7"/>
	</g>
	<g transform="translate(1514.982 940.688)">
		<line class="st21" x1="7.4" y1="0.3" x2="7.4" y2="21.8"/>
		<path class="st21" d="M0,7.4c3.5,0,7-4.2,7.6-7.4c0.3,3.6,4.5,7.1,8,7"/>
		<path class="st21" d="M0,14.2c3.5-0.1,7-4.2,7.6-7.4c0.3,3.6,4.5,7.1,8,7"/>
	</g>
	<g transform="translate(1475.163 947.927)">
		<line class="st21" x1="7.4" y1="0.3" x2="7.4" y2="21.8"/>
		<path class="st21" d="M0,7.4c3.5,0,7-4.2,7.6-7.4c0.3,3.6,4.5,7.1,8,7"/>
		<path class="st21" d="M0,14.2c3.5-0.1,7-4.2,7.6-7.4c0.3,3.6,4.5,7.1,8,7"/>
	</g>
	<g transform="translate(1294.167 903.282)">
		<line class="st21" x1="7.4" y1="0.3" x2="7.4" y2="21.8"/>
		<path class="st21" d="M0,7.4c3.5,0,7-4.2,7.6-7.4c0.3,3.6,4.5,7.1,8,7"/>
		<path class="st21" d="M0,14.2c3.5-0.1,7-4.2,7.6-7.4c0.3,3.6,4.5,7.1,8,7"/>
	</g>
	<g transform="translate(1254.347 883.976)">
		<line class="st21" x1="7.4" y1="0.3" x2="7.4" y2="21.8"/>
		<path class="st21" d="M0,7.4c3.6,0,7-4.2,7.6-7.4c0.3,3.6,4.5,7.1,8,7"/>
		<path class="st21" d="M0,14.2c3.5-0.1,7-4.2,7.6-7.4c0.3,3.6,4.5,7.1,8,7"/>
	</g>
	<g transform="translate(1279.687 840.537)">
		<line class="st21" x1="7.4" y1="0.3" x2="7.4" y2="21.8"/>
		<path class="st21" d="M0,7.4c3.5,0,7-4.2,7.6-7.4c0.3,3.6,4.5,7.1,8,7"/>
		<path class="st21" d="M0,14.2c3.5-0.1,7-4.2,7.6-7.4c0.3,3.6,4.5,7.1,8,7"/>
	</g>
	<g transform="translate(1254.347 818.816)">
		<line class="st21" x1="7.4" y1="0.3" x2="7.4" y2="21.8"/>
		<path class="st21" d="M0,7.4c3.6,0,7-4.2,7.6-7.4c0.3,3.6,4.5,7.1,8,7"/>
		<path class="st21" d="M0,14.2c3.5-0.1,7-4.2,7.6-7.4c0.3,3.6,4.5,7.1,8,7"/>
	</g>
	<g transform="translate(1221.768 751.244)">
		<line class="st21" x1="7.4" y1="0.3" x2="7.4" y2="21.8"/>
		<path class="st21" d="M0,7.4c3.5,0,7-4.2,7.6-7.4c0.3,3.6,4.5,7.1,8,7"/>
		<path class="st21" d="M0,14.2c3.5-0.1,7-4.2,7.6-7.4c0.3,3.6,4.5,7.1,8,7"/>
	</g>
	<g transform="translate(1183.155 577.487)">
		<line class="st21" x1="7.4" y1="0.3" x2="7.4" y2="21.8"/>
		<path class="st21" d="M0,7.4c3.5,0,7-4.2,7.6-7.4c0.3,3.6,4.5,7.1,8,7"/>
		<path class="st21" d="M0,14.2c3.5-0.1,7-4.2,7.6-7.4c0.3,3.6,4.5,7.1,8,7"/>
	</g>
	<g transform="translate(1220.56 600.414)">
		<line class="st21" x1="7.4" y1="0.3" x2="7.4" y2="21.8"/>
		<path class="st21" d="M0,7.4c3.5,0,7-4.2,7.6-7.4c0.3,3.6,4.5,7.1,8,7"/>
		<path class="st21" d="M0,14.2c3.5-0.1,7-4.2,7.6-7.4c0.3,3.6,4.5,7.1,8,7"/>
	</g>
	<g transform="translate(1201.254 628.167)">
		<line class="st21" x1="7.4" y1="0.3" x2="7.4" y2="21.8"/>
		<path class="st21" d="M0,7.4c3.5,0,7-4.2,7.6-7.4c0.3,3.6,4.5,7.1,8,7"/>
		<path class="st21" d="M0,14.2c3.5-0.1,7-4.2,7.6-7.4c0.3,3.6,4.5,7.1,8,7"/>
	</g>
	<g transform="translate(1165.056 688.499)">
		<line class="st21" x1="7.4" y1="0.3" x2="7.4" y2="21.8"/>
		<path class="st21" d="M0,7.4c3.5,0,7-4.2,7.6-7.4c0.3,3.6,4.5,7.1,8,7"/>
		<path class="st21" d="M0,14.2c3.5-0.1,7-4.2,7.6-7.4c0.3,3.6,4.5,7.1,8,7"/>
	</g>
	<g transform="translate(1028.704 797.096)">
		<line class="st21" x1="7.4" y1="0.3" x2="7.4" y2="21.8"/>
		<path class="st21" d="M0,7.5C3.5,7.4,7,3.2,7.6,0c0.3,3.6,4.5,7.1,8,7"/>
		<path class="st21" d="M0,14.2c3.5-0.1,7-4.2,7.6-7.4c0.3,3.6,4.5,7.1,8,7"/>
	</g>
	<g transform="translate(1000.951 807.956)">
		<line class="st21" x1="7.4" y1="0.3" x2="7.4" y2="21.8"/>
		<path class="st21" d="M0,7.4c3.5,0,7-4.2,7.6-7.4c0.3,3.6,4.5,7.1,8,7"/>
		<path class="st21" d="M0,14.2c3.5-0.1,7-4.2,7.6-7.4c0.3,3.6,4.5,7.1,8,7"/>
	</g>
	<g transform="translate(1022.672 758.484)">
		<line class="st21" x1="7.4" y1="0.3" x2="7.4" y2="21.8"/>
		<path class="st21" d="M0,7.4c3.5,0,7-4.2,7.6-7.4c0.3,3.6,4.5,7.1,8,7"/>
		<path class="st21" d="M0,14.2c3.5-0.1,7-4.2,7.6-7.4c0.3,3.6,4.5,7.1,8,7"/>
	</g>
	<g transform="translate(993.712 763.311)">
		<line class="st21" x1="7.4" y1="0.3" x2="7.4" y2="21.8"/>
		<path class="st21" d="M0,7.4c3.5,0,7-4.2,7.6-7.4c0.3,3.6,4.5,7.1,8,7"/>
		<path class="st21" d="M0,14.2c3.5-0.1,7-4.2,7.6-7.4c0.3,3.6,4.5,7.1,8,7"/>
	</g>
	<g transform="translate(976.818 730.732)">
		<line class="st21" x1="7.4" y1="0.3" x2="7.4" y2="21.8"/>
		<path class="st21" d="M0,7.4c3.6,0,7-4.2,7.6-7.4c0.3,3.6,4.5,7.1,8,7"/>
		<path class="st21" d="M0,14.2c3.6-0.1,7-4.2,7.6-7.4c0.3,3.6,4.5,7.1,8,7"/>
	</g>
	<g transform="translate(998.538 696.946)">
		<line class="st21" x1="7.4" y1="0.3" x2="7.4" y2="21.8"/>
		<path class="st21" d="M0,7.4c3.5,0,7-4.2,7.6-7.4c0.3,3.6,4.5,7.1,8,7"/>
		<path class="st21" d="M0,14.2c3.5-0.1,7-4.2,7.6-7.4c0.3,3.6,4.5,7.1,8,7"/>
	</g>
	<g transform="translate(986.472 659.539)">
		<line class="st21" x1="7.4" y1="0.3" x2="7.4" y2="21.8"/>
		<path class="st21" d="M0,7.4c3.5,0,7-4.2,7.6-7.4c0.3,3.6,4.5,7.1,8,7"/>
		<path class="st21" d="M0,14.2c3.5-0.1,7-4.2,7.6-7.4c0.3,3.6,4.5,7.1,8,7"/>
	</g>
	<g transform="translate(1191.601 693.325)">
		<line class="st21" x1="7.4" y1="0.3" x2="7.4" y2="21.8"/>
		<path class="st21" d="M0,7.4c3.5,0,7-4.2,7.6-7.4c0.3,3.6,4.5,7.1,8,7"/>
		<path class="st21" d="M0,14.2c3.5-0.1,7-4.2,7.6-7.4c0.3,3.6,4.5,7.1,8,7"/>
	</g>
	<g transform="translate(1197.635 781.411)">
		<line class="st21" x1="7.4" y1="0.3" x2="7.4" y2="21.8"/>
		<path class="st21" d="M0,7.4c3.5,0,7-4.2,7.6-7.4c0.3,3.6,4.5,7.1,8,7"/>
		<path class="st21" d="M0,14.2c3.5-0.1,7-4.2,7.6-7.4c0.3,3.6,4.5,7.1,8,7"/>
	</g>
	<g transform="translate(1097.483 820.023)">
		<line class="st21" x1="7.4" y1="0.3" x2="7.4" y2="21.8"/>
		<path class="st21" d="M0,7.4c3.5,0,7-4.2,7.6-7.4c0.3,3.6,4.5,7.1,8,7"/>
		<path class="st21" d="M0,14.2c3.5-0.1,7-4.2,7.6-7.4c0.3,3.6,4.5,7.1,8,7"/>
	</g>
	<g transform="translate(1133.682 815.197)">
		<line class="st21" x1="7.4" y1="0.3" x2="7.4" y2="21.8"/>
		<path class="st21" d="M0,7.4c3.5,0,7-4.2,7.6-7.4c0.3,3.6,4.5,7.1,8,7"/>
		<path class="st21" d="M0,14.2c3.5-0.1,7-4.2,7.6-7.4c0.3,3.6,4.5,7.1,8,7"/>
	</g>
	<g transform="translate(1191.601 753.657)">
		<line class="st21" x1="7.4" y1="0.3" x2="7.4" y2="21.8"/>
		<path class="st21" d="M0,7.4c3.5,0,7-4.2,7.6-7.4c0.3,3.6,4.5,7.1,8,7"/>
		<path class="st21" d="M0,14.2c3.5-0.1,7-4.2,7.6-7.4c0.3,3.6,4.5,7.1,8,7"/>
	</g>
	<rect x="1306" y="793.4" class="st22" width="15" height="15"/>
</g>
</svg>
